<svg width="168" height="168" viewBox="0 0 168 168" fill="none" xmlns="http://www.w3.org/2000/svg">
<g filter="url(#filter0_bd_563_2786)">
<path d="M84 160C128.183 160 164 124.183 164 80C164 35.8172 128.183 0 84 0C39.8172 0 4 35.8172 4 80C4 124.183 39.8172 160 84 160Z" fill="url(#paint0_linear_563_2786)" shape-rendering="crispEdges"/>
</g>
<path d="M83.6279 152.558C123.906 152.558 156.558 119.906 156.558 79.6279C156.558 39.3496 123.906 6.69763 83.6279 6.69763C43.3496 6.69763 10.6976 39.3496 10.6976 79.6279C10.6976 119.906 43.3496 152.558 83.6279 152.558Z" stroke="#5FBEFF" stroke-width="2.5" stroke-miterlimit="10"/>
<g filter="url(#filter1_d_563_2786)">
<path d="M83.7565 98.5053C80.8468 98.5053 77.933 98.4814 75.0232 98.5132C73.5803 98.5291 72.4871 97.9846 71.6365 96.8278C68.9692 93.2105 66.2939 89.5971 63.5988 85.9996C62.5533 84.6044 62.4341 83.1733 63.5193 81.8138C66.5483 78.0216 69.9152 74.599 74.1805 72.1503C79.9643 68.8311 85.8077 68.6403 91.7624 71.6534C96.3497 73.9789 99.9273 77.4492 102.996 81.4998C103.89 82.6804 104.018 83.9127 103.239 85.1847C100.897 89.0167 98.5558 92.8447 96.1867 96.6608C95.3956 97.9369 94.223 98.5291 92.6886 98.5093C89.7112 98.4775 86.7339 98.5053 83.7565 98.5053Z" fill="#F01B1B"/>
<path d="M69.2595 48.1804C69.7802 52.235 68.6235 55.6734 66.2822 58.7462C63.3565 62.5822 59.3496 64.9831 55.0843 67.0224C53.3114 67.8691 51.6259 68.7277 49.6662 67.1814C48.74 66.4499 47.3646 66.5414 46.2874 67.2688C45.6434 67.7021 45.3612 67.7816 45.071 66.915C41.5332 56.3174 47.7105 44.7181 58.5387 41.7049C58.7692 41.6413 59.0316 41.697 59.5483 41.697C58.1093 43.8157 58.0577 45.9901 57.9384 48.2559C57.7397 51.9647 55.8117 54.9977 53.1524 57.5298C52.4567 58.1937 51.5306 58.8177 52.4409 59.7638C53.3114 60.6662 54.1462 59.8393 54.8339 59.2351C56.2371 58.0028 57.3302 56.5082 58.2206 54.8745C58.9521 53.5309 60.1048 52.6961 61.5637 52.7716C65.1532 52.9624 67.8762 51.8454 69.2595 48.1804Z" fill="#F01B1B"/>
<path d="M55.7323 75.4059C57.9464 75.8272 60.4388 77.8506 62.0925 79.381C62.4343 79.695 61.5479 79.9296 61.365 80.1919C61.1742 80.4622 61.0311 80.7922 60.7846 80.9869C60.0254 81.5832 60.8482 84.0358 59.3099 83.7576C57.0401 83.3442 53.6454 81.7422 52.5522 79.385C51.8089 77.7711 54.015 75.386 55.7323 75.4059Z" fill="#AF0404"/>
<path d="M52.9497 73.4183C52.3932 74.3088 51.1013 75.545 50.2943 76.2168C49.8491 76.5905 49.0621 75.6603 48.4817 75.2508C47.3408 74.4479 46.7008 74.3167 45.9456 73.1242C45.2102 71.9634 45.3135 71.7249 46.3033 70.7073C47.321 69.6579 49.1455 69.5347 50.1671 70.2343C51.7532 71.3314 52.3694 71.5023 52.9497 73.4183Z" fill="#AF0404"/>
<path d="M69.5537 98.5727C70.0386 98.859 70.293 99.4791 70.0386 99.654C68.3214 100.858 65.3719 102.393 63.6785 103.629C63.0265 104.106 62.4541 103.406 62.001 102.639C61.6392 102.027 60.0651 101.129 60.8959 100.449C62.4223 99.2048 64.5729 97.8175 66.0874 96.5653C66.5286 96.1996 67.5264 96.1599 68.067 96.6607C68.6354 97.1815 69.0329 97.8811 69.5537 98.5727Z" fill="#AF0404"/>
<path d="M66.2106 94.375C62.4899 96.8713 61.3053 96.1677 58.9123 96.8713C57.8788 97.1734 57.3421 96.2154 57.0639 95.3369C56.8134 94.5379 56.3921 93.1387 57.3223 92.8962C59.2502 92.3993 61.5478 91.8865 63.7699 92.3993C64.9147 92.6657 65.7177 93.0314 66.2106 94.375Z" fill="#AF0404"/>
<path d="M54.5397 94.4863C54.5517 94.6175 55.3785 97.1616 55.3348 97.2689C55.1519 97.7181 48.5771 100.051 48.5771 98.8589C48.5771 97.6664 47.639 96.4977 48.3545 96.1956C49.4317 95.7385 50.5845 95.4443 51.6379 94.9435C53.1206 94.2359 54.2734 93.6357 54.5397 94.4863Z" fill="#AF0404"/>
<path d="M39.4978 81.933C40.2292 76.201 40.8652 80.7564 42.2168 82.5651C43.1549 83.8252 43.7591 84.2943 44.6018 84.5527C45.1186 84.7117 46.5894 84.5129 46.5894 86.5402C46.5894 87.7327 44.5939 87.3789 44.2043 87.3352C41.072 86.9735 39.8436 85.0257 39.4978 81.933Z" fill="#AF0404"/>
<path d="M56.1298 108.797C55.3347 109.194 54.6391 108.197 54.5397 108.002C54.3131 107.557 53.3432 107.163 53.7447 106.809C54.8339 105.855 55.7163 104.822 56.9248 104.027C58.5069 102.989 58.6977 102.619 60.1049 104.027C61.2974 105.219 60.5938 105.585 60.1049 106.014C58.7851 107.171 57.6204 107.735 56.1298 108.797Z" fill="#AF0404"/>
<path d="M49.7696 117.939C45.397 114.362 47.3845 111.977 50.9621 109.194C52.095 108.316 52.3415 109.31 52.5522 109.592C52.9179 110.081 53.5976 110.534 53.3472 110.784C50.5885 113.543 49.7696 114.759 50.5646 117.144C51.6379 120.364 50.6958 118.679 49.7696 117.939Z" fill="#AF0404"/>
<path d="M37.0493 100.051C35.8567 97.6664 38.5081 98.9424 39.0368 98.8589C41.6365 98.4534 42.6104 98.0082 44.602 97.2689C45.0273 97.1099 46.0608 97.9367 46.192 98.4614C46.2914 98.8589 46.1523 99.9203 45.7945 100.051C43.2306 100.982 39.0368 103.629 37.0493 100.051Z" fill="#AF0404"/>
<path d="M53.7447 89.3187C52.7112 89.1597 50.4017 88.7145 49.3721 88.5237C48.7242 88.4044 48.4061 87.8479 48.5771 86.9336C48.7242 86.1386 49.1733 85.276 49.7696 85.3436C50.8071 85.4628 52.7032 85.6735 53.7447 85.7411C54.6153 85.7967 54.6113 87.0012 54.5715 87.8161C54.5199 88.8297 54.2893 89.3385 53.7447 89.3187Z" fill="#AF0404"/>
<path d="M62.7444 89.7045C61.2736 89.8834 59.938 89.8357 58.5149 89.7164C57.7159 89.6488 56.893 88.349 56.9248 87.7288C56.9646 86.9537 57.1315 85.7294 57.7199 85.7413C59.5524 85.781 61.2975 86.1388 62.7444 89.7045Z" fill="#AF0404"/>
<path d="M98.4447 48.1804C97.9239 52.235 99.0807 55.6734 101.422 58.7462C104.348 62.5822 108.355 64.9831 112.62 67.0224C114.393 67.8691 116.078 68.7277 118.038 67.1814C118.964 66.4499 120.34 66.5414 121.417 67.2688C122.061 67.7021 122.343 67.7816 122.633 66.915C126.171 56.3174 119.994 44.7181 109.166 41.7049C108.935 41.6413 108.673 41.697 108.156 41.697C109.595 43.8157 109.647 45.9901 109.766 48.2559C109.965 51.9647 111.892 54.9977 114.552 57.5298C115.247 58.1937 116.174 58.8177 115.263 59.7638C114.393 60.6662 113.558 59.8393 112.87 59.2351C111.467 58.0028 110.374 56.5082 109.484 54.8745C108.752 53.5309 107.599 52.6961 106.14 52.7716C102.555 52.9624 99.828 51.8454 98.4447 48.1804Z" fill="#F01B1B"/>
<path d="M111.972 75.4059C109.758 75.8272 107.265 77.8506 105.612 79.381C105.27 79.695 106.156 79.9296 106.339 80.1919C106.53 80.4622 106.673 80.7922 106.92 80.9869C107.679 81.5832 106.856 84.0358 108.394 83.7576C110.664 83.3442 114.059 81.7422 115.152 79.385C115.895 77.7711 113.689 75.386 111.972 75.4059Z" fill="#AF0404"/>
<path d="M114.754 73.4183C115.311 74.3088 116.603 75.545 117.41 76.2168C117.855 76.5905 118.642 75.6603 119.222 75.2508C120.363 74.4479 121.003 74.3167 121.759 73.1242C122.494 71.9634 122.391 71.7249 121.401 70.7073C120.383 69.6579 118.559 69.5347 117.537 70.2343C115.951 71.3314 115.335 71.5023 114.754 73.4183Z" fill="#AF0404"/>
<path d="M98.1507 98.5727C97.6657 98.859 97.4113 99.4791 97.6657 99.654C99.3829 100.858 102.332 102.393 104.026 103.629C104.678 104.106 105.25 103.406 105.703 102.639C106.065 102.027 107.639 101.129 106.808 100.449C105.282 99.2048 103.131 97.8175 101.617 96.5653C101.176 96.1996 100.178 96.1599 99.6374 96.6607C99.0689 97.1815 98.6714 97.8811 98.1507 98.5727Z" fill="#AF0404"/>
<path d="M101.494 94.375C105.214 96.8713 106.399 96.1677 108.792 96.8713C109.825 97.1734 110.362 96.2154 110.64 95.3369C110.891 94.5379 111.312 93.1387 110.382 92.8962C108.454 92.3993 106.156 91.8865 103.934 92.3993C102.79 92.6657 101.987 93.0314 101.494 94.375Z" fill="#AF0404"/>
<path d="M113.165 94.4863C113.153 94.6175 112.326 97.1616 112.37 97.2689C112.552 97.7181 119.127 100.051 119.127 98.8589C119.127 97.6664 120.065 96.4977 119.35 96.1956C118.273 95.7385 117.12 95.4443 116.066 94.9435C114.588 94.2359 113.431 93.6357 113.165 94.4863Z" fill="#AF0404"/>
<path d="M128.206 81.933C127.475 76.201 126.839 80.7564 125.487 82.5651C124.549 83.8252 123.945 84.2943 123.102 84.5527C122.586 84.7117 121.115 84.5129 121.115 86.5402C121.115 87.7327 123.11 87.3789 123.5 87.3352C126.632 86.9735 127.861 85.0257 128.206 81.933Z" fill="#AF0404"/>
<path d="M111.574 108.797C112.369 109.194 113.065 108.197 113.164 108.002C113.391 107.557 114.361 107.163 113.959 106.809C112.87 105.855 111.988 104.822 110.779 104.027C109.197 102.989 109.006 102.619 107.599 104.027C106.407 105.219 107.11 105.585 107.599 106.014C108.919 107.171 110.084 107.735 111.574 108.797Z" fill="#AF0404"/>
<path d="M117.935 117.939C122.307 114.362 120.32 111.977 116.742 109.194C115.609 108.316 115.363 109.31 115.152 109.592C114.786 110.081 114.107 110.534 114.357 110.784C117.116 113.543 117.935 114.759 117.14 117.144C116.066 120.364 117.008 118.679 117.935 117.939Z" fill="#AF0404"/>
<path d="M130.655 100.051C131.847 97.6664 129.196 98.9424 128.667 98.8589C126.068 98.4534 125.094 98.0082 123.102 97.2689C122.677 97.1099 121.643 97.9367 121.512 98.4614C121.413 98.8589 121.552 99.9203 121.91 100.051C124.474 100.982 128.667 103.629 130.655 100.051Z" fill="#AF0404"/>
<path d="M113.96 89.3187C114.993 89.1597 117.303 88.7145 118.332 88.5237C118.98 88.4044 119.298 87.8479 119.127 86.9336C118.98 86.1386 118.531 85.276 117.935 85.3436C116.897 85.4628 115.001 85.6735 113.96 85.7411C113.089 85.7967 113.093 87.0012 113.133 87.8161C113.184 88.8297 113.415 89.3385 113.96 89.3187Z" fill="#AF0404"/>
<path d="M104.96 89.7045C106.431 89.8834 107.766 89.8357 109.189 89.7164C109.988 89.6488 110.811 88.349 110.78 87.7288C110.74 86.9537 110.573 85.7294 109.984 85.7413C108.152 85.781 106.407 86.1388 104.96 89.7045Z" fill="#AF0404"/>
</g>
<defs>
<filter id="filter0_bd_563_2786" x="-36" y="-40" width="240" height="240" filterUnits="userSpaceOnUse" color-interpolation-filters="sRGB">
<feFlood flood-opacity="0" result="BackgroundImageFix"/>
<feGaussianBlur in="BackgroundImage" stdDeviation="20"/>
<feComposite in2="SourceAlpha" operator="in" result="effect1_backgroundBlur_563_2786"/>
<feColorMatrix in="SourceAlpha" type="matrix" values="0 0 0 0 0 0 0 0 0 0 0 0 0 0 0 0 0 0 127 0" result="hardAlpha"/>
<feOffset dy="4"/>
<feGaussianBlur stdDeviation="2"/>
<feComposite in2="hardAlpha" operator="out"/>
<feColorMatrix type="matrix" values="0 0 0 0 0 0 0 0 0 0 0 0 0 0 0 0 0 0 0.25 0"/>
<feBlend mode="normal" in2="effect1_backgroundBlur_563_2786" result="effect2_dropShadow_563_2786"/>
<feBlend mode="normal" in="SourceGraphic" in2="effect2_dropShadow_563_2786" result="shape"/>
</filter>
<filter id="filter1_d_563_2786" x="26.7441" y="41.6744" width="114.216" height="97.3701" filterUnits="userSpaceOnUse" color-interpolation-filters="sRGB">
<feFlood flood-opacity="0" result="BackgroundImageFix"/>
<feColorMatrix in="SourceAlpha" type="matrix" values="0 0 0 0 0 0 0 0 0 0 0 0 0 0 0 0 0 0 127 0" result="hardAlpha"/>
<feOffset dy="10"/>
<feGaussianBlur stdDeviation="5"/>
<feComposite in2="hardAlpha" operator="out"/>
<feColorMatrix type="matrix" values="0 0 0 0 0.0666667 0 0 0 0 0.0941176 0 0 0 0 0.152941 0 0 0 1 0"/>
<feBlend mode="normal" in2="BackgroundImageFix" result="effect1_dropShadow_563_2786"/>
<feBlend mode="normal" in="SourceGraphic" in2="effect1_dropShadow_563_2786" result="shape"/>
</filter>
<linearGradient id="paint0_linear_563_2786" x1="37.337" y1="9.16087" x2="132.984" y2="144.003" gradientUnits="userSpaceOnUse">
<stop stop-color="#0DCAF0"/>
<stop offset="0.0001" stop-color="#005278" stop-opacity="0.4"/>
<stop offset="1" stop-color="#234761" stop-opacity="0.1"/>
</linearGradient>
</defs>
</svg>
