<svg width="168" height="168" viewBox="0 0 168 168" fill="none" xmlns="http://www.w3.org/2000/svg">
<g filter="url(#filter0_bd_563_2786)">
<path d="M84 160C128.183 160 164 124.183 164 80C164 35.8172 128.183 0 84 0C39.8172 0 4 35.8172 4 80C4 124.183 39.8172 160 84 160Z" fill="url(#paint0_linear_563_2786)" shape-rendering="crispEdges"/>
</g>
<path d="M83.6279 152.558C123.906 152.558 156.558 119.906 156.558 79.628C156.558 39.3497 123.906 6.69775 83.6279 6.69775C43.3496 6.69775 10.6976 39.3497 10.6976 79.628C10.6976 119.906 43.3496 152.558 83.6279 152.558Z" stroke="#5FBEFF" stroke-width="2.5" stroke-miterlimit="10"/>
<g filter="url(#filter1_d_563_2786)">
<path d="M83.7567 98.505C80.8469 98.505 77.9331 98.4812 75.0234 98.513C73.5804 98.5289 72.4873 97.9843 71.6366 96.8276C68.9693 93.2102 66.294 89.5968 63.5989 85.9994C62.5535 84.6041 62.4342 83.1731 63.5194 81.8136C66.5484 78.0213 69.9153 74.5988 74.1806 72.1501C79.9644 68.8309 85.8078 68.6401 91.7625 71.6532C96.3498 73.9786 99.9274 77.4489 102.996 81.4995C103.891 82.6802 104.018 83.9124 103.239 85.1845C100.897 89.0165 98.556 92.8445 96.1868 96.6606C95.3958 97.9366 94.2231 98.5289 92.6887 98.509C89.7114 98.4772 86.734 98.505 83.7567 98.505Z" fill="#EF4444"/>
<path d="M69.2595 48.1802C69.7802 52.2348 68.6235 55.6733 66.2822 58.7461C63.3565 62.5821 59.3496 64.983 55.0843 67.0222C53.3114 67.8689 51.6259 68.7276 49.6662 67.1812C48.74 66.4498 47.3646 66.5413 46.2874 67.2687C45.6434 67.702 45.3612 67.7815 45.071 66.9149C41.5332 56.3173 47.7105 44.7179 58.5387 41.7048C58.7692 41.6412 59.0316 41.6968 59.5483 41.6968C58.1093 43.8156 58.0577 45.99 57.9384 48.2558C57.7397 51.9645 55.8117 54.9976 53.1524 57.5297C52.4567 58.1935 51.5306 58.8176 52.4409 59.7637C53.3114 60.6661 54.1462 59.8392 54.8339 59.235C56.2371 58.0027 57.3302 56.5081 58.2206 54.8743C58.9521 53.5307 60.1048 52.696 61.5637 52.7715C65.1532 52.9623 67.8762 51.8453 69.2595 48.1802Z" fill="#EF4444"/>
<path d="M55.7323 75.4059C57.9464 75.8272 60.4388 77.8506 62.0925 79.381C62.4343 79.695 61.5479 79.9296 61.365 80.1919C61.1742 80.4622 61.0311 80.7922 60.7846 80.9869C60.0254 81.5832 60.8482 84.0358 59.3099 83.7576C57.0401 83.3442 53.6454 81.7422 52.5522 79.385C51.8089 77.7711 54.015 75.386 55.7323 75.4059Z" fill="#EF4444"/>
<path d="M52.9497 73.4182C52.3932 74.3086 51.1013 75.5449 50.2943 76.2167C49.8491 76.5904 49.0621 75.6602 48.4817 75.2507C47.3408 74.4478 46.7008 74.3166 45.9456 73.1241C45.2102 71.9633 45.3135 71.7248 46.3033 70.7072C47.321 69.6578 49.1455 69.5345 50.1671 70.2341C51.7532 71.3313 52.3694 71.5022 52.9497 73.4182Z" fill="#EF4444"/>
<path d="M69.5538 98.5726C70.0387 98.8588 70.2932 99.4789 70.0388 99.6538C68.3215 100.858 65.372 102.393 63.6786 103.629C63.0267 104.106 62.4542 103.406 62.0011 102.639C61.6393 102.027 60.0652 101.129 60.896 100.449C62.4225 99.2047 64.573 97.8174 66.0875 96.5652C66.5287 96.1995 67.5265 96.1597 68.0671 96.6606C68.6355 97.1813 69.033 97.881 69.5538 98.5726Z" fill="#EF4444"/>
<path d="M66.2106 94.375C62.4899 96.8713 61.3053 96.1677 58.9123 96.8713C57.8788 97.1734 57.3421 96.2154 57.0639 95.3369C56.8134 94.5379 56.3921 93.1387 57.3223 92.8962C59.2502 92.3993 61.5478 91.8865 63.7699 92.3993C64.9147 92.6657 65.7177 93.0314 66.2106 94.375Z" fill="#EF4444"/>
<path d="M54.5397 94.4862C54.5517 94.6174 55.3785 97.1614 55.3348 97.2688C55.1519 97.718 48.5771 100.051 48.5771 98.8588C48.5771 97.6663 47.639 96.4976 48.3545 96.1955C49.4317 95.7384 50.5845 95.4442 51.6379 94.9433C53.1206 94.2358 54.2734 93.6355 54.5397 94.4862Z" fill="#EF4444"/>
<path d="M39.4978 81.933C40.2292 76.201 40.8652 80.7564 42.2168 82.5651C43.1549 83.8252 43.7591 84.2943 44.6018 84.5527C45.1186 84.7117 46.5894 84.5129 46.5894 86.5402C46.5894 87.7327 44.5939 87.3789 44.2043 87.3352C41.072 86.9735 39.8436 85.0257 39.4978 81.933Z" fill="#EF4444"/>
<path d="M56.1298 108.797C55.3347 109.194 54.6391 108.196 54.5397 108.002C54.3131 107.556 53.3432 107.163 53.7447 106.809C54.8339 105.855 55.7163 104.821 56.9248 104.026C58.5069 102.989 58.6977 102.619 60.1049 104.026C61.2974 105.219 60.5938 105.585 60.1049 106.014C58.7851 107.171 57.6204 107.735 56.1298 108.797Z" fill="#EF4444"/>
<path d="M49.7696 117.939C45.397 114.362 47.3845 111.977 50.9621 109.194C52.095 108.316 52.3415 109.309 52.5522 109.592C52.9179 110.081 53.5976 110.534 53.3472 110.784C50.5885 113.543 49.7696 114.759 50.5646 117.144C51.6379 120.364 50.6958 118.679 49.7696 117.939Z" fill="#EF4444"/>
<path d="M37.0493 100.051C35.8567 97.6663 38.5081 98.9423 39.0368 98.8588C41.6365 98.4533 42.6104 98.0081 44.602 97.2687C45.0273 97.1097 46.0608 97.9366 46.192 98.4613C46.2914 98.8588 46.1523 99.9201 45.7945 100.051C43.2306 100.981 39.0368 103.629 37.0493 100.051Z" fill="#EF4444"/>
<path d="M53.7447 89.3184C52.7112 89.1594 50.4017 88.7142 49.3721 88.5234C48.7242 88.4042 48.4061 87.8476 48.5771 86.9334C48.7242 86.1383 49.1733 85.2758 49.7696 85.3433C50.8071 85.4626 52.7032 85.6733 53.7447 85.7408C54.6153 85.7965 54.6113 87.001 54.5715 87.8159C54.5199 88.8295 54.2893 89.3383 53.7447 89.3184Z" fill="#EF4444"/>
<path d="M62.7444 89.7042C61.2736 89.8831 59.938 89.8354 58.5149 89.7162C57.7159 89.6486 56.893 88.3487 56.9248 87.7286C56.9646 86.9535 57.1315 85.7291 57.7199 85.7411C59.5524 85.7808 61.2975 86.1386 62.7444 89.7042Z" fill="#EF4444"/>
<path d="M98.4447 48.1802C97.9239 52.2348 99.0807 55.6733 101.422 58.7461C104.348 62.5821 108.355 64.983 112.62 67.0222C114.393 67.8689 116.078 68.7276 118.038 67.1812C118.964 66.4498 120.34 66.5413 121.417 67.2687C122.061 67.702 122.343 67.7815 122.633 66.9149C126.171 56.3173 119.994 44.7179 109.166 41.7048C108.935 41.6412 108.673 41.6968 108.156 41.6968C109.595 43.8156 109.647 45.99 109.766 48.2558C109.965 51.9645 111.892 54.9976 114.552 57.5297C115.247 58.1935 116.174 58.8176 115.263 59.7637C114.393 60.6661 113.558 59.8392 112.87 59.235C111.467 58.0027 110.374 56.5081 109.484 54.8743C108.752 53.5307 107.599 52.696 106.14 52.7715C102.555 52.9623 99.828 51.8453 98.4447 48.1802Z" fill="#EF4444"/>
<path d="M111.972 75.4059C109.758 75.8272 107.265 77.8506 105.612 79.381C105.27 79.695 106.156 79.9296 106.339 80.1919C106.53 80.4622 106.673 80.7922 106.92 80.9869C107.679 81.5832 106.856 84.0358 108.394 83.7576C110.664 83.3442 114.059 81.7422 115.152 79.385C115.895 77.7711 113.689 75.386 111.972 75.4059Z" fill="#EF4444"/>
<path d="M114.755 73.4182C115.311 74.3086 116.603 75.5449 117.41 76.2167C117.855 76.5904 118.642 75.6602 119.223 75.2507C120.363 74.4478 121.003 74.3166 121.759 73.1241C122.494 71.9633 122.391 71.7248 121.401 70.7072C120.383 69.6578 118.559 69.5345 117.537 70.2341C115.951 71.3313 115.335 71.5022 114.755 73.4182Z" fill="#EF4444"/>
<path d="M98.1505 98.5726C97.6656 98.8588 97.4112 99.4789 97.6656 99.6538C99.3828 100.858 102.332 102.393 104.026 103.629C104.678 104.106 105.25 103.406 105.703 102.639C106.065 102.027 107.639 101.129 106.808 100.449C105.282 99.2047 103.131 97.8174 101.617 96.5652C101.176 96.1995 100.178 96.1597 99.6372 96.6606C99.0688 97.1813 98.6713 97.881 98.1505 98.5726Z" fill="#EF4444"/>
<path d="M101.494 94.375C105.214 96.8713 106.399 96.1677 108.792 96.8713C109.825 97.1734 110.362 96.2154 110.64 95.3369C110.891 94.5379 111.312 93.1387 110.382 92.8962C108.454 92.3993 106.156 91.8865 103.934 92.3993C102.79 92.6657 101.987 93.0314 101.494 94.375Z" fill="#EF4444"/>
<path d="M113.165 94.4862C113.153 94.6174 112.326 97.1614 112.37 97.2688C112.552 97.718 119.127 100.051 119.127 98.8588C119.127 97.6663 120.065 96.4976 119.35 96.1955C118.273 95.7384 117.12 95.4442 116.066 94.9433C114.588 94.2358 113.431 93.6355 113.165 94.4862Z" fill="#EF4444"/>
<path d="M128.206 81.933C127.475 76.201 126.839 80.7564 125.487 82.5651C124.549 83.8252 123.945 84.2943 123.102 84.5527C122.586 84.7117 121.115 84.5129 121.115 86.5402C121.115 87.7327 123.11 87.3789 123.5 87.3352C126.632 86.9735 127.861 85.0257 128.206 81.933Z" fill="#EF4444"/>
<path d="M111.574 108.797C112.369 109.194 113.065 108.196 113.164 108.002C113.391 107.556 114.361 107.163 113.96 106.809C112.87 105.855 111.988 104.821 110.779 104.026C109.197 102.989 109.007 102.619 107.599 104.026C106.407 105.219 107.11 105.585 107.599 106.014C108.919 107.171 110.084 107.735 111.574 108.797Z" fill="#EF4444"/>
<path d="M117.935 117.939C122.307 114.362 120.32 111.977 116.742 109.194C115.609 108.316 115.363 109.309 115.152 109.592C114.786 110.081 114.107 110.534 114.357 110.784C117.116 113.543 117.935 114.759 117.14 117.144C116.066 120.364 117.008 118.679 117.935 117.939Z" fill="#EF4444"/>
<path d="M130.655 100.051C131.847 97.6663 129.196 98.9423 128.667 98.8588C126.068 98.4533 125.094 98.0081 123.102 97.2687C122.677 97.1097 121.643 97.9366 121.512 98.4613C121.413 98.8588 121.552 99.9201 121.91 100.051C124.474 100.981 128.667 103.629 130.655 100.051Z" fill="#EF4444"/>
<path d="M113.96 89.3184C114.993 89.1594 117.303 88.7142 118.332 88.5234C118.98 88.4042 119.298 87.8476 119.127 86.9334C118.98 86.1383 118.531 85.2758 117.935 85.3433C116.897 85.4626 115.001 85.6733 113.96 85.7408C113.089 85.7965 113.093 87.001 113.133 87.8159C113.184 88.8295 113.415 89.3383 113.96 89.3184Z" fill="#EF4444"/>
<path d="M104.96 89.7042C106.431 89.8831 107.766 89.8354 109.189 89.7162C109.988 89.6486 110.811 88.3487 110.78 87.7286C110.74 86.9535 110.573 85.7291 109.984 85.7411C108.152 85.7808 106.407 86.1386 104.96 89.7042Z" fill="#EF4444"/>
</g>
<defs>
<filter id="filter0_bd_563_2786" x="-36" y="-40" width="240" height="240" filterUnits="userSpaceOnUse" color-interpolation-filters="sRGB">
<feFlood flood-opacity="0" result="BackgroundImageFix"/>
<feGaussianBlur in="BackgroundImage" stdDeviation="20"/>
<feComposite in2="SourceAlpha" operator="in" result="effect1_backgroundBlur_563_2786"/>
<feColorMatrix in="SourceAlpha" type="matrix" values="0 0 0 0 0 0 0 0 0 0 0 0 0 0 0 0 0 0 127 0" result="hardAlpha"/>
<feOffset dy="4"/>
<feGaussianBlur stdDeviation="2"/>
<feComposite in2="hardAlpha" operator="out"/>
<feColorMatrix type="matrix" values="0 0 0 0 0 0 0 0 0 0 0 0 0 0 0 0 0 0 0.25 0"/>
<feBlend mode="normal" in2="effect1_backgroundBlur_563_2786" result="effect2_dropShadow_563_2786"/>
<feBlend mode="normal" in="SourceGraphic" in2="effect2_dropShadow_563_2786" result="shape"/>
</filter>
<filter id="filter1_d_563_2786" x="26.7441" y="41.6743" width="114.216" height="97.3701" filterUnits="userSpaceOnUse" color-interpolation-filters="sRGB">
<feFlood flood-opacity="0" result="BackgroundImageFix"/>
<feColorMatrix in="SourceAlpha" type="matrix" values="0 0 0 0 0 0 0 0 0 0 0 0 0 0 0 0 0 0 127 0" result="hardAlpha"/>
<feOffset dy="10"/>
<feGaussianBlur stdDeviation="5"/>
<feComposite in2="hardAlpha" operator="out"/>
<feColorMatrix type="matrix" values="0 0 0 0 0.0666667 0 0 0 0 0.0941176 0 0 0 0 0.152941 0 0 0 1 0"/>
<feBlend mode="normal" in2="BackgroundImageFix" result="effect1_dropShadow_563_2786"/>
<feBlend mode="normal" in="SourceGraphic" in2="effect1_dropShadow_563_2786" result="shape"/>
</filter>
<linearGradient id="paint0_linear_563_2786" x1="37.337" y1="9.16087" x2="132.984" y2="144.003" gradientUnits="userSpaceOnUse">
<stop stop-color="#0DCAF0"/>
<stop offset="0.0001" stop-color="#005278" stop-opacity="0.4"/>
<stop offset="1" stop-color="#234761" stop-opacity="0.1"/>
</linearGradient>
</defs>
</svg>
