<svg width="168" height="168" viewBox="0 0 168 168" fill="none" xmlns="http://www.w3.org/2000/svg">
<g filter="url(#filter0_bd_563_2753)">
<path d="M84 160C128.183 160 164 124.183 164 80C164 35.8172 128.183 0 84 0C39.8172 0 4 35.8172 4 80C4 124.183 39.8172 160 84 160Z" fill="url(#paint0_linear_563_2753)" shape-rendering="crispEdges"/>
</g>
<path d="M83.6279 152.558C123.906 152.558 156.558 119.906 156.558 79.628C156.558 39.3497 123.906 6.69775 83.6279 6.69775C43.3496 6.69775 10.6976 39.3497 10.6976 79.628C10.6976 119.906 43.3496 152.558 83.6279 152.558Z" stroke="#5FBEFF" stroke-width="2.5" stroke-miterlimit="10"/>
<g filter="url(#filter1_d_563_2753)">
<path d="M111.305 44.8927C115.178 43.1323 95.1093 40.3156 88.4197 42.4281C97.2218 45.2448 101.447 48.4135 105.32 51.2302C105.32 46.6531 108.228 46.0581 111.305 44.8927Z" fill="#5FBEFF"/>
<path d="M85.955 68.1304C83.832 67.0707 79.2654 64.9617 76.0967 64.9617C79.6175 68.1304 83.4904 79.3971 84.8988 79.7492C86.3071 80.1013 88.1626 74.5348 88.0675 73.0596C87.9725 71.5914 88.0675 69.1867 85.955 68.1304Z" fill="#5FBEFF"/>
<path d="M107.432 82.5655C105.774 77.33 102.345 71.679 98.4998 67.4857C95.4824 64.1938 91.8841 61.7151 87.7577 60.004C87.469 59.8843 87.1169 59.8174 86.8599 59.666C85.2896 59.1484 79.9556 57.5112 75.1355 57.3739C74.5088 57.3563 74.0335 57.307 73.6779 57.2401C72.4843 57.1767 71.2908 57.138 70.0972 57.1591C67.8192 57.1943 65.6117 57.4971 63.471 58.0253C63.471 58.0147 63.471 58.0076 63.471 58.0076C63.471 58.0076 63.3443 58.0464 63.1119 58.1203C61.2423 58.6062 59.422 59.2611 57.6475 60.0673C53.5317 61.6623 47.6308 64.2008 41.2369 67.7744C41.2369 67.7744 41.9411 68.4786 43.3494 68.1265C44.7543 67.7744 52.7994 64.2783 58.0841 63.2079C74.9771 60.1976 89.6132 64.2219 101.412 77.2103C103.499 79.5059 108.136 88.5439 109.897 93.473C109.629 92.4062 107.763 83.6112 107.432 82.5655Z" fill="#F0FAFF"/>
<path d="M121.406 110.644C121.086 110.387 120.755 110.141 120.403 109.933C116.414 107.55 114.615 104.349 116.15 99.6066C116.59 98.2441 116.625 96.7583 116.808 95.3077C116.766 95.2232 116.741 95.1704 116.741 95.1704C116.741 95.1704 117.389 91.4172 117.308 86.2451C117.227 85.1254 117.195 83.9988 117.15 82.8756C117.146 82.8369 117.143 82.8017 117.143 82.763C117.1 82.2243 117.079 81.7736 117.076 81.4039C117.04 80.8335 116.995 80.2632 116.931 79.6928C115.579 67.9508 111.069 57.7686 101.183 50.7938C88.0429 41.5305 73.787 39.6539 58.8657 45.9878C52.824 48.551 49.0567 52.0824 47.5814 58.6276C47.4265 59.3072 46.0604 60.976 45.4689 61.4443C44.3141 62.3562 39.8356 64.9651 40.5398 66.7256C40.5398 66.7256 47.3808 62.9231 49.4792 61.6661C53.669 59.1558 57.908 56.8285 62.6929 55.6279C67.3721 54.4554 72.0689 54.2548 76.7797 54.7477C79.2267 54.892 87.1768 55.6631 92.87 59.7297C100.595 64.2962 105.499 71.2604 108.499 79.8125C110.89 86.6253 111.89 93.6916 112.122 100.874C112.228 104.103 110.583 105.842 107.341 105.786C103.031 105.712 99.0701 106.571 95.6972 109.419C95.5176 109.571 95.3381 109.722 95.1761 109.891C95.1022 109.968 95.074 110.095 94.8874 110.493C98.5807 109.162 101.707 110.292 104.862 111.87C106.886 112.884 108.573 111.489 110.104 110.285C111.939 108.842 112.992 109.081 113.801 111.243C114.791 113.891 116.34 115.528 119.523 115.398C122.42 115.278 124.948 116.567 127.008 118.725C126.036 115.376 124.054 112.778 121.406 110.644Z" fill="#5FBEFF"/>
</g>
<defs>
<filter id="filter0_bd_563_2753" x="-36" y="-40" width="240" height="240" filterUnits="userSpaceOnUse" color-interpolation-filters="sRGB">
<feFlood flood-opacity="0" result="BackgroundImageFix"/>
<feGaussianBlur in="BackgroundImage" stdDeviation="20"/>
<feComposite in2="SourceAlpha" operator="in" result="effect1_backgroundBlur_563_2753"/>
<feColorMatrix in="SourceAlpha" type="matrix" values="0 0 0 0 0 0 0 0 0 0 0 0 0 0 0 0 0 0 127 0" result="hardAlpha"/>
<feOffset dy="4"/>
<feGaussianBlur stdDeviation="2"/>
<feComposite in2="hardAlpha" operator="out"/>
<feColorMatrix type="matrix" values="0 0 0 0 0 0 0 0 0 0 0 0 0 0 0 0 0 0 0.25 0"/>
<feBlend mode="normal" in2="effect1_backgroundBlur_563_2753" result="effect2_dropShadow_563_2753"/>
<feBlend mode="normal" in="SourceGraphic" in2="effect2_dropShadow_563_2753" result="shape"/>
</filter>
<filter id="filter1_d_563_2753" x="30.4651" y="41.6743" width="106.543" height="97.0505" filterUnits="userSpaceOnUse" color-interpolation-filters="sRGB">
<feFlood flood-opacity="0" result="BackgroundImageFix"/>
<feColorMatrix in="SourceAlpha" type="matrix" values="0 0 0 0 0 0 0 0 0 0 0 0 0 0 0 0 0 0 127 0" result="hardAlpha"/>
<feOffset dy="10"/>
<feGaussianBlur stdDeviation="5"/>
<feComposite in2="hardAlpha" operator="out"/>
<feColorMatrix type="matrix" values="0 0 0 0 0.0666667 0 0 0 0 0.0941176 0 0 0 0 0.152941 0 0 0 1 0"/>
<feBlend mode="normal" in2="BackgroundImageFix" result="effect1_dropShadow_563_2753"/>
<feBlend mode="normal" in="SourceGraphic" in2="effect1_dropShadow_563_2753" result="shape"/>
</filter>
<linearGradient id="paint0_linear_563_2753" x1="37.337" y1="9.16087" x2="132.984" y2="144.003" gradientUnits="userSpaceOnUse">
<stop stop-color="#0DCAF0"/>
<stop offset="0.0001" stop-color="#005278" stop-opacity="0.4"/>
<stop offset="1" stop-color="#234761" stop-opacity="0.1"/>
</linearGradient>
</defs>
</svg>
