<svg width="168" height="168" viewBox="0 0 168 168" fill="none" xmlns="http://www.w3.org/2000/svg">
<g filter="url(#filter0_bd_563_2764)">
<path d="M84 160C128.183 160 164 124.183 164 80C164 35.8172 128.183 0 84 0C39.8172 0 4 35.8172 4 80C4 124.183 39.8172 160 84 160Z" fill="url(#paint0_linear_563_2764)" shape-rendering="crispEdges"/>
</g>
<path d="M83.6279 152.558C123.906 152.558 156.558 119.906 156.558 79.6279C156.558 39.3496 123.906 6.69763 83.6279 6.69763C43.3496 6.69763 10.6976 39.3496 10.6976 79.6279C10.6976 119.906 43.3496 152.558 83.6279 152.558Z" stroke="#5FBEFF" stroke-width="2.5" stroke-miterlimit="10"/>
<g filter="url(#filter1_d_563_2764)">
<path d="M71.7168 109.511C76.2168 109.511 78.2165 105.387 79.6634 103.739C75.5512 102.892 69.8946 102.057 64.2168 99.8607C66.964 102.479 62.2168 108.511 71.7168 109.511Z" fill="#FF7A00"/>
<path d="M78.2648 62.0152C85.6152 59.8526 93.0098 59.3624 100.794 60.1523C102.072 59.9413 100.13 57.1449 96.7142 53.6247C95.6361 52.4646 89.3545 50.03 85.1118 52.7888C79.2168 57.5114 75.1742 62.2581 78.2648 62.0152Z" fill="#FF7A00"/>
<path d="M59.0739 69.8745C63.4331 66.995 68.1629 65.1656 73.4087 64.0669C74.2004 63.6707 72.3608 62.2985 69.4101 60.7709C68.4689 60.2576 63.8685 60.0061 61.661 62.6248C58.776 64.4294 57.1049 70.6632 59.0739 69.8745Z" fill="#FF7A00"/>
<path d="M47.7168 90.5113C50.2168 90.5114 48.554 87.6006 49.2166 84.5113C50.2041 79.9134 50.2168 75.8446 48.2168 76.5113C45.2167 77.5113 42.7166 72.0536 39.7166 74.0113C35.8692 76.522 37.027 88.6317 37.7167 90.0113C40.7167 96.0114 45.2168 90.5112 47.7168 90.5113Z" fill="#FF7A00"/>
<path d="M114.699 69.3324C113.636 68.7222 112.873 68.7799 111.933 69.5262C107.62 72.9442 105.385 77.3642 105.258 82.8561C105.39 88.3686 107.583 92.8504 111.991 96.1406C112.58 96.5817 113.858 96.7178 114.485 96.3797C120.187 93.3204 124.982 91.0827 129.011 86.0114C129.753 85.0754 130.438 81.4226 129.717 80.5114C125.742 75.4895 120.253 72.5237 114.699 69.3324Z" fill="#FF7A00"/>
<path d="M50.7478 85.6715C51.1156 83.1746 51.0542 79.4435 50.7477 77.5113C50.2878 75.282 56.085 72.4443 57.2168 76.0114C59.056 81.8077 61.0158 85.0526 58.7168 89.5113C56.4178 93.9701 52.4433 91.3983 50.7477 90.5762C49.8281 90.1303 50.288 88.7926 50.7478 85.6715Z" fill="#FFE6CF"/>
<path d="M66.6126 70.5115C64.5041 69.7188 60.3151 71.6858 59.2169 72.5115C56.5812 74.4932 61.3413 78.5526 62.0002 83.0114C62.6591 87.4702 59.7168 89.5114 59.7168 93.5114C59.7168 96.5114 66.74 98.0114 68.7168 98.0114C70.6936 98.0114 72.1964 92.221 72.7168 89.0114C73.3757 84.9472 73.3568 82.6178 73.2019 81.1397C72.7168 76.5114 69.2483 71.5023 66.6126 70.5115Z" fill="#FF7A00"/>
<path d="M72.7166 68.0114C72.0054 67.1735 70.1056 67.8132 69.2166 68.5115C67.7351 69.4483 71.7432 72.5641 72.7168 74.5114C76.2163 81.5114 75.7353 86.9366 74.7166 91.0114C73.7166 95.0114 72.5699 95.5114 73.2166 97.5114C74.0248 100.011 75.4387 99.4876 77.2166 100.011C81.655 100.011 78.6859 82.38 78.5549 80.5273C78.1301 74.5197 73.6055 69.0589 72.7166 68.0114Z" fill="#FFE6CF"/>
<path d="M95.6695 64.305C97.5716 63.1268 105.312 65.7776 108.483 67.2504C111.811 69.7049 102.768 72.7564 102.327 80.505C101.851 88.8505 106.58 94.2507 108.483 97.1962C110.385 100.142 95.6695 102.994 95.6695 99.1598C95.6695 95.7235 98.5226 90.3234 95.6695 79.0324C94.2291 73.3321 93.2919 65.7777 95.6695 64.305Z" fill="#FFE6CF"/>
<path d="M78.1416 65.3827C82.2458 64.0212 87.6124 62.2025 90.5176 63.4028C93.0581 64.6774 92.6682 66.794 92.0853 70.3325C91.2688 75.2895 94.1564 83.6913 94.9731 87.6569C96.0443 92.8582 93.3103 98.8066 92.0853 100.294C90.8604 101.781 85.0841 102.382 83.1037 101.781C79.8376 100.789 81.8915 95.8356 82.1018 93.1017C82.5969 86.6669 80.8514 81.7256 79.6267 75.7773C78.4019 69.829 71.3213 67.6452 78.1416 65.3827Z" fill="#FF7A00"/>
</g>
<defs>
<filter id="filter0_bd_563_2764" x="-36" y="-40" width="240" height="240" filterUnits="userSpaceOnUse" color-interpolation-filters="sRGB">
<feFlood flood-opacity="0" result="BackgroundImageFix"/>
<feGaussianBlur in="BackgroundImage" stdDeviation="20"/>
<feComposite in2="SourceAlpha" operator="in" result="effect1_backgroundBlur_563_2764"/>
<feColorMatrix in="SourceAlpha" type="matrix" values="0 0 0 0 0 0 0 0 0 0 0 0 0 0 0 0 0 0 127 0" result="hardAlpha"/>
<feOffset dy="4"/>
<feGaussianBlur stdDeviation="2"/>
<feComposite in2="hardAlpha" operator="out"/>
<feColorMatrix type="matrix" values="0 0 0 0 0 0 0 0 0 0 0 0 0 0 0 0 0 0 0.25 0"/>
<feBlend mode="normal" in2="effect1_backgroundBlur_563_2764" result="effect2_dropShadow_563_2764"/>
<feBlend mode="normal" in="SourceGraphic" in2="effect2_dropShadow_563_2764" result="shape"/>
</filter>
<filter id="filter1_d_563_2764" x="27" y="51.5215" width="113.023" height="77.9899" filterUnits="userSpaceOnUse" color-interpolation-filters="sRGB">
<feFlood flood-opacity="0" result="BackgroundImageFix"/>
<feColorMatrix in="SourceAlpha" type="matrix" values="0 0 0 0 0 0 0 0 0 0 0 0 0 0 0 0 0 0 127 0" result="hardAlpha"/>
<feOffset dy="10"/>
<feGaussianBlur stdDeviation="5"/>
<feComposite in2="hardAlpha" operator="out"/>
<feColorMatrix type="matrix" values="0 0 0 0 0.0666667 0 0 0 0 0.0941176 0 0 0 0 0.152941 0 0 0 1 0"/>
<feBlend mode="normal" in2="BackgroundImageFix" result="effect1_dropShadow_563_2764"/>
<feBlend mode="normal" in="SourceGraphic" in2="effect1_dropShadow_563_2764" result="shape"/>
</filter>
<linearGradient id="paint0_linear_563_2764" x1="37.337" y1="9.16087" x2="132.984" y2="144.003" gradientUnits="userSpaceOnUse">
<stop stop-color="#0DCAF0"/>
<stop offset="0.0001" stop-color="#005278" stop-opacity="0.4"/>
<stop offset="1" stop-color="#234761" stop-opacity="0.1"/>
</linearGradient>
</defs>
</svg>
