<svg width="168" height="168" viewBox="0 0 168 168" fill="none" xmlns="http://www.w3.org/2000/svg">
<g filter="url(#filter0_bd_561_2730)">
<path d="M84 160C128.183 160 164 124.183 164 80C164 35.8172 128.183 0 84 0C39.8172 0 4 35.8172 4 80C4 124.183 39.8172 160 84 160Z" fill="url(#paint0_linear_561_2730)" shape-rendering="crispEdges"/>
</g>
<path d="M83.6279 152.558C123.906 152.558 156.558 119.906 156.558 79.6279C156.558 39.3496 123.906 6.69763 83.6279 6.69763C43.3496 6.69763 10.6976 39.3496 10.6976 79.6279C10.6976 119.906 43.3496 152.558 83.6279 152.558Z" stroke="#5FBEFF" stroke-width="2.5" stroke-miterlimit="10"/>
<g filter="url(#filter1_d_561_2730)">
<path d="M107.345 69.3307C106.731 70.7182 106.079 72.093 105.516 73.4997C105.28 74.0944 105.126 74.7626 105.113 75.402C105.049 78.11 105.155 80.8211 105.011 83.5227C104.762 88.1936 103.898 92.7751 102.629 97.2798C102.568 97.494 102.495 97.753 102.562 97.9416C102.943 99.0254 103.365 100.093 103.847 101.359C106.702 90.7385 107.901 80.1433 107.345 69.3307Z" fill="#F0FAFF"/>
<path d="M97.9422 94.1787C97.1078 92.3468 97.6705 93.6384 96.8872 91.7617C96.3149 90.3933 98.6264 89.0058 99.4225 90.6651C100.503 92.9191 99.755 91.4004 100.605 93.3667C100.666 93.3699 100.727 93.3731 100.791 93.3731C101.069 91.8992 101.354 90.4285 101.622 88.9515C102.466 84.354 102.306 79.7086 102.341 75.0696C102.348 74.2927 102.517 73.4646 102.824 72.7517C105.305 67.0161 114.679 45.7905 116.556 41.5191C116.623 41.3689 116.665 41.209 116.719 41.0459C114.075 40.4289 112.029 42.328 110.181 45.5635C110.136 45.6402 108.912 47.6768 108.825 47.827C107.668 49.8188 106.459 51.7882 105.392 53.828C105.056 54.4706 103.78 56.504 103.409 57.153C101.088 61.2037 98.7447 65.2417 96.4044 69.2796C96.3021 69.4587 95.1959 71.329 94.3903 72.6846C94.3263 72.8252 94.2688 72.9499 94.2016 73.0682C89.4987 81.2017 84.8181 89.3479 80.08 97.459C77.826 101.318 74.3827 103.316 69.9004 103.15C65.6418 102.993 62.384 100.928 60.4593 97.1297C59.4107 95.0611 58.7649 92.7912 57.9432 90.6107C57.5468 89.5589 57.1599 88.5071 56.7826 87.4488C56.2647 86.0069 56.8242 85.2492 58.346 85.1821C59.465 85.1341 60.6128 85.1053 61.6838 84.8208C64.9161 83.9576 67.2692 81.0578 67.5377 77.947C66.7512 78.0525 65.9392 78.2347 65.1239 78.2571C63.3911 78.3051 61.6582 78.2859 59.9254 78.2699C58.41 78.2571 57.2654 78.8646 56.4693 80.1658C55.7468 81.3455 54.6022 81.3487 53.8797 80.1754C53.0804 78.8774 51.9422 78.2571 50.4236 78.2731C49.0936 78.2859 47.7636 78.3147 46.4368 78.2603C45.6695 78.2283 44.9118 78.0461 44.186 77.9406C44.4514 81.6972 47.8531 84.9647 51.939 85.1853C53.3873 85.262 53.7774 85.6616 53.7806 87.0811C53.7838 89.8179 53.7806 92.5514 53.7806 95.3489L53.739 98.5684C53.918 99.6554 54.0555 100.79 54.2985 101.906C56.3319 111.341 64.8106 118.256 74.4787 118.419C79.1049 118.499 83.7023 118.333 88.1975 117.204C90.3235 116.702 92.5487 115.782 94.061 115.081L97.4915 113.275C97.2197 112.728 96.9447 112.182 96.6666 111.625L94.9625 108.272C94.9306 108.147 94.8794 108.016 94.8091 107.878C93.9171 106.168 93.0571 104.438 92.213 102.702C92.0084 102.28 91.1676 100.842 91.2283 100.784C90.0742 98.7058 92.9675 98.0504 93.4375 98.9872C96.6698 105.439 99.4385 110.97 102.671 117.422C102.748 117.575 102.802 117.751 102.907 117.882C103.058 118.064 103.249 118.215 103.422 118.378C103.515 118.131 103.691 117.885 103.681 117.642C103.62 116.06 103.56 114.474 103.425 112.895C102.863 106.296 100.666 100.164 97.9422 94.1787Z" fill="#3B82F6"/>
<path d="M120.632 44.4029C120.539 44.211 120.44 44.0224 120.335 43.8402C120.332 43.8338 120.328 43.8274 120.322 43.821C120.216 43.6388 120.108 43.4629 119.993 43.2967C119.989 43.2903 119.983 43.2839 119.98 43.2775C119.878 43.1304 119.772 42.9897 119.667 42.8555C119.641 42.8203 119.612 42.7883 119.587 42.7563C119.471 42.6157 119.353 42.4782 119.229 42.3535C118.675 43.9713 117.62 45.2373 118.151 47.2067C119.376 51.7498 119.81 56.4432 120.156 61.1301C120.229 62.1148 120.287 63.0964 120.341 64.0811C120.354 64.3049 120.363 64.5255 120.373 64.7493C120.418 65.6445 120.456 66.5397 120.482 67.4348C120.485 67.5148 120.488 67.5979 120.491 67.6778C120.555 69.8135 120.571 71.9492 120.539 74.0816L120.009 84.306C119.967 84.8143 119.922 85.3227 119.884 85.831C119.852 86.2307 119.155 90.2206 119.197 90.6235C123.816 83.462 123.586 79.5327 123.816 63.5887C124.008 50.2472 121.128 45.1734 120.632 44.4029Z" fill="#F0FAFF"/>
<path d="M116.022 50.1066C115.226 51.443 114.625 52.7793 114.062 54.1285C113.973 54.3395 114.037 54.6273 114.072 54.8766C114.417 57.4152 114.874 59.9441 115.098 62.4922C116.108 73.8995 115.418 85.2236 113.333 96.4743C113.02 98.1655 112.662 99.8504 112.323 101.538C112.38 101.551 112.441 101.567 112.499 101.58C112.588 101.475 112.687 101.375 112.767 101.264C113.388 100.397 114.04 99.5499 114.602 98.6451C114.929 98.1208 115.191 97.5229 115.331 96.9218C116.649 91.2949 117.253 85.5689 117.557 79.8109C117.982 71.7989 117.803 63.7966 116.856 55.823C116.633 53.9111 116.303 52.012 116.022 50.1066Z" fill="#F0FAFF"/>
<path d="M112.336 62.6297C112.24 61.5299 112.083 60.4365 111.955 59.3398C111.159 60.6698 110.44 61.9903 110.011 63.4002C109.781 64.1483 110.046 65.0467 110.101 65.8779C110.967 79.2962 109.538 92.4555 105.561 105.311C105.209 106.446 105.372 107.428 105.682 108.579C106.29 108.054 106.805 107.552 107.38 107.127C108.071 106.612 108.378 105.935 108.585 105.119C109.96 99.7289 111.025 94.2811 111.741 88.7629C112.857 80.0731 113.106 71.3642 112.336 62.6297Z" fill="#F0FAFF"/>
</g>
<defs>
<filter id="filter0_bd_561_2730" x="-36" y="-40" width="240" height="240" filterUnits="userSpaceOnUse" color-interpolation-filters="sRGB">
<feFlood flood-opacity="0" result="BackgroundImageFix"/>
<feGaussianBlur in="BackgroundImage" stdDeviation="20"/>
<feComposite in2="SourceAlpha" operator="in" result="effect1_backgroundBlur_561_2730"/>
<feColorMatrix in="SourceAlpha" type="matrix" values="0 0 0 0 0 0 0 0 0 0 0 0 0 0 0 0 0 0 127 0" result="hardAlpha"/>
<feOffset dy="4"/>
<feGaussianBlur stdDeviation="2"/>
<feComposite in2="hardAlpha" operator="out"/>
<feColorMatrix type="matrix" values="0 0 0 0 0 0 0 0 0 0 0 0 0 0 0 0 0 0 0.25 0"/>
<feBlend mode="normal" in2="effect1_backgroundBlur_561_2730" result="effect2_dropShadow_561_2730"/>
<feBlend mode="normal" in="SourceGraphic" in2="effect2_dropShadow_561_2730" result="shape"/>
</filter>
<filter id="filter1_d_561_2730" x="34.186" y="40.9302" width="99.6395" height="97.5062" filterUnits="userSpaceOnUse" color-interpolation-filters="sRGB">
<feFlood flood-opacity="0" result="BackgroundImageFix"/>
<feColorMatrix in="SourceAlpha" type="matrix" values="0 0 0 0 0 0 0 0 0 0 0 0 0 0 0 0 0 0 127 0" result="hardAlpha"/>
<feOffset dy="10"/>
<feGaussianBlur stdDeviation="5"/>
<feComposite in2="hardAlpha" operator="out"/>
<feColorMatrix type="matrix" values="0 0 0 0 0.0666667 0 0 0 0 0.0941176 0 0 0 0 0.152941 0 0 0 1 0"/>
<feBlend mode="normal" in2="BackgroundImageFix" result="effect1_dropShadow_561_2730"/>
<feBlend mode="normal" in="SourceGraphic" in2="effect1_dropShadow_561_2730" result="shape"/>
</filter>
<linearGradient id="paint0_linear_561_2730" x1="37.337" y1="9.16087" x2="132.984" y2="144.003" gradientUnits="userSpaceOnUse">
<stop stop-color="#0DCAF0"/>
<stop offset="0.0001" stop-color="#005278" stop-opacity="0.4"/>
<stop offset="1" stop-color="#234761" stop-opacity="0.1"/>
</linearGradient>
</defs>
</svg>
