<svg width="168" height="168" viewBox="0 0 168 168" fill="none" xmlns="http://www.w3.org/2000/svg">
<g filter="url(#filter0_bd_563_2775)">
<path d="M84 160C128.183 160 164 124.183 164 80C164 35.8172 128.183 0 84 0C39.8172 0 4 35.8172 4 80C4 124.183 39.8172 160 84 160Z" fill="url(#paint0_linear_563_2775)" shape-rendering="crispEdges"/>
</g>
<path d="M83.6279 152.558C123.906 152.558 156.558 119.906 156.558 79.6279C156.558 39.3496 123.906 6.69763 83.6279 6.69763C43.3496 6.69763 10.6976 39.3496 10.6976 79.6279C10.6976 119.906 43.3496 152.558 83.6279 152.558Z" stroke="#5FBEFF" stroke-width="2.5" stroke-miterlimit="10"/>
<g filter="url(#filter1_d_563_2775)">
<path d="M42.1069 83.3319C41.2085 83.1 40.3616 82.8167 39.6082 82.4238C39.9398 83.451 40.4679 84.5104 40.4679 84.5104C41.3115 87.0413 42.9441 87.3665 44.1258 88.4484C44.6378 85.6986 44.5927 83.9726 42.1069 83.3319Z" fill="#C026D3"/>
<path d="M51.1518 84.4943C51.1131 81.0199 48.7786 78.65 45.3397 78.6146C43.2917 78.5921 38.2492 77.449 38.2492 78.1863C38.0045 79.6579 40.5193 80.4983 41.4274 80.7172C47.6001 82.1952 46.6341 83.6249 46.6566 88.0878C46.676 91.9615 48.1507 95.2266 50.672 97.355C50.4756 96.5468 50.4595 95.9929 50.672 95.6291C50.3532 94.808 50.804 92.7601 50.804 92.7601C50.804 92.7601 50.8265 92.7504 50.8587 92.7407C50.8555 92.7407 50.8491 92.7375 50.8459 92.7375C51.0133 92.0291 51.2226 91.3593 51.4738 90.7186C51.3289 90.2291 51.229 89.701 51.1872 89.1343C51.0648 87.5952 51.1679 86.0399 51.1518 84.4943Z" fill="#C026D3"/>
<path d="M43.2919 76.3509C43.5978 73.2951 45.7166 71.7721 47.8804 70.1911C50.6335 68.1754 51.7187 65.3772 50.8911 62.0284C50.0797 58.744 47.8676 56.7476 44.5638 56.2324C42.8283 55.9619 41.0154 56.1841 38.9804 56.4256C38.0047 57.0728 40.2362 57.6234 40.9639 58.0517C41.5499 58.3962 42.2905 58.4832 42.9667 58.6764C44.9438 59.2431 46.264 60.4892 46.5924 62.5404C46.9112 64.5303 46.1127 66.1339 44.4511 67.2512C42.3453 68.6648 40.5743 70.3488 39.6211 72.7606C39.399 73.3209 39.2025 73.8909 38.961 74.551C38.9127 75.1434 38.8709 75.8035 38.8419 76.3477C40.2619 76.3509 41.6948 76.3509 43.2919 76.3509Z" fill="#C026D3"/>
<path d="M56.0945 101.985C55.1962 101.754 54.3493 101.47 53.5958 101.077C53.9275 102.105 54.4556 103.164 54.4556 103.164C55.2992 105.695 56.9318 106.02 58.1135 107.102C58.6255 104.352 58.5836 102.626 56.0945 101.985Z" fill="#C026D3"/>
<path d="M115.735 95.0044C115.706 94.4603 115.664 93.8002 115.616 93.2077C115.375 92.5476 115.175 91.9777 114.956 91.4174C114.003 89.0056 112.232 87.3215 110.126 85.9079C108.465 84.7906 107.663 83.187 107.985 81.1971C108.313 79.1459 109.633 77.8998 111.61 77.3331C112.283 77.1399 113.024 77.0529 113.613 76.7084C114.341 76.2801 116.576 75.7295 115.597 75.0823C113.565 74.8408 111.752 74.6186 110.013 74.8891C106.706 75.4043 104.497 77.4007 103.686 80.6851C102.855 84.0339 103.94 86.8321 106.697 88.8478C108.857 90.4288 110.976 91.9519 111.285 95.0077C112.876 95.0044 114.309 95.0012 115.735 95.0044Z" fill="#C026D3"/>
<path d="M57.2795 95.0045C57.5854 91.9487 59.7041 90.4257 61.868 88.8446C64.6211 86.8289 65.7062 84.0307 64.8787 80.6819C64.0672 77.3975 61.8551 75.4011 58.5514 74.8859C56.8158 74.6155 55.003 74.8376 52.9679 75.0791C51.9923 75.7264 54.2237 76.277 54.9514 76.7053C55.5375 77.0498 56.2781 77.1367 56.9543 77.3299C58.9314 77.8967 60.2515 79.1428 60.58 81.1939C60.8988 83.1839 60.1002 84.7874 58.4387 85.9048C56.3328 87.3184 54.5618 89.0024 53.6087 91.4142C53.3865 91.9745 53.1901 92.5444 52.9486 93.2045C52.9003 93.797 52.8584 94.4571 52.8295 95.0013C54.2495 95.0013 55.6856 95.0045 57.2795 95.0045Z" fill="#C026D3"/>
<path d="M124.436 88.4484C125.618 87.3665 127.25 87.0413 128.094 84.5104C128.094 84.5104 128.622 83.4542 128.953 82.4238C128.2 82.8167 127.353 83.1 126.455 83.3319C123.969 83.9726 123.924 85.6986 124.436 88.4484Z" fill="#C026D3"/>
<path d="M125.598 58.6795C126.271 58.4863 127.012 58.3994 127.601 58.0549C128.329 57.6266 130.563 57.076 129.585 56.4288C127.553 56.1873 125.74 55.9651 124.001 56.2355C120.694 56.7507 118.485 58.7471 117.674 62.0315C116.843 65.3803 117.928 68.1785 120.685 70.1943C122.845 71.7753 124.964 73.2983 125.273 76.3541C126.87 76.3541 128.303 76.3509 129.73 76.3541C129.701 75.8099 129.659 75.1498 129.61 74.5573C129.369 73.8972 129.169 73.3273 128.95 72.767C127.997 70.3553 126.226 68.6712 124.12 67.2576C122.459 66.1403 121.657 64.5367 121.979 62.5468C122.301 60.4924 123.618 59.2495 125.598 58.6795Z" fill="#C026D3"/>
<path d="M123.222 78.6114C119.78 78.6501 117.448 81.0168 117.41 84.4911C117.394 86.0367 117.497 87.592 117.381 89.1312C117.339 89.6979 117.236 90.2227 117.094 90.7154C117.345 91.3562 117.555 92.0259 117.722 92.7343C117.719 92.7343 117.712 92.7376 117.709 92.7376C117.741 92.7472 117.764 92.7569 117.764 92.7569C117.764 92.7569 118.218 94.8048 117.896 95.6259C118.112 95.9897 118.092 96.5468 117.896 97.3518C120.417 95.2234 121.892 91.9615 121.911 88.0847C121.934 83.625 120.965 82.1921 127.141 80.7141C128.045 80.4983 130.563 79.6547 130.319 78.1832C130.316 77.449 125.27 78.5889 123.222 78.6114Z" fill="#C026D3"/>
<path d="M110.445 107.102C111.627 106.02 113.259 105.695 114.103 103.164C114.103 103.164 114.631 102.108 114.963 101.077C114.209 101.47 113.362 101.754 112.464 101.985C109.978 102.626 109.936 104.352 110.445 107.102Z" fill="#C026D3"/>
<path d="M109.234 97.2649C105.792 97.3035 103.461 99.6702 103.422 103.145C103.406 104.69 103.509 106.245 103.393 107.785C103.055 112.257 99.2907 114.35 96.1834 114.118C96.0932 114.141 95.9741 114.147 95.8195 114.131C93.0053 113.851 90.909 111.697 90.909 111.697C89.9141 110.473 89.6565 108.525 89.6307 107.099C89.5309 101.248 89.9076 98.7525 89.9141 92.8985C89.9141 92.4928 89.9624 92.0903 89.9881 91.6878C90.1942 90.7862 92.1648 90.5029 92.1681 91.6878C92.1681 93.7486 92.2196 92.3737 92.1584 94.3733C91.9942 99.8183 94.3029 104.317 99.1973 106.819L101.087 107.659C101.136 107.279 101.162 106.88 101.162 106.452C101.162 105.373 101.223 104.291 101.133 103.219C101.097 102.797 100.827 102.237 100.485 102.027C97.8417 100.408 96.6116 98.0763 96.6535 94.9948C96.6921 91.9937 97.2653 75.2111 97.2106 72.2133C97.2009 71.682 96.8725 70.9317 96.6922 70.5743C96.2027 69.5922 97.6743 67.8759 98.8045 69.5922C98.9945 69.882 99.075 71.6659 99.0975 73.9778C99.3261 73.4562 99.5773 72.9603 99.8542 72.5063C102.363 68.3976 104.159 64.057 103.873 59.1304C103.786 57.6428 103.461 56.1519 103.087 54.7029C103.058 54.5902 103.036 54.4807 103.013 54.3712C100.656 48.3048 95.0661 43.9996 93.147 42.9306C88.8128 40.8601 84.3435 40.3803 79.6584 41.5685C71.5955 43.6132 61.2818 53.9043 65.9218 66.34C66.8363 68.7936 68.1598 71.0991 69.4735 73.3982C69.5025 71.3728 69.5862 69.8562 69.7601 69.5922C70.8903 67.8727 72.3618 69.5922 71.8724 70.5743C71.6953 70.9317 71.3636 71.682 71.354 72.2133C71.3347 73.2179 71.3894 75.7778 71.4667 78.8432C71.6631 80.5885 71.5665 82.0665 71.5665 82.0665C71.5633 82.0568 71.5568 82.0471 71.5536 82.0375C71.705 87.4632 71.8885 93.3365 71.911 94.9948C71.9529 98.0763 70.7229 100.408 68.0792 102.027C67.7379 102.237 67.4674 102.797 67.432 103.219C67.3419 104.288 67.3998 105.373 67.403 106.452C67.403 106.88 67.4288 107.282 67.4771 107.659L69.3672 106.819C74.2616 104.317 76.5704 99.8183 76.4062 94.3733C76.345 92.3737 76.3965 93.7486 76.3965 91.6878C76.3997 90.5029 78.3671 90.7862 78.5764 91.6878C78.6022 92.0903 78.6505 92.496 78.6505 92.8985C78.6537 98.7525 79.0337 101.248 78.9339 107.099C78.9081 108.525 78.6537 110.473 77.6555 111.697C77.6555 111.697 75.5561 113.848 72.745 114.131C72.5905 114.147 72.4713 114.141 72.3812 114.118C69.2771 114.347 65.5129 112.257 65.1716 107.785C65.0557 106.245 65.1587 104.693 65.1426 103.145C65.104 99.6702 62.7695 97.3003 59.3305 97.2649C57.2826 97.2423 52.2401 96.0992 52.2401 96.8366C51.9953 98.3081 54.5102 99.1486 55.4182 99.3675C61.5909 100.846 60.6249 102.275 60.6475 106.738C60.6765 112.766 64.2217 117.329 69.7601 118.407C76.6444 119.75 83.0683 114.566 83.136 107.54C83.1456 106.613 83.1521 105.733 83.1553 104.88C83.1424 101.773 83.1521 99.1647 83.1585 96.1475C83.1553 94.6084 83.1521 93.0048 83.1521 91.2274C83.1521 90.9537 83.1521 90.6799 83.1521 90.3129C83.1521 90.2485 83.1649 90.1873 83.1843 90.1293C83.2873 89.6624 83.7832 89.4757 84.2855 89.5079C84.7846 89.4789 85.2805 89.6624 85.3867 90.1293C85.406 90.1873 85.419 90.2485 85.419 90.3129C85.419 90.6799 85.419 90.9537 85.419 91.2274C85.419 93.0016 85.4157 94.6084 85.4125 96.1475C85.4189 99.1647 85.4254 101.773 85.4157 104.88C85.419 105.73 85.4254 106.609 85.435 107.54C85.5027 114.566 91.9266 119.75 98.8109 118.407C104.353 117.329 107.898 112.766 107.924 106.738C107.946 102.278 106.977 100.846 113.153 99.3675C114.058 99.1518 116.576 98.3081 116.331 96.8366C116.325 96.0992 111.279 97.2423 109.234 97.2649Z" fill="#C026D3"/>
<path d="M67.164 64.0687C67.6296 65.3048 68.7703 65.6735 69.2824 65.7034C71.6007 65.2089 69.9459 63.4754 69.8275 61.8314C69.7092 60.1875 68.1727 60.0979 67.0728 61.1671C66.7677 61.4636 66.582 62.5237 67.164 64.0687Z" fill="#681573"/>
<path d="M66.4267 55.9851C66.1535 56.36 66.848 56.87 67.2294 57.0782C69.2785 57.9236 68.8857 56.9996 69.637 56.7C70.3883 56.4004 69.2441 55.776 67.8439 55.5031C67.4556 55.4274 66.7682 55.5164 66.4267 55.9851Z" fill="#681573"/>
<path d="M75.8753 52.8219C75.4102 52.5762 74.6599 53.0393 74.3429 53.3016C73.0001 54.7408 73.2351 55.5603 74.5766 55.144C75.3627 54.9 75.8404 54.9522 76.3554 53.9351C76.4983 53.653 76.4566 53.129 75.8753 52.8219Z" fill="#681573"/>
<path d="M73.4177 46.0579C73.1094 46.4811 73.5838 46.9291 73.8595 47.1002C75.3987 47.7352 75.2648 46.82 75.958 46.418C76.6512 46.016 75.8241 45.5028 74.7078 45.3863C74.3982 45.3539 73.8031 45.529 73.4177 46.0579Z" fill="#681573"/>
<path d="M70.4112 59.9318C70.7885 60.4113 71.6323 60.3321 72.0071 60.2325C73.6842 59.4851 72.4237 59.0349 72.2875 58.286C72.1512 57.5372 71.027 57.8358 70.2565 58.5839C70.0429 58.7914 69.9395 59.3324 70.4112 59.9318Z" fill="#681573"/>
<path d="M68.9321 51.1548C68.1652 52.2073 68.6334 53.0279 68.9634 53.3066C71.0126 54.152 71.3911 52.1693 72.7594 51.0228C74.1278 49.8762 73.1379 49.0401 71.4292 49.1906C70.9552 49.2324 69.8906 49.8392 68.9321 51.1548Z" fill="#681573"/>
<path d="M101.836 64.0687C101.37 65.3048 100.229 65.6735 99.7173 65.7034C97.3991 65.2089 99.0539 63.4754 99.1722 61.8314C99.2906 60.1875 100.827 60.0979 101.927 61.1671C102.232 61.4636 102.418 62.5237 101.836 64.0687Z" fill="#681573"/>
<path d="M102.573 55.9851C102.846 56.36 102.152 56.87 101.77 57.0782C99.7212 57.9236 100.114 56.9996 99.3628 56.7C98.6115 56.4004 99.7556 55.776 101.156 55.5031C101.544 55.4274 102.232 55.5164 102.573 55.9851Z" fill="#681573"/>
<path d="M93.1245 52.8219C93.5896 52.5762 94.3398 53.0393 94.6568 53.3016C95.9997 54.7408 95.7647 55.5603 94.4231 55.144C93.6371 54.9 93.1594 54.9522 92.6443 53.9351C92.5015 53.653 92.5432 53.129 93.1245 52.8219Z" fill="#681573"/>
<path d="M95.582 46.0579C95.8904 46.4811 95.416 46.9291 95.1402 47.1002C93.601 47.7352 93.735 46.82 93.0417 46.418C92.3485 46.016 93.1757 45.5028 94.2919 45.3863C94.6015 45.3539 95.1967 45.529 95.582 46.0579Z" fill="#681573"/>
<path d="M98.5886 59.9318C98.2112 60.4113 97.3674 60.3321 96.9927 60.2325C95.3155 59.4851 96.576 59.0349 96.7123 58.286C96.8486 57.5372 97.9728 57.8358 98.7432 58.5839C98.9569 58.7914 99.0603 59.3324 98.5886 59.9318Z" fill="#681573"/>
<path d="M100.068 51.1548C100.835 52.2073 100.366 53.0279 100.036 53.3066C97.9872 54.152 97.6087 52.1693 96.2403 51.0228C94.872 49.8762 95.8618 49.0401 97.5706 49.1906C98.0445 49.2324 99.1092 49.8392 100.068 51.1548Z" fill="#681573"/>
<path d="M90.2377 43.4974C91.4655 43.9845 91.8142 45.1315 91.8351 45.6441C91.3001 47.9533 89.5958 46.2685 87.9542 46.1214C86.3125 45.9743 86.2498 44.4365 87.3381 43.3555C87.64 43.0556 88.7031 42.8885 90.2377 43.4974Z" fill="#681573"/>
<path d="M82.1682 42.6188C82.5478 42.3523 83.0456 43.0555 83.247 43.4405C84.0565 45.5041 83.1395 45.0952 82.8268 45.8411C82.5141 46.5871 81.9098 45.4322 81.6614 44.0274C81.5925 43.6378 81.6936 42.9521 82.1682 42.6188Z" fill="#681573"/>
<path d="M79.5757 49.7893C79.3701 50.2735 78.5261 50.2128 78.2294 50.2253C76.8531 50.0358 75.1875 49.436 76.1903 48.8706C76.7779 48.5394 78.5782 48.0314 79.2755 48.4477C79.4689 48.5631 79.8326 49.1841 79.5757 49.7893Z" fill="#681573"/>
<path d="M86.0446 46.6717C86.5174 47.0574 86.4235 47.8997 86.3174 48.2727C85.5408 49.9365 85.1126 48.6683 84.3663 48.519C83.6199 48.3696 83.9382 47.2508 84.6996 46.4936C84.9108 46.2835 85.4536 46.1896 86.0446 46.6717Z" fill="#681573"/>
<path d="M78.3908 43.6102C78.9472 43.2196 79.5259 43.866 79.7458 44.2381C80.5552 46.3017 79.3622 46.0866 78.8286 46.9876C78.2951 47.8886 77.6356 46.7725 77.4976 45.2902C77.4594 44.8791 77.6954 44.0985 78.3908 43.6102Z" fill="#681573"/>
<path d="M98.3732 108.905C95.2563 107.382 93.4305 104.571 91.5983 102.32C91.4631 104.513 91.4534 108.902 92.6255 110.103C92.6577 110.129 92.6899 110.161 92.7253 110.196C92.7511 110.2 92.8541 110.306 93.0055 110.477C93.8555 111.278 94.4834 111.433 94.4834 111.433C97.3203 112.225 99.3618 111.626 100.395 109.849C99.7417 109.636 98.9722 109.324 98.3829 108.892C98.3797 108.896 98.3764 108.899 98.3732 108.905Z" fill="#C026D3"/>
<path d="M74.0782 111.43C74.0782 111.43 74.7061 111.275 75.5562 110.473C75.7075 110.306 75.8105 110.196 75.8363 110.193C75.8685 110.158 75.9039 110.129 75.9361 110.1C77.1082 108.899 77.0985 104.51 76.9633 102.317C75.1343 104.568 73.3054 107.379 70.1884 108.902C70.1852 108.896 70.182 108.889 70.1788 108.886C69.5895 109.317 68.8199 109.633 68.1663 109.842C69.1999 111.626 71.2414 112.222 74.0782 111.43Z" fill="#C026D3"/>
</g>
<defs>
<filter id="filter0_bd_563_2775" x="-36" y="-40" width="240" height="240" filterUnits="userSpaceOnUse" color-interpolation-filters="sRGB">
<feFlood flood-opacity="0" result="BackgroundImageFix"/>
<feGaussianBlur in="BackgroundImage" stdDeviation="20"/>
<feComposite in2="SourceAlpha" operator="in" result="effect1_backgroundBlur_563_2775"/>
<feColorMatrix in="SourceAlpha" type="matrix" values="0 0 0 0 0 0 0 0 0 0 0 0 0 0 0 0 0 0 127 0" result="hardAlpha"/>
<feOffset dy="4"/>
<feGaussianBlur stdDeviation="2"/>
<feComposite in2="hardAlpha" operator="out"/>
<feColorMatrix type="matrix" values="0 0 0 0 0 0 0 0 0 0 0 0 0 0 0 0 0 0 0.25 0"/>
<feBlend mode="normal" in2="effect1_backgroundBlur_563_2775" result="effect2_dropShadow_563_2775"/>
<feBlend mode="normal" in="SourceGraphic" in2="effect2_dropShadow_563_2775" result="shape"/>
</filter>
<filter id="filter1_d_563_2775" x="28.2325" y="40.9302" width="112.103" height="97.6898" filterUnits="userSpaceOnUse" color-interpolation-filters="sRGB">
<feFlood flood-opacity="0" result="BackgroundImageFix"/>
<feColorMatrix in="SourceAlpha" type="matrix" values="0 0 0 0 0 0 0 0 0 0 0 0 0 0 0 0 0 0 127 0" result="hardAlpha"/>
<feOffset dy="10"/>
<feGaussianBlur stdDeviation="5"/>
<feComposite in2="hardAlpha" operator="out"/>
<feColorMatrix type="matrix" values="0 0 0 0 0.0666667 0 0 0 0 0.0941176 0 0 0 0 0.152941 0 0 0 1 0"/>
<feBlend mode="normal" in2="BackgroundImageFix" result="effect1_dropShadow_563_2775"/>
<feBlend mode="normal" in="SourceGraphic" in2="effect1_dropShadow_563_2775" result="shape"/>
</filter>
<linearGradient id="paint0_linear_563_2775" x1="37.337" y1="9.16087" x2="132.984" y2="144.003" gradientUnits="userSpaceOnUse">
<stop stop-color="#0DCAF0"/>
<stop offset="0.0001" stop-color="#005278" stop-opacity="0.4"/>
<stop offset="1" stop-color="#234761" stop-opacity="0.1"/>
</linearGradient>
</defs>
</svg>
