<svg width="168" height="168" viewBox="0 0 168 168" fill="none" xmlns="http://www.w3.org/2000/svg">
<g filter="url(#filter0_bd_563_2775)">
<path d="M84 160C128.183 160 164 124.183 164 80C164 35.8172 128.183 0 84 0C39.8172 0 4 35.8172 4 80C4 124.183 39.8172 160 84 160Z" fill="url(#paint0_linear_563_2775)" shape-rendering="crispEdges"/>
</g>
<path d="M83.6279 152.558C123.906 152.558 156.558 119.906 156.558 79.628C156.558 39.3497 123.906 6.69775 83.6279 6.69775C43.3496 6.69775 10.6976 39.3497 10.6976 79.628C10.6976 119.906 43.3496 152.558 83.6279 152.558Z" stroke="#5FBEFF" stroke-width="2.5" stroke-miterlimit="10"/>
<g filter="url(#filter1_d_563_2775)">
<path d="M42.1069 83.3319C41.2085 83.1 40.3616 82.8167 39.6082 82.4238C39.9398 83.451 40.4679 84.5104 40.4679 84.5104C41.3115 87.0413 42.9441 87.3665 44.1258 88.4484C44.6378 85.6986 44.5927 83.9726 42.1069 83.3319Z" fill="#C026D3"/>
<path d="M51.1518 84.4944C51.1131 81.0201 48.7786 78.6501 45.3397 78.6147C43.2917 78.5922 38.2492 77.4491 38.2492 78.1865C38.0045 79.658 40.5193 80.4984 41.4274 80.7174C47.6001 82.1953 46.6341 83.625 46.6566 88.088C46.676 91.9616 48.1507 95.2267 50.672 97.3551C50.4756 96.5469 50.4595 95.993 50.672 95.6292C50.3532 94.8081 50.804 92.7602 50.804 92.7602C50.804 92.7602 50.8265 92.7505 50.8587 92.7409C50.8555 92.7409 50.8491 92.7376 50.8459 92.7376C51.0133 92.0292 51.2226 91.3595 51.4738 90.7187C51.3289 90.2292 51.229 89.7012 51.1872 89.1345C51.0648 87.5953 51.1679 86.04 51.1518 84.4944Z" fill="#C026D3"/>
<path d="M43.2919 76.351C43.5978 73.2953 45.7166 71.7722 47.8804 70.1912C50.6335 68.1755 51.7187 65.3773 50.8911 62.0285C50.0797 58.7441 47.8676 56.7477 44.5638 56.2325C42.8283 55.962 41.0154 56.1842 38.9804 56.4257C38.0047 57.0729 40.2362 57.6235 40.9639 58.0518C41.5499 58.3963 42.2905 58.4833 42.9667 58.6765C44.9438 59.2432 46.264 60.4893 46.5924 62.5405C46.9112 64.5304 46.1127 66.134 44.4511 67.2513C42.3453 68.6649 40.5743 70.349 39.6211 72.7607C39.399 73.321 39.2025 73.891 38.961 74.5511C38.9127 75.1436 38.8709 75.8036 38.8419 76.3478C40.2619 76.351 41.6948 76.351 43.2919 76.351Z" fill="#C026D3"/>
<path d="M56.0945 101.985C55.1962 101.754 54.3493 101.47 53.5958 101.077C53.9275 102.105 54.4556 103.164 54.4556 103.164C55.2992 105.695 56.9318 106.02 58.1135 107.102C58.6255 104.352 58.5836 102.626 56.0945 101.985Z" fill="#C026D3"/>
<path d="M115.735 95.0046C115.706 94.4604 115.664 93.8003 115.616 93.2078C115.375 92.5477 115.175 91.9778 114.956 91.4175C114.003 89.0057 112.232 87.3216 110.126 85.9081C108.465 84.7907 107.663 83.1872 107.985 81.1972C108.313 79.1461 109.633 77.8999 111.61 77.3332C112.283 77.14 113.024 77.0531 113.613 76.7085C114.341 76.2803 116.576 75.7297 115.597 75.0824C113.565 74.8409 111.752 74.6188 110.013 74.8892C106.706 75.4044 104.497 77.4008 103.686 80.6852C102.855 84.034 103.94 86.8322 106.697 88.8479C108.857 90.4289 110.976 91.952 111.285 95.0078C112.876 95.0046 114.309 95.0013 115.735 95.0046Z" fill="#C026D3"/>
<path d="M57.2795 95.0044C57.5854 91.9486 59.7041 90.4255 61.868 88.8445C64.6211 86.8288 65.7062 84.0306 64.8787 80.6818C64.0672 77.3974 61.8551 75.401 58.5514 74.8858C56.8158 74.6153 55.003 74.8375 52.9679 75.079C51.9923 75.7262 54.2237 76.2769 54.9514 76.7051C55.5375 77.0497 56.2781 77.1366 56.9543 77.3298C58.9314 77.8965 60.2515 79.1427 60.58 81.1938C60.8988 83.1838 60.1002 84.7873 58.4387 85.9047C56.3328 87.3182 54.5618 89.0023 53.6087 91.4141C53.3865 91.9744 53.1901 92.5443 52.9486 93.2044C52.9003 93.7969 52.8584 94.457 52.8295 95.0012C54.2495 95.0012 55.6856 95.0044 57.2795 95.0044Z" fill="#C026D3"/>
<path d="M124.436 88.4484C125.617 87.3665 127.25 87.0413 128.094 84.5104C128.094 84.5104 128.622 83.4542 128.953 82.4238C128.2 82.8167 127.353 83.1 126.455 83.3319C123.969 83.9726 123.924 85.6986 124.436 88.4484Z" fill="#C026D3"/>
<path d="M125.598 58.6797C126.271 58.4865 127.012 58.3995 127.601 58.055C128.329 57.6267 130.563 57.0761 129.584 56.4289C127.553 56.1874 125.74 55.9652 124.001 56.2357C120.694 56.7509 118.485 58.7473 117.674 62.0317C116.843 65.3805 117.928 68.1787 120.684 70.1944C122.845 71.7754 124.964 73.2985 125.273 76.3542C126.87 76.3542 128.303 76.351 129.729 76.3542C129.7 75.8101 129.659 75.1499 129.61 74.5575C129.369 73.8974 129.169 73.3274 128.95 72.7672C127.997 70.3554 126.226 68.6713 124.12 67.2577C122.459 66.1404 121.657 64.5368 121.979 62.5469C122.301 60.4925 123.618 59.2496 125.598 58.6797Z" fill="#C026D3"/>
<path d="M123.222 78.6114C119.78 78.6501 117.448 81.0168 117.41 84.4911C117.394 86.0367 117.497 87.592 117.381 89.1312C117.339 89.6979 117.236 90.2227 117.094 90.7154C117.345 91.3562 117.555 92.0259 117.722 92.7343C117.719 92.7343 117.712 92.7376 117.709 92.7376C117.741 92.7472 117.764 92.7569 117.764 92.7569C117.764 92.7569 118.218 94.8048 117.896 95.6259C118.112 95.9897 118.092 96.5468 117.896 97.3518C120.417 95.2234 121.892 91.9615 121.911 88.0847C121.934 83.625 120.965 82.1921 127.141 80.7141C128.045 80.4983 130.563 79.6547 130.319 78.1832C130.316 77.449 125.27 78.5889 123.222 78.6114Z" fill="#C026D3"/>
<path d="M110.445 107.102C111.627 106.02 113.259 105.695 114.103 103.164C114.103 103.164 114.631 102.108 114.963 101.077C114.209 101.47 113.362 101.754 112.464 101.985C109.978 102.626 109.936 104.352 110.445 107.102Z" fill="#C026D3"/>
<path d="M109.234 97.2649C105.792 97.3035 103.461 99.6702 103.422 103.145C103.406 104.69 103.509 106.245 103.393 107.785C103.055 112.257 99.2907 114.35 96.1834 114.118C96.0932 114.141 95.9741 114.147 95.8195 114.131C93.0053 113.851 90.909 111.697 90.909 111.697C89.9141 110.473 89.6565 108.525 89.6307 107.099C89.5309 101.248 89.9076 98.7525 89.9141 92.8985C89.9141 92.4928 89.9624 92.0903 89.9881 91.6878C90.1942 90.7862 92.1648 90.5029 92.1681 91.6878C92.1681 93.7486 92.2196 92.3737 92.1584 94.3733C91.9942 99.8183 94.3029 104.317 99.1973 106.819L101.087 107.659C101.136 107.279 101.162 106.88 101.162 106.452C101.162 105.373 101.223 104.291 101.133 103.219C101.097 102.797 100.827 102.237 100.485 102.027C97.8417 100.408 96.6116 98.0763 96.6535 94.9948C96.6921 91.9937 97.2653 75.2111 97.2106 72.2133C97.2009 71.682 96.8725 70.9317 96.6922 70.5743C96.2027 69.5922 97.6743 67.8759 98.8045 69.5922C98.9945 69.882 99.075 71.6659 99.0975 73.9778C99.3261 73.4562 99.5773 72.9603 99.8542 72.5063C102.363 68.3976 104.159 64.057 103.873 59.1304C103.786 57.6428 103.461 56.1519 103.087 54.7029C103.058 54.5902 103.036 54.4807 103.013 54.3712C100.656 48.3048 95.0661 43.9996 93.147 42.9306C88.8128 40.8601 84.3435 40.3803 79.6584 41.5685C71.5955 43.6132 61.2818 53.9043 65.9218 66.34C66.8363 68.7936 68.1598 71.0991 69.4735 73.3982C69.5025 71.3728 69.5862 69.8562 69.7601 69.5922C70.8903 67.8727 72.3618 69.5922 71.8724 70.5743C71.6953 70.9317 71.3636 71.682 71.354 72.2133C71.3347 73.2179 71.3894 75.7778 71.4667 78.8432C71.6631 80.5885 71.5665 82.0665 71.5665 82.0665C71.5633 82.0568 71.5568 82.0471 71.5536 82.0375C71.705 87.4632 71.8885 93.3365 71.911 94.9948C71.9529 98.0763 70.7229 100.408 68.0792 102.027C67.7379 102.237 67.4674 102.797 67.432 103.219C67.3419 104.288 67.3998 105.373 67.403 106.452C67.403 106.88 67.4288 107.282 67.4771 107.659L69.3672 106.819C74.2616 104.317 76.5704 99.8183 76.4062 94.3733C76.345 92.3737 76.3965 93.7486 76.3965 91.6878C76.3997 90.5029 78.3671 90.7862 78.5764 91.6878C78.6022 92.0903 78.6505 92.496 78.6505 92.8985C78.6537 98.7525 79.0337 101.248 78.9339 107.099C78.9081 108.525 78.6537 110.473 77.6555 111.697C77.6555 111.697 75.5561 113.848 72.745 114.131C72.5905 114.147 72.4713 114.141 72.3812 114.118C69.2771 114.347 65.5129 112.257 65.1716 107.785C65.0557 106.245 65.1587 104.693 65.1426 103.145C65.104 99.6702 62.7695 97.3003 59.3305 97.2649C57.2826 97.2423 52.2401 96.0992 52.2401 96.8366C51.9953 98.3081 54.5102 99.1486 55.4182 99.3675C61.5909 100.846 60.6249 102.275 60.6475 106.738C60.6765 112.766 64.2217 117.329 69.7601 118.407C76.6444 119.75 83.0683 114.566 83.136 107.54C83.1456 106.613 83.1521 105.733 83.1553 104.88C83.1424 101.773 83.1521 99.1647 83.1585 96.1475C83.1553 94.6084 83.1521 93.0048 83.1521 91.2274C83.1521 90.9537 83.1521 90.6799 83.1521 90.3129C83.1521 90.2485 83.1649 90.1873 83.1843 90.1293C83.2873 89.6624 83.7832 89.4757 84.2855 89.5079C84.7846 89.4789 85.2805 89.6624 85.3867 90.1293C85.406 90.1873 85.419 90.2485 85.419 90.3129C85.419 90.6799 85.419 90.9537 85.419 91.2274C85.419 93.0016 85.4157 94.6084 85.4125 96.1475C85.4189 99.1647 85.4254 101.773 85.4157 104.88C85.419 105.73 85.4254 106.609 85.435 107.54C85.5027 114.566 91.9266 119.75 98.8109 118.407C104.353 117.329 107.898 112.766 107.924 106.738C107.946 102.278 106.977 100.846 113.153 99.3675C114.058 99.1518 116.576 98.3081 116.331 96.8366C116.325 96.0992 111.279 97.2423 109.234 97.2649Z" fill="#C026D3"/>
<path d="M98.3732 108.905C95.2563 107.382 93.4305 104.571 91.5983 102.32C91.4631 104.513 91.4534 108.902 92.6255 110.103C92.6577 110.129 92.6899 110.161 92.7253 110.196C92.7511 110.2 92.8541 110.306 93.0055 110.477C93.8555 111.278 94.4834 111.433 94.4834 111.433C97.3203 112.225 99.3618 111.626 100.395 109.849C99.7417 109.636 98.9722 109.324 98.3829 108.892C98.3797 108.896 98.3764 108.899 98.3732 108.905Z" fill="#C026D3"/>
<path d="M74.0783 111.43C74.0783 111.43 74.7062 111.275 75.5563 110.473C75.7076 110.306 75.8107 110.196 75.8364 110.193C75.8686 110.158 75.904 110.129 75.9362 110.1C77.1083 108.899 77.0987 104.51 76.9634 102.317C75.1345 104.568 73.3055 107.379 70.1886 108.902C70.1853 108.896 70.1821 108.889 70.1789 108.886C69.5896 109.317 68.82 109.633 68.1664 109.842C69.2 111.626 71.2415 112.222 74.0783 111.43Z" fill="#C026D3"/>
</g>
<defs>
<filter id="filter0_bd_563_2775" x="-36" y="-40" width="240" height="240" filterUnits="userSpaceOnUse" color-interpolation-filters="sRGB">
<feFlood flood-opacity="0" result="BackgroundImageFix"/>
<feGaussianBlur in="BackgroundImage" stdDeviation="20"/>
<feComposite in2="SourceAlpha" operator="in" result="effect1_backgroundBlur_563_2775"/>
<feColorMatrix in="SourceAlpha" type="matrix" values="0 0 0 0 0 0 0 0 0 0 0 0 0 0 0 0 0 0 127 0" result="hardAlpha"/>
<feOffset dy="4"/>
<feGaussianBlur stdDeviation="2"/>
<feComposite in2="hardAlpha" operator="out"/>
<feColorMatrix type="matrix" values="0 0 0 0 0 0 0 0 0 0 0 0 0 0 0 0 0 0 0.25 0"/>
<feBlend mode="normal" in2="effect1_backgroundBlur_563_2775" result="effect2_dropShadow_563_2775"/>
<feBlend mode="normal" in="SourceGraphic" in2="effect2_dropShadow_563_2775" result="shape"/>
</filter>
<filter id="filter1_d_563_2775" x="28.2325" y="40.9302" width="112.103" height="97.6897" filterUnits="userSpaceOnUse" color-interpolation-filters="sRGB">
<feFlood flood-opacity="0" result="BackgroundImageFix"/>
<feColorMatrix in="SourceAlpha" type="matrix" values="0 0 0 0 0 0 0 0 0 0 0 0 0 0 0 0 0 0 127 0" result="hardAlpha"/>
<feOffset dy="10"/>
<feGaussianBlur stdDeviation="5"/>
<feComposite in2="hardAlpha" operator="out"/>
<feColorMatrix type="matrix" values="0 0 0 0 0.0666667 0 0 0 0 0.0941176 0 0 0 0 0.152941 0 0 0 1 0"/>
<feBlend mode="normal" in2="BackgroundImageFix" result="effect1_dropShadow_563_2775"/>
<feBlend mode="normal" in="SourceGraphic" in2="effect1_dropShadow_563_2775" result="shape"/>
</filter>
<linearGradient id="paint0_linear_563_2775" x1="37.337" y1="9.16087" x2="132.984" y2="144.003" gradientUnits="userSpaceOnUse">
<stop stop-color="#0DCAF0"/>
<stop offset="0.0001" stop-color="#005278" stop-opacity="0.4"/>
<stop offset="1" stop-color="#234761" stop-opacity="0.1"/>
</linearGradient>
</defs>
</svg>
