<svg width="168" height="168" viewBox="0 0 168 168" fill="none" xmlns="http://www.w3.org/2000/svg">
<g filter="url(#filter0_bd_563_2742)">
<path d="M84 160C128.183 160 164 124.183 164 80C164 35.8172 128.183 0 84 0C39.8172 0 4 35.8172 4 80C4 124.183 39.8172 160 84 160Z" fill="url(#paint0_linear_563_2742)" shape-rendering="crispEdges"/>
</g>
<path d="M83.6279 152.558C123.906 152.558 156.558 119.906 156.558 79.6279C156.558 39.3496 123.906 6.69763 83.6279 6.69763C43.3496 6.69763 10.6976 39.3496 10.6976 79.6279C10.6976 119.906 43.3496 152.558 83.6279 152.558Z" stroke="#5FBEFF" stroke-width="2.5" stroke-miterlimit="10"/>
<g filter="url(#filter1_d_563_2742)">
<path d="M101.945 55.2616C88.7241 55.769 78.0217 61.3222 70.135 71.9402C68.5564 74.0669 66.9433 75.0848 64.3593 75.398C60.3815 75.8772 48.8239 78.9467 49.7636 80.1996C50.39 81.7657 59.4325 79.9208 62.621 79.7173C62.7087 79.711 62.7995 79.7047 62.8872 79.6985C63.1628 79.6828 63.4071 79.6891 63.6233 79.7173C64.8761 79.8739 65.2238 80.1244 64.7759 81.6216C63.9521 84.3653 62.2044 87.178 61.3525 89.9092C58.4083 99.3338 60.0996 100.872 67.6794 106.513C70.0441 108.27 76.6999 119.351 77.9528 119.038C79.5188 118.725 75.9325 108.263 77.3451 106.024C78.7483 103.8 84.217 99.932 83.2774 98.6792C82.6509 97.1131 76.371 101.038 73.5678 102.125C70.301 103.393 68.2682 102.265 66.9903 98.9924C64.8761 93.5769 68.1367 87.9579 73.5678 85.5242C78.6293 83.2566 82.3346 81.3178 87.4118 79.0908C87.9161 78.8684 88.4235 78.6523 88.9277 78.43C97.1026 74.8029 105.014 70.6278 110.965 63.7684C111.351 63.3237 111.708 62.8538 112.262 62.1648C116.816 57.595 116.356 55.2365 116.356 55.2365C111.542 55.2334 106.737 55.0799 101.945 55.2616Z" fill="#F9FAFB"/>
<path d="M86.4126 83.0185C93.9297 83.6449 105.519 92.1017 105.205 89.2828C105.519 88.0299 98.7501 83.2471 95.809 81.1392C93.5695 79.5324 88.27 81.1643 86.4126 83.0185Z" fill="#F9FAFB"/>
<path d="M55.4044 83.3318C55.4451 87.0246 56.6573 99.6189 57.9101 94.6075C58.5365 89.5961 59.163 87.0904 62.2951 82.079C60.5035 82.2293 57.1208 83.1846 55.4044 83.3318Z" fill="#7B91BD"/>
<path d="M118.514 45.5269C109.071 45.5206 99.6241 45.4423 90.1838 45.5551C75.3814 45.7305 62.0823 55.5309 57.4092 69.5817C56.9394 70.988 56.623 72.4476 56.2284 73.9072C59.2947 73.24 62.145 72.67 64.9576 71.9684C65.6718 71.7898 66.4861 71.3388 66.9121 70.7593C72.8663 62.6221 80.5619 56.8715 90.2339 53.9962C93.8985 52.9062 98.0016 52.1545 105.061 52.0104C108.344 52.0104 111.626 52.0104 114.909 52.0104C118.818 52.0104 118.818 52.0104 120.343 48.3082C121.129 46.4102 120.565 45.53 118.514 45.5269Z" fill="#7B91BD"/>
<path d="M58.2235 61.0936C62.765 53.8929 66.9934 51.384 70.752 48.5651C66.367 45.7462 59.4763 42.3009 48.5139 41.6744C45.3817 41.6744 55.2855 53.6736 57.4592 58.8072C57.6722 59.2112 58.0794 60.8525 58.2235 61.0936Z" fill="#7B91BD"/>
</g>
<defs>
<filter id="filter0_bd_563_2742" x="-36" y="-40" width="240" height="240" filterUnits="userSpaceOnUse" color-interpolation-filters="sRGB">
<feFlood flood-opacity="0" result="BackgroundImageFix"/>
<feGaussianBlur in="BackgroundImage" stdDeviation="20"/>
<feComposite in2="SourceAlpha" operator="in" result="effect1_backgroundBlur_563_2742"/>
<feColorMatrix in="SourceAlpha" type="matrix" values="0 0 0 0 0 0 0 0 0 0 0 0 0 0 0 0 0 0 127 0" result="hardAlpha"/>
<feOffset dy="4"/>
<feGaussianBlur stdDeviation="2"/>
<feComposite in2="hardAlpha" operator="out"/>
<feColorMatrix type="matrix" values="0 0 0 0 0 0 0 0 0 0 0 0 0 0 0 0 0 0 0.25 0"/>
<feBlend mode="normal" in2="effect1_backgroundBlur_563_2742" result="effect2_dropShadow_563_2742"/>
<feBlend mode="normal" in="SourceGraphic" in2="effect2_dropShadow_563_2742" result="shape"/>
</filter>
<filter id="filter1_d_563_2742" x="37.907" y="41.6744" width="92.7761" height="97.3701" filterUnits="userSpaceOnUse" color-interpolation-filters="sRGB">
<feFlood flood-opacity="0" result="BackgroundImageFix"/>
<feColorMatrix in="SourceAlpha" type="matrix" values="0 0 0 0 0 0 0 0 0 0 0 0 0 0 0 0 0 0 127 0" result="hardAlpha"/>
<feOffset dy="10"/>
<feGaussianBlur stdDeviation="5"/>
<feComposite in2="hardAlpha" operator="out"/>
<feColorMatrix type="matrix" values="0 0 0 0 0.0666667 0 0 0 0 0.0941176 0 0 0 0 0.152941 0 0 0 1 0"/>
<feBlend mode="normal" in2="BackgroundImageFix" result="effect1_dropShadow_563_2742"/>
<feBlend mode="normal" in="SourceGraphic" in2="effect1_dropShadow_563_2742" result="shape"/>
</filter>
<linearGradient id="paint0_linear_563_2742" x1="37.337" y1="9.16087" x2="132.984" y2="144.003" gradientUnits="userSpaceOnUse">
<stop stop-color="#0DCAF0"/>
<stop offset="0.0001" stop-color="#005278" stop-opacity="0.4"/>
<stop offset="1" stop-color="#234761" stop-opacity="0.1"/>
</linearGradient>
</defs>
</svg>
