<svg width="168" height="168" viewBox="0 0 168 168" fill="none" xmlns="http://www.w3.org/2000/svg">
<g filter="url(#filter0_bd_563_3236)">
<path d="M84 160C128.183 160 164 124.183 164 80C164 35.8172 128.183 0 84 0C39.8172 0 4 35.8172 4 80C4 124.183 39.8172 160 84 160Z" fill="url(#paint0_linear_563_3236)" shape-rendering="crispEdges"/>
</g>
<path d="M83.6279 152.558C123.906 152.558 156.558 119.906 156.558 79.628C156.558 39.3497 123.906 6.69775 83.6279 6.69775C43.3496 6.69775 10.6976 39.3497 10.6976 79.628C10.6976 119.906 43.3496 152.558 83.6279 152.558Z" stroke="#5FBEFF" stroke-width="2.5" stroke-miterlimit="10"/>
<g filter="url(#filter1_d_563_3236)">
<path d="M107.804 64.4173C107.671 62.7863 107.55 61.3066 107.413 59.6566C108.691 59.6566 110.014 59.6566 111.353 59.6566C110.992 56.2091 107.827 53.6244 104.005 53.6093C96.2362 53.5752 88.4676 53.5979 80.699 53.5979C80.2136 53.5979 79.717 53.6509 79.243 53.5677C77.9047 53.333 77.1009 52.5383 77.116 51.1495C77.1312 49.7606 77.9426 48.9546 79.2885 48.7767C80.0847 48.6745 80.9037 48.7426 81.7151 48.7426C88.5131 48.7426 95.3111 48.7426 102.109 48.7426C109.935 48.7426 113.381 51.0246 116.35 58.158C119.023 56.9849 120.433 53.2763 119.425 50.0671C118.435 46.9148 115.671 44.894 112.213 44.8826C105.146 44.8599 98.0789 44.875 91.0116 44.875C78.7653 44.875 66.519 44.875 54.2727 44.875C53.7874 44.875 53.2945 44.9205 52.8167 44.8448C51.4746 44.6366 50.6481 43.8646 50.6291 42.4758C50.6102 41.0869 51.4215 40.2922 52.7523 40.05C53.2224 39.963 53.7191 40.016 54.2044 40.016C73.3549 40.016 92.5093 40.0122 111.66 40.016C118.098 40.016 123.027 43.7435 124.357 49.6017C125.646 55.2706 122.841 60.6481 117.18 63.528C116.657 63.7929 116.225 64.4779 116.012 65.0607C114.454 69.3218 110.754 72.4477 106.598 72.9169C106.575 69.5072 108.084 66.8431 111.019 64.8714C110.886 64.773 110.754 64.6746 110.625 64.5725C109.726 64.5233 108.831 64.4741 107.804 64.4173Z" fill="#E11D48"/>
<path d="M68.7864 62.0862C80.3616 62.0862 91.4895 62.0862 102.61 62.0862C104.27 74.0333 94.8714 85.6966 82.2763 86.4459C82.4848 81.5111 81.9009 76.7164 79.4972 72.2925C77.101 67.8913 73.4157 64.826 68.7864 62.0862Z" fill="#E11D48"/>
<path d="M72.7407 89.3524C66.318 80.7733 58.3333 74.9227 46.5912 75.9521C46.8225 75.339 46.9172 74.9492 47.1106 74.6124C49.685 70.075 53.321 66.6502 58.0451 64.425C58.6631 64.1336 59.5048 64.0693 60.1873 64.2017C64.7521 65.0948 68.6915 67.2216 72.0241 70.4459C76.4677 74.7487 77.8553 80.0959 77.2866 86.0789C77.2487 86.4876 77.0061 87.0326 76.6838 87.2294C75.4478 87.9749 74.1473 88.6069 72.7407 89.3524Z" fill="#E11D48"/>
<path d="M68.5512 96.9663C61.6849 95.9824 55.0954 96.9247 49.287 102.03C48.2291 100.221 47.0728 98.5444 46.2159 96.7242C44.051 92.1148 43.5581 87.2595 44.3657 82.2377C44.5477 81.11 44.9685 80.7808 46.106 80.69C54.0907 80.0504 60.7068 82.6767 65.9313 88.7506C66.4925 89.4015 67.0271 90.0864 67.6337 90.6919C69.4043 92.4592 70.4621 94.3438 68.5512 96.9663Z" fill="#E11D48"/>
<path d="M80.2136 113.602C83.1217 110.045 83.133 108.633 80.2781 105.087C84.1415 103.044 87.9595 100.947 91.8533 98.9947C94.4732 97.6815 97.5632 98.3816 99.5423 100.52C101.438 102.563 97.5898 104.989 97.9158 105.958C97.9348 106.015 101.48 108.289 101.48 110.484C101.48 113.394 97.9158 114.041 97.9158 114.363C97.9158 114.685 101.802 115.657 101.154 118.563C100.555 121.258 95.5121 121.799 91.55 119.778C87.7207 117.825 83.9937 115.676 80.2136 113.602Z" fill="#E11D48"/>
<path d="M52.8962 105.436C55.8081 102.605 59.3189 101.776 63.0307 101.485C63.6715 101.436 64.3236 101.462 64.9719 101.492C67.3075 101.595 69.3093 101.776 70.3254 104.667C70.9434 106.42 75.1936 105.417 76.5396 106.93C76.8543 107.286 77.8363 109.515 76.5396 110.809C75.8154 111.532 74.0979 111.343 73.7074 111.309C69.6392 110.957 65.5369 110.756 61.5369 110.015C58.3521 109.421 55.5502 107.665 52.8962 105.436Z" fill="#E11D48"/>
</g>
<defs>
<filter id="filter0_bd_563_3236" x="-36" y="-40" width="240" height="240" filterUnits="userSpaceOnUse" color-interpolation-filters="sRGB">
<feFlood flood-opacity="0" result="BackgroundImageFix"/>
<feGaussianBlur in="BackgroundImage" stdDeviation="20"/>
<feComposite in2="SourceAlpha" operator="in" result="effect1_backgroundBlur_563_3236"/>
<feColorMatrix in="SourceAlpha" type="matrix" values="0 0 0 0 0 0 0 0 0 0 0 0 0 0 0 0 0 0 127 0" result="hardAlpha"/>
<feOffset dy="4"/>
<feGaussianBlur stdDeviation="2"/>
<feComposite in2="hardAlpha" operator="out"/>
<feColorMatrix type="matrix" values="0 0 0 0 0 0 0 0 0 0 0 0 0 0 0 0 0 0 0.25 0"/>
<feBlend mode="normal" in2="effect1_backgroundBlur_563_3236" result="effect2_dropShadow_563_3236"/>
<feBlend mode="normal" in="SourceGraphic" in2="effect2_dropShadow_563_3236" result="shape"/>
</filter>
<filter id="filter1_d_563_3236" x="34" y="40" width="100.667" height="101" filterUnits="userSpaceOnUse" color-interpolation-filters="sRGB">
<feFlood flood-opacity="0" result="BackgroundImageFix"/>
<feColorMatrix in="SourceAlpha" type="matrix" values="0 0 0 0 0 0 0 0 0 0 0 0 0 0 0 0 0 0 127 0" result="hardAlpha"/>
<feOffset dy="10"/>
<feGaussianBlur stdDeviation="5"/>
<feComposite in2="hardAlpha" operator="out"/>
<feColorMatrix type="matrix" values="0 0 0 0 0.0666667 0 0 0 0 0.0941176 0 0 0 0 0.152941 0 0 0 1 0"/>
<feBlend mode="normal" in2="BackgroundImageFix" result="effect1_dropShadow_563_3236"/>
<feBlend mode="normal" in="SourceGraphic" in2="effect1_dropShadow_563_3236" result="shape"/>
</filter>
<linearGradient id="paint0_linear_563_3236" x1="37.337" y1="9.16087" x2="132.984" y2="144.003" gradientUnits="userSpaceOnUse">
<stop stop-color="#0DCAF0"/>
<stop offset="0.0001" stop-color="#005278" stop-opacity="0.4"/>
<stop offset="1" stop-color="#234761" stop-opacity="0.1"/>
</linearGradient>
</defs>
</svg>
