<svg width="168" height="168" viewBox="0 0 168 168" fill="none" xmlns="http://www.w3.org/2000/svg">
<g filter="url(#filter0_bd_561_2731)">
<path d="M84 160C128.183 160 164 124.183 164 80C164 35.8172 128.183 0 84 0C39.8172 0 4 35.8172 4 80C4 124.183 39.8172 160 84 160Z" fill="url(#paint0_linear_561_2731)" shape-rendering="crispEdges"/>
</g>
<path d="M83.6279 152.558C123.906 152.558 156.558 119.906 156.558 79.628C156.558 39.3497 123.906 6.69775 83.6279 6.69775C43.3497 6.69775 10.6977 39.3497 10.6977 79.628C10.6977 119.906 43.3497 152.558 83.6279 152.558Z" stroke="#5FBEFF" stroke-width="2.5" stroke-miterlimit="10"/>
<g filter="url(#filter1_d_561_2731)">
<path d="M61.368 108.761C68.4655 110.814 75.4934 110.473 82.571 108.185C82.4551 109.993 82.3491 111.665 82.2332 113.497C74.7913 114.014 67.7501 112.947 61.368 108.761Z" fill="#93C5FD"/>
<path d="M121.543 84.7028C121.476 85.0803 121.43 85.4811 121.271 85.8222C119.827 88.952 118.4 92.0884 116.912 95.195C116.797 95.3838 116.681 95.5759 116.555 95.7845C111.256 104.727 104.301 108.039 104.301 108.039C104.301 108.039 104.284 108.052 104.258 108.075C101.191 109.867 98.0179 111.38 94.9245 112.079C94.5072 109.032 94.0568 106.124 93.7554 103.2C93.6859 102.534 93.9674 101.673 94.3913 101.14C96.5076 98.4672 98.8194 95.9435 100.883 93.231C106.089 86.3885 113.269 83.8417 121.526 83.8582C121.572 84.1927 121.569 84.5537 121.543 84.7028Z" fill="#93C5FD"/>
<path d="M122.556 78.301C122.546 78.099 122.523 77.9267 122.483 77.7678C122.457 77.6618 122.427 77.5624 122.387 77.473C122.321 77.3273 122.235 77.2047 122.125 77.0987C122.046 77.0226 121.953 76.9596 121.851 76.9033C121.784 76.8669 121.715 76.8338 121.639 76.804C121.344 76.6881 120.976 76.6152 120.516 76.5722C111.683 75.7442 103.82 78.1354 96.9448 83.7425C95.2756 85.1037 93.6826 86.5576 91.9703 87.8559C84.5317 93.4961 76.5168 95.3972 68.0416 93.3438C67.4123 93.1914 66.783 93.0159 66.1505 92.8205C65.5179 92.6251 64.882 92.4065 64.2461 92.168C63.9282 92.0488 63.6069 91.923 63.289 91.7938C62.143 91.3268 61.0832 90.7803 60.1128 90.1577C58.8311 89.3363 57.7083 88.3825 56.7346 87.3028C56.685 87.2465 56.6353 87.1869 56.5856 87.1273C56.2114 86.6967 55.8636 86.2496 55.5357 85.7793C55.3966 85.5806 55.2641 85.3786 55.135 85.1732C54.3633 83.9511 53.744 82.6065 53.2836 81.1459C53.1114 80.6028 52.9623 80.0431 52.8332 79.4668C52.7239 78.9766 52.6245 78.4831 52.5484 77.9698C52.4192 77.1219 52.3596 76.2873 52.3629 75.466C52.3728 71.9056 53.5419 68.5937 55.3072 65.4474C55.645 64.8479 55.9563 64.2418 56.2412 63.6324H56.2445C56.2445 63.6324 57.2778 61.6718 58.6026 61.3406C59.2451 61.1783 60.5897 61.3406 62.2689 60.9001C62.2987 60.8935 62.3252 60.8769 62.3517 60.8637C62.5802 60.8173 62.8087 60.7676 63.0339 60.7146C63.0472 60.7113 63.0571 60.708 63.0704 60.7047C63.289 60.6517 63.5075 60.5954 63.7261 60.5358C63.7394 60.5325 63.7526 60.5291 63.7659 60.5225C63.9811 60.4629 64.1964 60.3967 64.4117 60.3304C64.4183 60.3271 64.4249 60.3271 64.4316 60.3238C65.5113 59.9761 66.538 59.5256 67.5183 58.9759C67.5481 58.9593 67.5779 58.9427 67.611 58.9262C67.7601 58.8434 67.9058 58.754 68.0482 58.6645C68.1144 58.6248 68.1807 58.585 68.2469 58.542C68.3761 58.4625 68.5019 58.3764 68.6278 58.2936C68.7106 58.2373 68.7934 58.1843 68.8729 58.128C68.9888 58.0485 69.1014 57.9657 69.2173 57.8829C69.31 57.8167 69.3995 57.7471 69.4922 57.6809C69.5982 57.6014 69.7009 57.5219 69.8035 57.4391C69.9029 57.3596 70.0022 57.2801 70.1016 57.1973C70.1976 57.1179 70.2904 57.0417 70.3864 56.9589C70.4924 56.8662 70.6017 56.7701 70.7077 56.6774C70.7905 56.6012 70.8766 56.5283 70.9594 56.4522C71.0819 56.3396 71.2012 56.2203 71.3204 56.1044C71.3866 56.0382 71.4529 55.9752 71.5191 55.909C71.7046 55.7235 71.8867 55.5348 72.0656 55.3394C72.0689 55.336 72.0689 55.336 72.0722 55.3327C68.6907 52.7726 65.0542 51.4313 61.0335 51.63C58.0495 51.779 56.0292 50.7788 54.4097 48.2651C52.3198 45.0326 49.296 42.8732 45.5171 41.6743C45.4045 42.0419 45.3151 42.2936 45.2522 42.552C45.1727 42.8732 45.0899 43.1978 45.0568 43.5224C44.7719 46.2315 44.9673 48.7519 45.6496 51.0802C46.5935 54.2961 48.4714 57.1444 51.3594 59.5952C51.6906 59.8767 51.9555 60.1185 52.1609 60.3337C52.247 60.4265 52.3198 60.5126 52.3861 60.5987C52.5782 60.8504 52.6841 61.0789 52.704 61.3207C52.7504 61.8407 52.4258 62.4236 51.8297 63.4337C50.2168 66.176 48.4581 68.9415 47.5076 71.9354C46.9015 73.8431 46.4445 75.7309 46.153 77.5889C45.9576 78.8276 45.8384 80.053 45.7953 81.2652C45.7854 81.5665 45.7788 81.8712 45.7788 82.1726C45.7755 83.3782 45.8549 84.5638 46.0205 85.7363C46.0603 86.0277 46.1066 86.3192 46.1596 86.6106C46.2524 87.1339 46.3683 87.6572 46.4975 88.1738C46.6001 88.5845 46.716 88.9952 46.8452 89.3993C46.9777 89.8199 47.1201 90.2372 47.2791 90.6512C47.448 91.0917 47.6301 91.5322 47.8255 91.966C47.9944 92.3336 48.17 92.7013 48.3621 93.0656C48.786 93.8803 49.2662 94.6818 49.8028 95.47C49.9087 95.6257 50.018 95.7814 50.1273 95.937C50.4122 96.3311 50.7069 96.722 51.0216 97.1094C51.2865 97.4373 51.5614 97.7652 51.8495 98.0865C52.2735 98.5634 52.7239 99.0337 53.1975 99.5007C53.2008 99.504 53.2041 99.5073 53.2074 99.5106C53.4889 99.7855 53.7705 100.047 54.0553 100.305C54.4891 100.696 54.9263 101.067 55.3668 101.422C56.8837 102.637 58.4535 103.627 60.0664 104.409C60.242 104.495 60.4208 104.578 60.5964 104.657C62.4113 105.482 64.2825 106.055 66.2001 106.393C66.2863 106.409 66.3724 106.423 66.4552 106.436C68.184 106.721 69.9493 106.823 71.7476 106.75C72.3603 106.727 72.9764 106.684 73.5957 106.621C76.0763 106.37 78.6133 105.817 81.19 105.002C82.3988 104.621 83.0546 104.422 83.3593 104.147C83.3825 104.127 83.4056 104.104 83.4222 104.081C83.5381 103.949 83.5845 103.793 83.5812 103.594C83.5712 103.193 83.3593 102.604 83.1076 101.624C83.1042 101.614 83.1076 101.604 83.1042 101.597C82.9685 100.984 83.4818 99.8882 84.025 99.5338C84.6874 99.0999 85.5054 99.3185 85.9128 99.9511C86.0055 100.097 86.0784 100.266 86.1214 100.451C86.2274 100.908 86.3301 101.369 86.4228 101.829C86.5818 102.627 86.7143 103.435 86.7871 104.24C86.7904 104.276 86.7937 104.313 86.7971 104.349C86.8302 104.767 86.85 105.184 86.8467 105.601C86.8467 105.77 86.8335 105.936 86.8136 106.101C86.6712 107.27 86.1247 108.426 85.9326 109.612C85.767 110.632 85.6842 111.639 85.6975 112.636C85.7074 113.434 85.7803 114.222 85.926 115.007C85.9624 115.203 86.0022 115.398 86.0486 115.593C86.1545 116.054 86.2903 116.507 86.4493 116.961C86.6944 117.663 87.0024 118.355 87.3833 119.044C89.5095 116.792 90.8144 113.715 91.1324 110.493C91.2582 109.205 91.2251 107.89 91.0231 106.598C90.9204 105.952 90.778 105.31 90.5892 104.681C90.3474 103.872 90.2348 103.114 90.2547 102.399C90.2978 100.829 90.9867 99.4808 92.3909 98.3051C93.2355 97.5996 94.1032 96.924 95.0073 96.202C95.0073 96.202 96.0241 95.4568 97.6801 92.4761C98.5114 90.9791 99.4255 89.7338 100.131 88.8627C100.85 88.0944 101.598 87.3922 102.376 86.7431C102.38 86.7398 102.38 86.7398 102.383 86.7365C102.568 86.5808 102.757 86.4318 102.946 86.2827C102.963 86.2695 102.982 86.2562 102.999 86.243C103.188 86.0973 103.377 85.9515 103.569 85.8124C103.572 85.8091 103.572 85.8091 103.575 85.8058C104.367 85.2262 105.188 84.7029 106.033 84.2293C106.053 84.2194 106.073 84.2062 106.092 84.1962C106.284 84.0902 106.477 83.9876 106.669 83.8882C106.708 83.8683 106.745 83.8485 106.785 83.8286C106.973 83.7292 107.165 83.6365 107.358 83.5438C107.387 83.5272 107.42 83.514 107.454 83.4974C108.278 83.1033 109.123 82.7555 109.987 82.4475C110.053 82.4243 110.116 82.4012 110.183 82.378C110.358 82.3184 110.534 82.2587 110.709 82.2024C110.792 82.1759 110.871 82.1494 110.954 82.1229C111.123 82.07 111.295 82.017 111.468 81.9673C111.554 81.9408 111.64 81.9176 111.726 81.8944C111.898 81.8447 112.07 81.7951 112.246 81.7487C112.309 81.7321 112.372 81.7156 112.435 81.7023C112.773 81.6162 113.117 81.5334 113.461 81.4573C113.564 81.4341 113.663 81.4109 113.766 81.3877C113.915 81.3546 114.068 81.3248 114.22 81.295C114.346 81.2685 114.472 81.2453 114.597 81.2221C114.743 81.1956 114.886 81.1691 115.031 81.1459C115.167 81.1227 115.306 81.0996 115.442 81.0764C115.581 81.0532 115.72 81.0333 115.859 81.0101C116.012 80.987 116.164 80.9671 116.32 80.9472C116.445 80.9307 116.575 80.9108 116.701 80.8975C116.916 80.871 117.134 80.8445 117.353 80.8214C117.472 80.8081 117.591 80.7949 117.711 80.7849C117.936 80.7617 118.164 80.7419 118.393 80.722C118.502 80.7121 118.615 80.7054 118.724 80.6988C118.91 80.6856 119.095 80.6723 119.28 80.6591C119.396 80.6525 119.516 80.6458 119.632 80.6392C119.817 80.6293 119.999 80.6193 120.185 80.6127C120.297 80.6094 120.413 80.6028 120.526 80.5995C120.728 80.5928 120.93 80.5862 121.132 80.5829C121.228 80.5796 121.327 80.5796 121.423 80.5763C121.721 80.573 122.023 80.5697 122.324 80.5697C122.394 80.1788 122.447 79.8278 122.486 79.5098C122.526 79.1919 122.549 78.9104 122.559 78.6554C122.559 78.5295 122.559 78.4103 122.556 78.301Z" fill="#93C5FD"/>
</g>
<defs>
<filter id="filter0_bd_561_2731" x="-36" y="-40" width="240" height="240" filterUnits="userSpaceOnUse" color-interpolation-filters="sRGB">
<feFlood flood-opacity="0" result="BackgroundImageFix"/>
<feGaussianBlur in="BackgroundImage" stdDeviation="20"/>
<feComposite in2="SourceAlpha" operator="in" result="effect1_backgroundBlur_561_2731"/>
<feColorMatrix in="SourceAlpha" type="matrix" values="0 0 0 0 0 0 0 0 0 0 0 0 0 0 0 0 0 0 127 0" result="hardAlpha"/>
<feOffset dy="4"/>
<feGaussianBlur stdDeviation="2"/>
<feComposite in2="hardAlpha" operator="out"/>
<feColorMatrix type="matrix" values="0 0 0 0 0 0 0 0 0 0 0 0 0 0 0 0 0 0 0.25 0"/>
<feBlend mode="normal" in2="effect1_backgroundBlur_561_2731" result="effect2_dropShadow_561_2731"/>
<feBlend mode="normal" in="SourceGraphic" in2="effect2_dropShadow_561_2731" result="shape"/>
</filter>
<filter id="filter1_d_561_2731" x="34.9302" y="41.6743" width="97.6291" height="97.3701" filterUnits="userSpaceOnUse" color-interpolation-filters="sRGB">
<feFlood flood-opacity="0" result="BackgroundImageFix"/>
<feColorMatrix in="SourceAlpha" type="matrix" values="0 0 0 0 0 0 0 0 0 0 0 0 0 0 0 0 0 0 127 0" result="hardAlpha"/>
<feOffset dy="10"/>
<feGaussianBlur stdDeviation="5"/>
<feComposite in2="hardAlpha" operator="out"/>
<feColorMatrix type="matrix" values="0 0 0 0 0.0666667 0 0 0 0 0.0941176 0 0 0 0 0.152941 0 0 0 1 0"/>
<feBlend mode="normal" in2="BackgroundImageFix" result="effect1_dropShadow_561_2731"/>
<feBlend mode="normal" in="SourceGraphic" in2="effect1_dropShadow_561_2731" result="shape"/>
</filter>
<linearGradient id="paint0_linear_561_2731" x1="37.337" y1="9.16087" x2="132.984" y2="144.003" gradientUnits="userSpaceOnUse">
<stop stop-color="#0DCAF0"/>
<stop offset="0.0001" stop-color="#005278" stop-opacity="0.4"/>
<stop offset="1" stop-color="#234761" stop-opacity="0.1"/>
</linearGradient>
</defs>
</svg>
