<svg width="168" height="168" viewBox="0 0 168 168" fill="none" xmlns="http://www.w3.org/2000/svg">
<g filter="url(#filter0_bd_561_2731)">
<path d="M84 160C128.183 160 164 124.183 164 80C164 35.8172 128.183 0 84 0C39.8172 0 4 35.8172 4 80C4 124.183 39.8172 160 84 160Z" fill="url(#paint0_linear_561_2731)" shape-rendering="crispEdges"/>
</g>
<path d="M83.6279 152.558C123.906 152.558 156.558 119.906 156.558 79.6279C156.558 39.3496 123.906 6.69763 83.6279 6.69763C43.3496 6.69763 10.6976 39.3496 10.6976 79.6279C10.6976 119.906 43.3496 152.558 83.6279 152.558Z" stroke="#5FBEFF" stroke-width="2.5" stroke-miterlimit="10"/>
<g filter="url(#filter1_d_561_2731)">
<path d="M61.368 108.761C68.4655 110.814 75.4934 110.473 82.571 108.185C82.4551 109.993 82.3491 111.666 82.2332 113.497C74.7913 114.014 67.7501 112.947 61.368 108.761Z" fill="#F3F4FA"/>
<path d="M121.543 84.703C121.476 85.0806 121.43 85.4813 121.271 85.8225C119.827 88.9522 118.4 92.0886 116.912 95.1952C116.797 95.384 116.681 95.5761 116.555 95.7847C111.256 104.727 104.301 108.039 104.301 108.039C104.301 108.039 104.284 108.052 104.258 108.075C101.191 109.867 98.0179 111.381 94.9245 112.079C94.5072 109.032 94.0568 106.125 93.7554 103.2C93.6859 102.534 93.9674 101.673 94.3913 101.14C96.5076 98.4674 98.8194 95.9437 100.883 93.2312C106.089 86.3888 113.269 83.8419 121.526 83.8585C121.572 84.193 121.569 84.554 121.543 84.703Z" fill="#F3F4FA"/>
<path d="M122.556 78.3011C122.546 78.0991 122.523 77.9269 122.483 77.7679C122.457 77.6619 122.427 77.5625 122.387 77.4731C122.321 77.3274 122.235 77.2049 122.125 77.0989C122.046 77.0227 121.953 76.9598 121.85 76.9035C121.784 76.867 121.715 76.8339 121.639 76.8041C121.344 76.6882 120.976 76.6153 120.516 76.5723C111.683 75.7443 103.82 78.1355 96.9448 83.7426C95.2755 85.1038 93.6825 86.5578 91.9702 87.856C84.5316 93.4963 76.5168 95.3973 68.0415 93.3439C67.4122 93.1916 66.783 93.016 66.1504 92.8206C65.5178 92.6252 64.8819 92.4066 64.246 92.1682C63.9281 92.0489 63.6068 91.9231 63.2889 91.7939C62.143 91.3269 61.0831 90.7805 60.1127 90.1578C58.831 89.3365 57.7083 88.3826 56.7346 87.3029C56.6849 87.2466 56.6352 87.187 56.5855 87.1274C56.2113 86.6969 55.8635 86.2497 55.5357 85.7794C55.3966 85.5807 55.2641 85.3787 55.1349 85.1734C54.3632 83.9513 53.7439 82.6066 53.2835 81.1461C53.1113 80.6029 52.9623 80.0432 52.8331 79.4669C52.7238 78.9767 52.6245 78.4833 52.5483 77.9699C52.4191 77.1221 52.3595 76.2874 52.3628 75.4661C52.3728 71.9058 53.5419 68.5938 55.3071 65.4475C55.645 64.848 55.9563 64.2419 56.2411 63.6326H56.2444C56.2444 63.6326 57.2777 61.6719 58.6025 61.3407C59.245 61.1784 60.5897 61.3407 62.2688 60.9002C62.2986 60.8936 62.3251 60.877 62.3516 60.8638C62.5801 60.8174 62.8087 60.7677 63.0339 60.7147C63.0471 60.7114 63.0571 60.7081 63.0703 60.7048C63.2889 60.6518 63.5075 60.5955 63.7261 60.5359C63.7393 60.5326 63.7526 60.5293 63.7658 60.5226C63.9811 60.463 64.1964 60.3968 64.4116 60.3306C64.4183 60.3272 64.4249 60.3272 64.4315 60.3239C65.5112 59.9762 66.5379 59.5258 67.5182 58.976C67.548 58.9594 67.5778 58.9429 67.611 58.9263C67.76 58.8435 67.9057 58.7541 68.0481 58.6647C68.1144 58.6249 68.1806 58.5852 68.2469 58.5421C68.376 58.4626 68.5019 58.3765 68.6277 58.2937C68.7105 58.2374 68.7933 58.1844 68.8728 58.1281C68.9887 58.0486 69.1013 57.9658 69.2173 57.883C69.31 57.8168 69.3994 57.7472 69.4921 57.681C69.5981 57.6015 69.7008 57.522 69.8035 57.4392C69.9028 57.3598 70.0022 57.2803 70.1015 57.1975C70.1976 57.118 70.2903 57.0418 70.3864 56.959C70.4923 56.8663 70.6016 56.7702 70.7076 56.6775C70.7904 56.6013 70.8765 56.5285 70.9593 56.4523C71.0819 56.3397 71.2011 56.2204 71.3203 56.1045C71.3866 56.0383 71.4528 55.9754 71.519 55.9091C71.7045 55.7237 71.8867 55.5349 72.0655 55.3395C72.0688 55.3362 72.0688 55.3362 72.0721 55.3328C68.6907 52.7727 65.0542 51.4314 61.0335 51.6301C58.0494 51.7791 56.0291 50.7789 54.4096 48.2652C52.3198 45.0327 49.296 42.8734 45.5171 41.6744C45.4045 42.0421 45.315 42.2938 45.2521 42.5521C45.1726 42.8734 45.0898 43.1979 45.0567 43.5225C44.7719 46.2317 44.9673 48.752 45.6495 51.0803C46.5934 54.2962 48.4713 57.1445 51.3593 59.5953C51.6905 59.8768 51.9555 60.1186 52.1608 60.3339C52.2469 60.4266 52.3198 60.5127 52.386 60.5988C52.5781 60.8505 52.6841 61.0791 52.704 61.3208C52.7503 61.8408 52.4258 62.4237 51.8296 63.4338C50.2167 66.1761 48.4581 68.9416 47.5075 71.9356C46.9014 73.8432 46.4444 75.731 46.153 77.589C45.9575 78.8277 45.8383 80.0531 45.7953 81.2653C45.7853 81.5667 45.7787 81.8714 45.7787 82.1728C45.7754 83.3783 45.8549 84.564 46.0205 85.7364C46.0602 86.0278 46.1066 86.3193 46.1596 86.6107C46.2523 87.134 46.3682 87.6573 46.4974 88.174C46.6001 88.5847 46.716 88.9953 46.8451 89.3994C46.9776 89.82 47.12 90.2373 47.279 90.6513C47.4479 91.0918 47.6301 91.5323 47.8255 91.9661C47.9944 92.3338 48.1699 92.7014 48.362 93.0657C48.7859 93.8804 49.2662 94.6819 49.8027 95.4702C49.9087 95.6258 50.018 95.7815 50.1273 95.9371C50.4121 96.3313 50.7069 96.7221 51.0215 97.1096C51.2864 97.4375 51.5613 97.7653 51.8495 98.0866C52.2734 98.5635 52.7238 99.0338 53.1974 99.5008C53.2007 99.5041 53.2041 99.5074 53.2074 99.5107C53.4889 99.7856 53.7704 100.047 54.0552 100.306C54.4891 100.696 54.9263 101.067 55.3667 101.422C56.8836 102.637 58.4535 103.627 60.0664 104.409C60.2419 104.495 60.4208 104.578 60.5963 104.657C62.4112 105.482 64.2825 106.055 66.2001 106.393C66.2862 106.409 66.3723 106.423 66.4551 106.436C68.1839 106.721 69.9492 106.823 71.7476 106.751C72.3603 106.727 72.9763 106.684 73.5956 106.621C76.0763 106.37 78.6132 105.817 81.1899 105.002C82.3987 104.621 83.0545 104.422 83.3592 104.147C83.3824 104.128 83.4056 104.104 83.4221 104.081C83.538 103.949 83.5844 103.793 83.5811 103.594C83.5712 103.194 83.3592 102.604 83.1075 101.624C83.1042 101.614 83.1075 101.604 83.1042 101.597C82.9684 100.985 83.4817 99.8883 84.0249 99.5339C84.6873 99.1 85.5053 99.3186 85.9127 99.9512C86.0054 100.097 86.0783 100.266 86.1214 100.451C86.2273 100.908 86.33 101.369 86.4227 101.829C86.5817 102.627 86.7142 103.435 86.7871 104.24C86.7904 104.277 86.7937 104.313 86.797 104.349C86.8301 104.767 86.85 105.184 86.8467 105.601C86.8467 105.77 86.8334 105.936 86.8136 106.101C86.6711 107.271 86.1247 108.426 85.9326 109.612C85.767 110.632 85.6842 111.639 85.6974 112.636C85.7074 113.434 85.7802 114.222 85.926 115.007C85.9624 115.203 86.0021 115.398 86.0485 115.593C86.1545 116.054 86.2903 116.508 86.4492 116.961C86.6943 117.663 87.0023 118.356 87.3832 119.044C89.5095 116.792 90.8144 113.716 91.1323 110.493C91.2582 109.205 91.2251 107.89 91.023 106.598C90.9204 105.952 90.7779 105.31 90.5892 104.681C90.3474 103.873 90.2348 103.114 90.2547 102.399C90.2977 100.829 90.9866 99.4809 92.3909 98.3052C93.2354 97.5997 94.1031 96.9241 95.0073 96.2021C95.0073 96.2021 96.024 95.4569 97.68 92.4762C98.5113 90.9792 99.4254 89.7339 100.131 88.8629C100.85 88.0945 101.598 87.3924 102.376 86.7432C102.38 86.7399 102.38 86.7399 102.383 86.7366C102.568 86.5809 102.757 86.4319 102.946 86.2829C102.963 86.2696 102.982 86.2564 102.999 86.2431C103.188 86.0974 103.377 85.9517 103.569 85.8126C103.572 85.8093 103.572 85.8093 103.575 85.8059C104.367 85.2264 105.188 84.7031 106.033 84.2295C106.053 84.2195 106.072 84.2063 106.092 84.1963C106.284 84.0904 106.477 83.9877 106.669 83.8883C106.708 83.8685 106.745 83.8486 106.785 83.8287C106.973 83.7294 107.165 83.6366 107.357 83.5439C107.387 83.5273 107.42 83.5141 107.454 83.4975C108.278 83.1034 109.123 82.7557 109.987 82.4476C110.053 82.4245 110.116 82.4013 110.183 82.3781C110.358 82.3185 110.534 82.2589 110.709 82.2026C110.792 82.1761 110.871 82.1496 110.954 82.1231C111.123 82.0701 111.295 82.0171 111.468 81.9674C111.554 81.9409 111.64 81.9177 111.726 81.8946C111.898 81.8449 112.07 81.7952 112.246 81.7488C112.309 81.7323 112.372 81.7157 112.435 81.7025C112.772 81.6163 113.117 81.5336 113.461 81.4574C113.564 81.4342 113.663 81.411 113.766 81.3878C113.915 81.3547 114.067 81.3249 114.22 81.2951C114.346 81.2686 114.472 81.2454 114.597 81.2222C114.743 81.1957 114.885 81.1692 115.031 81.1461C115.167 81.1229 115.306 81.0997 115.442 81.0765C115.581 81.0533 115.72 81.0334 115.859 81.0103C116.012 80.9871 116.164 80.9672 116.32 80.9473C116.445 80.9308 116.575 80.9109 116.7 80.8977C116.916 80.8712 117.134 80.8447 117.353 80.8215C117.472 80.8082 117.591 80.795 117.711 80.785C117.936 80.7619 118.164 80.742 118.393 80.7221C118.502 80.7122 118.615 80.7056 118.724 80.6989C118.91 80.6857 119.095 80.6724 119.28 80.6592C119.396 80.6526 119.516 80.646 119.632 80.6393C119.817 80.6294 119.999 80.6195 120.185 80.6128C120.297 80.6095 120.413 80.6029 120.526 80.5996C120.728 80.593 120.93 80.5863 121.132 80.583C121.228 80.5797 121.327 80.5797 121.423 80.5764C121.721 80.5731 122.023 80.5698 122.324 80.5698C122.394 80.179 122.447 79.8279 122.486 79.51C122.526 79.192 122.549 78.9105 122.559 78.6555C122.559 78.5296 122.559 78.4104 122.556 78.3011Z" fill="#111827"/>
</g>
<defs>
<filter id="filter0_bd_561_2731" x="-36" y="-40" width="240" height="240" filterUnits="userSpaceOnUse" color-interpolation-filters="sRGB">
<feFlood flood-opacity="0" result="BackgroundImageFix"/>
<feGaussianBlur in="BackgroundImage" stdDeviation="20"/>
<feComposite in2="SourceAlpha" operator="in" result="effect1_backgroundBlur_561_2731"/>
<feColorMatrix in="SourceAlpha" type="matrix" values="0 0 0 0 0 0 0 0 0 0 0 0 0 0 0 0 0 0 127 0" result="hardAlpha"/>
<feOffset dy="4"/>
<feGaussianBlur stdDeviation="2"/>
<feComposite in2="hardAlpha" operator="out"/>
<feColorMatrix type="matrix" values="0 0 0 0 0 0 0 0 0 0 0 0 0 0 0 0 0 0 0.25 0"/>
<feBlend mode="normal" in2="effect1_backgroundBlur_561_2731" result="effect2_dropShadow_561_2731"/>
<feBlend mode="normal" in="SourceGraphic" in2="effect2_dropShadow_561_2731" result="shape"/>
</filter>
<filter id="filter1_d_561_2731" x="34.9302" y="41.6744" width="97.629" height="97.37" filterUnits="userSpaceOnUse" color-interpolation-filters="sRGB">
<feFlood flood-opacity="0" result="BackgroundImageFix"/>
<feColorMatrix in="SourceAlpha" type="matrix" values="0 0 0 0 0 0 0 0 0 0 0 0 0 0 0 0 0 0 127 0" result="hardAlpha"/>
<feOffset dy="10"/>
<feGaussianBlur stdDeviation="5"/>
<feComposite in2="hardAlpha" operator="out"/>
<feColorMatrix type="matrix" values="0 0 0 0 0.0666667 0 0 0 0 0.0941176 0 0 0 0 0.152941 0 0 0 1 0"/>
<feBlend mode="normal" in2="BackgroundImageFix" result="effect1_dropShadow_561_2731"/>
<feBlend mode="normal" in="SourceGraphic" in2="effect1_dropShadow_561_2731" result="shape"/>
</filter>
<linearGradient id="paint0_linear_561_2731" x1="37.337" y1="9.16087" x2="132.984" y2="144.003" gradientUnits="userSpaceOnUse">
<stop stop-color="#0DCAF0"/>
<stop offset="0.0001" stop-color="#005278" stop-opacity="0.4"/>
<stop offset="1" stop-color="#234761" stop-opacity="0.1"/>
</linearGradient>
</defs>
</svg>
