<svg width="104" height="105" viewBox="0 0 104 105" fill="none" xmlns="http://www.w3.org/2000/svg">
<path d="M82.2327 31.4699C82.0616 29.3677 81.9053 27.4607 81.7293 25.3342C83.3761 25.3342 85.0815 25.3342 86.8065 25.3342C86.3422 20.8909 82.262 17.5596 77.3364 17.5401C67.3239 17.4962 57.3114 17.5255 47.2989 17.5255C46.6734 17.5255 46.0333 17.5938 45.4224 17.4865C43.6975 17.1841 42.6616 16.1598 42.6811 14.3698C42.7006 12.5798 43.7464 11.5409 45.4811 11.3117C46.5072 11.18 47.5627 11.2678 48.6085 11.2678C57.37 11.2678 66.1316 11.2678 74.8931 11.2678C84.9789 11.2678 89.4208 14.2089 93.2469 23.4027C96.6919 21.8907 98.5097 17.1109 97.2099 12.9749C95.9345 8.91204 92.3722 6.30751 87.9157 6.29288C78.8072 6.26362 69.6987 6.28313 60.5902 6.28313C44.8067 6.28313 29.0233 6.28313 13.2398 6.28313C12.6143 6.28313 11.979 6.34166 11.3633 6.24411C9.63349 5.97586 8.56825 4.98087 8.54381 3.19088C8.51938 1.40088 9.56509 0.37663 11.2803 0.0644777C11.8862 -0.0477019 12.5263 0.0205831 13.1518 0.0205831C37.8337 0.0205831 62.5204 0.0157058 87.2023 0.0205831C95.4996 0.0205831 101.852 4.82479 103.567 12.375C105.229 19.6813 101.613 26.612 94.3171 30.3237C93.6427 30.6651 93.0857 31.5479 92.812 32.299C90.8037 37.791 86.0344 41.8197 80.6787 42.4245C80.6494 38.03 82.5943 34.5963 86.3764 32.0552C86.2054 31.9284 86.0344 31.8015 85.8682 31.6699C84.7101 31.6064 83.5569 31.543 82.2327 31.4699Z" fill="#F9FAFB"/>
<path d="M31.9456 28.4654C46.8641 28.4654 61.2061 28.4654 75.5383 28.4654C77.6786 43.8633 65.5649 58.8953 49.3318 59.861C49.6006 53.501 48.8481 47.3213 45.75 41.6197C42.6617 35.9473 37.912 31.9966 31.9456 28.4654Z" fill="#F9FAFB"/>
<path d="M37.0421 63.6069C28.7643 52.5499 18.4732 45.0095 3.33966 46.3362C3.63774 45.546 3.7599 45.0437 4.00911 44.6096C7.32707 38.7616 12.0133 34.3476 18.1019 31.4797C18.8984 31.1041 19.9832 31.0212 20.8628 31.1919C26.7461 32.343 31.8233 35.0841 36.1185 39.2396C41.8455 44.7852 43.634 51.6769 42.901 59.388C42.8522 59.9148 42.5394 60.6171 42.1241 60.8707C40.531 61.8316 38.855 62.6461 37.0421 63.6069Z" fill="#F9FAFB"/>
<path d="M31.6425 73.4201C22.793 72.152 14.3002 73.3665 6.81401 79.9461C5.45067 77.6147 3.96029 75.454 2.85593 73.108C0.0657222 67.1674 -0.569529 60.9097 0.471302 54.4374C0.705855 52.9839 1.24827 52.5596 2.71423 52.4426C13.0053 51.6183 21.5323 55.0032 28.2659 62.8314C28.9891 63.6703 29.6781 64.5531 30.4599 65.3335C32.7419 67.6112 34.1053 70.0401 31.6425 73.4201Z" fill="#F9FAFB"/>
<path d="M46.6733 94.861C50.4213 90.2763 50.436 88.457 46.7564 83.8869C51.7358 81.2531 56.6565 78.5511 61.675 76.0343C65.0516 74.3419 69.0341 75.2442 71.5849 77.9999C74.0281 80.6337 69.0683 83.7601 69.4886 85.0087C69.513 85.0819 74.0819 88.0132 74.0819 90.842C74.0819 94.5927 69.4886 95.4268 69.4886 95.8414C69.4886 96.2559 74.4972 97.5094 73.6616 101.255C72.8896 104.728 66.3905 105.425 61.2841 102.821C56.3487 100.304 51.5452 97.5338 46.6733 94.861Z" fill="#F9FAFB"/>
<path d="M11.4658 84.3357C15.2187 80.6875 19.7436 79.6193 24.5275 79.2438C25.3533 79.1803 26.1938 79.2145 27.0294 79.2535C30.0395 79.3852 32.6196 79.6193 33.9292 83.3456C34.7257 85.6039 40.2035 84.3113 41.9382 86.2623C42.3438 86.7208 43.6094 89.5935 41.9382 91.2616C41.0049 92.1932 38.7913 91.9493 38.288 91.9054C33.0447 91.4518 27.7575 91.1933 22.6022 90.2374C18.4975 89.4716 14.8864 87.2085 11.4658 84.3357Z" fill="#F9FAFB"/>
</svg>
