<svg width="108" height="105" viewBox="0 0 108 105" fill="none" xmlns="http://www.w3.org/2000/svg">
<path d="M84.8698 38.1632C84.0449 40.0278 83.1685 41.8751 82.4124 43.7654C82.0945 44.5645 81.8883 45.4623 81.8711 46.3216C81.7852 49.9604 81.9269 53.6035 81.7336 57.2337C81.3985 63.5103 80.2385 69.6667 78.533 75.7199C78.4514 76.0077 78.3526 76.3557 78.4428 76.6092C78.954 78.0656 79.5211 79.5005 80.1698 81.2017C84.0062 66.93 85.6173 52.6927 84.8698 38.1632Z" fill="#F9FAFB"/>
<path d="M72.2349 71.5527C71.1136 69.0911 71.8697 70.8267 70.8172 68.3049C70.0482 66.4661 73.1543 64.6016 74.224 66.8313C75.6761 69.8601 74.6708 67.8194 75.8136 70.4615C75.8952 70.4658 75.9768 70.4701 76.0627 70.4701C76.4365 68.4896 76.8189 66.5134 77.1797 64.5286C78.3139 58.3508 78.0991 52.1085 78.1464 45.8748C78.155 44.8309 78.3826 43.7182 78.7951 42.7602C82.1289 35.0529 94.7251 6.531 97.2469 0.791389C97.3371 0.589471 97.393 0.374661 97.466 0.155559C93.9131 -0.673592 91.1636 1.8783 88.6804 6.22597C88.6203 6.32908 86.9749 9.06571 86.8589 9.26763C85.3037 11.9441 83.6798 14.5905 82.2449 17.3314C81.7938 18.195 80.0796 20.9273 79.5813 21.7994C76.4623 27.2426 73.3132 32.6686 70.1685 38.0946C70.031 38.3352 68.5445 40.8484 67.4619 42.6699C67.376 42.859 67.2987 43.0265 67.2084 43.1855C60.8889 54.1148 54.5993 65.0613 48.2325 75.9606C45.2037 81.146 40.5768 83.831 34.5537 83.6076C28.8312 83.3971 24.4535 80.6218 21.8672 75.518C20.4581 72.7385 19.5903 69.6882 18.4862 66.7583C17.9535 65.3448 17.4336 63.9314 16.9267 62.5094C16.2307 60.5719 16.9825 59.5537 19.0275 59.4635C20.5311 59.399 22.0734 59.3603 23.5126 58.978C27.856 57.818 31.018 53.9215 31.3788 49.7413C30.322 49.8831 29.2308 50.128 28.1353 50.1581C25.8068 50.2225 23.4783 50.1967 21.1498 50.1753C19.1134 50.1581 17.5754 50.9743 16.5057 52.7228C15.5348 54.3081 13.9967 54.3124 13.0258 52.7357C11.9518 50.9915 10.4224 50.1581 8.38172 50.1795C6.59454 50.1967 4.80735 50.2354 3.02447 50.1624C1.9934 50.1194 0.975218 49.8745 0 49.7328C0.356578 54.7807 4.92765 59.1713 10.4181 59.4678C12.3642 59.5709 12.8883 60.1079 12.8926 62.0153C12.8969 65.6928 12.8926 69.366 12.8926 73.1251L12.8368 77.4513C13.0774 78.912 13.2621 80.4371 13.5886 81.9364C16.3209 94.6143 27.7142 103.907 40.7057 104.126C46.9222 104.233 53.1 104.01 59.1403 102.493C61.9973 101.819 64.9874 100.582 67.0194 99.6407L71.6292 97.2134C71.264 96.4788 70.8945 95.7442 70.5208 94.9966L68.2309 90.49C68.188 90.3224 68.1192 90.1463 68.0247 89.9616C66.8261 87.6632 65.6704 85.339 64.5363 83.0062C64.2613 82.4391 63.1314 80.5058 63.2131 80.4285C61.6622 77.636 65.5501 76.7553 66.1817 78.0141C70.5251 86.6836 74.2455 94.1159 78.5889 102.785C78.692 102.992 78.765 103.228 78.9068 103.404C79.1087 103.649 79.3665 103.851 79.5984 104.07C79.723 103.739 79.9593 103.408 79.9464 103.082C79.8648 100.955 79.7832 98.8245 79.6027 96.7022C78.8466 87.835 75.8952 79.5951 72.2349 71.5527Z" fill="#F9FAFB"/>
<path d="M102.724 4.66649C102.6 4.40872 102.467 4.15526 102.325 3.91038C102.321 3.90179 102.316 3.8932 102.308 3.88461C102.166 3.63973 102.02 3.40343 101.865 3.18004C101.861 3.17144 101.852 3.16285 101.848 3.15426C101.71 2.95664 101.569 2.76761 101.427 2.58717C101.393 2.53991 101.354 2.49695 101.32 2.45399C101.165 2.26496 101.006 2.08024 100.838 1.91269C100.095 4.08652 98.6774 5.78778 99.3906 8.43419C101.036 14.539 101.62 20.8457 102.084 27.1438C102.183 28.467 102.26 29.7859 102.333 31.1091C102.351 31.4098 102.364 31.7063 102.376 32.007C102.437 33.2099 102.488 34.4128 102.522 35.6157C102.527 35.7231 102.531 35.8348 102.535 35.9422C102.621 38.812 102.643 41.6818 102.6 44.5473L101.887 58.2863C101.831 58.9694 101.771 59.6525 101.719 60.3356C101.676 60.8726 100.74 66.2341 100.795 66.7755C107.003 57.1522 106.694 51.8722 107.003 30.4475C107.261 12.5198 103.39 5.70185 102.724 4.66649Z" fill="#F9FAFB"/>
<path d="M96.5295 12.3308C95.4598 14.1266 94.6521 15.9224 93.896 17.7354C93.7757 18.0189 93.8616 18.4055 93.9089 18.7406C94.3729 22.1518 94.9872 25.55 95.2879 28.974C96.6455 44.3025 95.7175 59.5194 92.9165 74.6374C92.4954 76.9101 92.0143 79.1741 91.5589 81.4425C91.6362 81.4596 91.7178 81.4811 91.7952 81.4983C91.9155 81.3565 92.0487 81.2234 92.1561 81.073C92.9895 79.9088 93.8659 78.7703 94.622 77.5545C95.0602 76.8499 95.4125 76.0465 95.6015 75.2389C97.3715 67.6777 98.1835 59.9834 98.5916 52.2461C99.163 41.48 98.9224 30.7268 97.6508 20.0123C97.3501 17.4432 96.9076 14.8913 96.5295 12.3308Z" fill="#F9FAFB"/>
<path d="M91.576 29.1586C91.4471 27.6808 91.2366 26.2115 91.0648 24.7379C89.995 26.5251 89.0284 28.2994 88.4527 30.194C88.1434 31.1993 88.5 32.4065 88.573 33.5235C89.7373 51.5543 87.8169 69.2371 82.4725 86.5118C82 88.0369 82.2191 89.3558 82.6358 90.9024C83.4521 90.1979 84.1437 89.5234 84.917 88.952C85.845 88.2603 86.2574 87.3495 86.5367 86.254C88.384 79.0108 89.8146 71.6902 90.7769 64.2751C92.2763 52.5982 92.6114 40.8956 91.576 29.1586Z" fill="#F9FAFB"/>
</svg>
