<svg width="124" height="105" viewBox="0 0 124 105" fill="none" xmlns="http://www.w3.org/2000/svg">
<path d="M5.2062 56.9773C3.99901 56.6657 2.86106 56.285 1.84857 55.7571C2.29424 57.1374 3.00384 58.5609 3.00384 58.5609C4.13748 61.9618 6.3312 62.3988 7.91916 63.8527C8.60714 60.1575 8.54655 57.8383 5.2062 56.9773Z" fill="#F9FAFB"/>
<path d="M17.3602 58.5394C17.3083 53.8707 14.1713 50.6861 9.5502 50.6385C6.79831 50.6082 0.0224122 49.0722 0.0224122 50.063C-0.30643 52.0404 3.07286 53.1697 4.29304 53.464C12.5877 55.45 11.2896 57.3711 11.3199 63.3682C11.3458 68.5734 13.3276 72.9609 16.7155 75.8209C16.4516 74.7349 16.4299 73.9906 16.7155 73.5017C16.2871 72.3984 16.8929 69.6465 16.8929 69.6465C16.8929 69.6465 16.9232 69.6335 16.9664 69.6205C16.9621 69.6205 16.9535 69.6162 16.9491 69.6162C17.1741 68.6643 17.4554 67.7643 17.7929 66.9032C17.5982 66.2455 17.464 65.5359 17.4078 64.7744C17.2434 62.7062 17.3818 60.6163 17.3602 58.5394Z" fill="#F9FAFB"/>
<path d="M6.79848 47.5967C7.20953 43.4905 10.0566 41.4439 12.9643 39.3194C16.6638 36.6107 18.1219 32.8507 17.0099 28.3507C15.9195 23.9373 12.947 21.2547 8.5076 20.5624C6.17542 20.1989 3.7394 20.4975 1.00481 20.822C-0.30623 21.6917 2.69228 22.4316 3.67016 23.007C4.45765 23.47 5.45284 23.5868 6.36149 23.8465C9.01819 24.608 10.7922 26.2825 11.2335 29.0387C11.6619 31.7127 10.5888 33.8675 8.35617 35.3689C5.52639 37.2684 3.14661 39.5314 1.86586 42.7722C1.5673 43.5251 1.30337 44.291 0.978854 45.178C0.91395 45.9741 0.857703 46.8611 0.818761 47.5923C2.72691 47.5967 4.65235 47.5967 6.79848 47.5967Z" fill="#F9FAFB"/>
<path d="M24.0021 82.043C22.7949 81.7315 21.6569 81.3508 20.6444 80.8229C21.0901 82.2031 21.7997 83.6267 21.7997 83.6267C22.9333 87.0276 25.1271 87.4646 26.715 88.9184C27.403 85.2233 27.3467 82.9041 24.0021 82.043Z" fill="#F9FAFB"/>
<path d="M104.144 72.6624C104.105 71.9311 104.049 71.0441 103.984 70.248C103.66 69.361 103.392 68.5951 103.097 67.8422C101.817 64.6014 99.4368 62.3384 96.607 60.4389C94.3743 58.9375 93.2969 56.7827 93.7296 54.1087C94.171 51.3525 95.945 49.678 98.6017 48.9165C99.506 48.6568 100.501 48.54 101.293 48.077C102.271 47.5016 105.274 46.7617 103.958 45.892C101.228 45.5675 98.7921 45.2689 96.4556 45.6324C92.0119 46.3247 89.0436 49.0073 87.9533 53.4208C86.8369 57.9207 88.2951 61.6807 91.9989 64.3894C94.9022 66.5139 97.7493 68.5605 98.1647 72.6667C100.302 72.6624 102.228 72.658 104.144 72.6624Z" fill="#F9FAFB"/>
<path d="M25.5944 72.6623C26.0054 68.5561 28.8525 66.5095 31.7602 64.385C35.4597 61.6763 36.9178 57.9163 35.8058 53.4164C34.7154 49.0029 31.7429 46.3203 27.3035 45.628C24.9713 45.2645 22.5353 45.5631 19.8007 45.8876C18.4897 46.7573 21.4882 47.4972 22.4661 48.0727C23.2535 48.5357 24.2487 48.6525 25.1574 48.9121C27.8141 49.6736 29.5881 51.3481 30.0294 54.1043C30.4578 56.7783 29.3847 58.9331 27.1521 60.4345C24.3223 62.334 21.9425 64.597 20.6618 67.8378C20.3632 68.5907 20.0993 69.3566 19.7748 70.2436C19.7098 71.0397 19.6536 71.9267 19.6147 72.658C21.5228 72.658 23.4526 72.6623 25.5944 72.6623Z" fill="#F9FAFB"/>
<path d="M115.836 63.8527C117.424 62.3988 119.617 61.9618 120.751 58.5609C120.751 58.5609 121.461 57.1417 121.906 55.7571C120.894 56.285 119.756 56.6657 118.549 56.9773C115.208 57.8383 115.148 60.1575 115.836 63.8527Z" fill="#F9FAFB"/>
<path d="M117.398 23.8507C118.302 23.5911 119.297 23.4742 120.089 23.0113C121.067 22.4358 124.07 21.6959 122.754 20.8262C120.024 20.5017 117.588 20.2031 115.251 20.5666C110.808 21.2589 107.84 23.9415 106.749 28.355C105.633 32.8549 107.091 36.615 110.795 39.3236C113.698 41.4481 116.545 43.4947 116.961 47.6009C119.107 47.6009 121.032 47.5966 122.949 47.6009C122.91 46.8697 122.854 45.9826 122.789 45.1865C122.464 44.2995 122.196 43.5336 121.902 42.7808C120.621 39.5399 118.241 37.277 115.412 35.3775C113.179 33.876 112.101 31.7213 112.534 29.0473C112.967 26.2867 114.737 24.6165 117.398 23.8507Z" fill="#F9FAFB"/>
<path d="M114.204 50.6341C109.579 50.6861 106.446 53.8663 106.394 58.535C106.373 60.6119 106.511 62.7018 106.355 64.77C106.299 65.5316 106.161 66.2368 105.97 66.8989C106.308 67.7599 106.589 68.6599 106.814 69.6118C106.81 69.6118 106.801 69.6161 106.797 69.6161C106.84 69.6291 106.87 69.6421 106.87 69.6421C106.87 69.6421 107.48 72.394 107.048 73.4973C107.338 73.9863 107.312 74.7348 107.048 75.8166C110.436 72.9565 112.417 68.5734 112.443 63.3638C112.474 57.3711 111.171 55.4456 119.47 53.4596C120.686 53.1697 124.07 52.036 123.741 50.0587C123.736 49.0721 116.956 50.6039 114.204 50.6341Z" fill="#F9FAFB"/>
<path d="M97.0353 88.9184C98.6233 87.4646 100.817 87.0276 101.951 83.6267C101.951 83.6267 102.66 82.2075 103.106 80.8229C102.093 81.3508 100.956 81.7315 99.7483 82.043C96.408 82.9041 96.3517 85.2233 97.0353 88.9184Z" fill="#F9FAFB"/>
<path d="M95.4084 75.6997C90.783 75.7516 87.6503 78.9318 87.5984 83.6005C87.5767 85.6774 87.7152 87.7673 87.5594 89.8356C87.1051 95.8456 82.047 98.6581 77.8716 98.3465C77.7504 98.3768 77.5903 98.3855 77.3826 98.3638C73.6009 97.9874 70.7841 95.0927 70.7841 95.0927C69.4471 93.4485 69.101 90.8307 69.0664 88.9139C68.9322 81.052 69.4385 77.6987 69.4471 69.8324C69.4471 69.2872 69.512 68.7464 69.5467 68.2055C69.8236 66.994 72.4716 66.6132 72.476 68.2055C72.476 70.9747 72.5452 69.1271 72.463 71.8141C72.2423 79.1309 75.3447 85.1755 81.9215 88.5375L84.4614 89.6668C84.5263 89.1563 84.5609 88.6197 84.5609 88.0443C84.5609 86.5947 84.6431 85.1409 84.522 83.7001C84.4744 83.1332 84.1109 82.3803 83.6523 82.0991C80.0999 79.9227 78.447 76.79 78.5033 72.6492C78.5552 68.6166 79.3254 46.0649 79.2519 42.0366C79.2389 41.3226 78.7975 40.3145 78.5552 39.8342C77.8976 38.5145 79.8749 36.2083 81.3936 38.5145C81.6489 38.9039 81.7571 41.301 81.7874 44.4077C82.0946 43.7067 82.4321 43.0404 82.8042 42.4303C86.1748 36.9092 88.5892 31.0766 88.2041 24.4565C88.0873 22.4575 87.6503 20.4541 87.1484 18.507C87.1095 18.3556 87.0791 18.2085 87.0488 18.0614C83.8816 9.90953 76.3702 4.1245 73.7913 2.68798C67.9674 -0.0942 61.9616 -0.738909 55.666 0.857708C44.8315 3.60527 30.9726 17.434 37.2076 34.1444C38.4364 37.4414 40.2148 40.5395 41.9801 43.6289C42.0191 40.9073 42.1316 38.8693 42.3652 38.5145C43.884 36.2039 45.8613 38.5145 45.2036 39.8342C44.9657 40.3145 44.52 41.3226 44.507 42.0366C44.4811 43.3866 44.5546 46.8264 44.6585 50.9456C44.9224 53.2908 44.7926 55.2768 44.7926 55.2768C44.7883 55.2638 44.7796 55.2509 44.7753 55.2379C44.9787 62.5287 45.2253 70.4209 45.2556 72.6492C45.3118 76.79 43.659 79.9227 40.1066 82.0991C39.648 82.3803 39.2845 83.1332 39.2369 83.7001C39.1157 85.1366 39.1936 86.5947 39.1979 88.0443C39.1979 88.6197 39.2326 89.1606 39.2975 89.6668L41.8374 88.5375C48.4142 85.1755 51.5166 79.1309 51.2959 71.8141C51.2137 69.1271 51.2829 70.9747 51.2829 68.2055C51.2873 66.6132 53.931 66.994 54.2122 68.2055C54.2468 68.7464 54.3117 69.2916 54.3117 69.8324C54.3161 77.6987 54.8266 81.052 54.6925 88.9139C54.6579 90.8307 54.3161 93.4485 52.9747 95.0927C52.9747 95.0927 50.1536 97.9831 46.3762 98.3638C46.1686 98.3855 46.0085 98.3768 45.8873 98.3465C41.7162 98.6537 36.6581 95.8456 36.1994 89.8356C36.0437 87.7673 36.1821 85.6818 36.1605 83.6005C36.1086 78.9318 32.9716 75.7473 28.3505 75.6997C25.5986 75.6694 18.8227 74.1333 18.8227 75.1242C18.4939 77.1016 21.8731 78.2309 23.0933 78.5251C31.3879 80.5112 30.0899 82.4323 30.1202 88.4293C30.1591 96.5292 34.923 102.66 42.3652 104.11C51.6161 105.914 60.2482 98.948 60.3391 89.5067C60.3521 88.2606 60.3607 87.0794 60.365 85.9327C60.3477 81.7573 60.3607 78.2525 60.3694 74.1983C60.365 72.13 60.3607 69.9752 60.3607 67.5868C60.3607 67.219 60.3607 66.8512 60.3607 66.3579C60.3607 66.2714 60.378 66.1892 60.404 66.1113C60.5424 65.4839 61.2088 65.2329 61.8838 65.2762C62.5544 65.2373 63.2207 65.4839 63.3635 66.1113C63.3895 66.1892 63.4068 66.2714 63.4068 66.3579C63.4068 66.8512 63.4068 67.219 63.4068 67.5868C63.4068 69.9709 63.4025 72.13 63.3982 74.1983C63.4068 78.2525 63.4155 81.7573 63.4025 85.9327C63.4068 87.075 63.4155 88.2562 63.4284 89.5067C63.5193 98.948 72.1514 105.914 81.4023 104.11C88.8489 102.66 93.6127 96.5292 93.6473 88.4293C93.6776 82.4366 92.3753 80.5112 100.674 78.5251C101.89 78.2352 105.274 77.1016 104.945 75.1242C104.936 74.1333 98.156 75.6694 95.4084 75.6997Z" fill="#F9FAFB"/>
<path d="M80.814 91.3413C76.6256 89.2947 74.1723 85.5173 71.7103 82.4929C71.5285 85.4395 71.5156 91.337 73.0906 92.9509C73.1338 92.9855 73.1771 93.0288 73.2247 93.0764C73.2593 93.0807 73.3977 93.2235 73.6011 93.4528C74.7434 94.5302 75.5871 94.7379 75.5871 94.7379C79.3991 95.8023 82.1424 94.9975 83.5313 92.6091C82.653 92.3235 81.6188 91.9038 80.827 91.324C80.8227 91.3283 80.8184 91.3327 80.814 91.3413Z" fill="#F9FAFB"/>
<path d="M48.1678 94.7337C48.1678 94.7337 49.0115 94.526 50.1538 93.4486C50.3572 93.2236 50.4956 93.0765 50.5303 93.0722C50.5735 93.0246 50.6211 92.9856 50.6644 92.9467C52.2394 91.3328 52.2264 85.4352 52.0447 82.4886C49.587 85.5131 47.1293 89.2905 42.9409 91.3371C42.9366 91.3285 42.9323 91.3198 42.9279 91.3155C42.1361 91.8953 41.102 92.3193 40.2236 92.6006C41.6126 94.9976 44.3558 95.7981 48.1678 94.7337Z" fill="#F9FAFB"/>
</svg>
