<svg width="123" height="81" viewBox="0 0 123 81" fill="none" xmlns="http://www.w3.org/2000/svg">
<path d="M31.0069 48.9241C44.4201 57.8939 59.6229 61.5727 75.8506 59.4674C79.8674 58.9466 83.3966 58.6308 86.4604 57.8828C88.1225 57.3288 86.3441 52.2649 85.9064 47.9102C85.502 43.9156 86.4937 40.0982 85.513 39.5387C75.6179 28.2751 30.7132 35.8543 22.7462 37.3835C21.9761 37.533 19.422 37.9375 17.2058 38.4915C16.3581 38.5026 16.4357 43.8712 17.7599 43.4779C22.314 44.0596 26.4748 45.8935 31.0069 48.9241Z" fill="#F9FAFB"/>
<path d="M87.4689 35.3945C88.3886 35.8544 90.5493 32.5467 92.5549 29.627C94.3943 26.951 96.1672 24.6794 95.4137 24.2085C71.8062 13.8148 39.7053 19.3773 23.8543 34.0593C63.5068 24.0478 83.0366 32.5246 87.4689 35.3945Z" fill="#F9FAFB"/>
<path d="M44.9132 80.0443C47.1294 82.2604 51.5727 77.0137 53.7778 75.058C48.4369 73.2407 41.035 71.1797 33.8325 67.3015C37.057 71.2517 41.927 76.3877 44.9132 80.0443Z" fill="#F9FAFB"/>
<path d="M39.0183 20.9285C48.448 16.7954 58.2212 14.884 68.7313 14.6125C70.3989 14.1139 63.3627 4.37389 58.2101 0.26294C56.5757 -1.09999 51.7611 3.06637 46.5753 7.46542C41.2012 12.0251 34.9406 15.2219 36.0486 17.9921C36.7523 19.2664 37.1567 21.3164 39.0183 20.9285Z" fill="#F9FAFB"/>
<path d="M6.96178 29.7544C5.4271 28.6186 -0.517719 25.7487 0.0363181 27.9648C-0.0911104 28.0923 5.85925 40.2534 5.02265 47.3561C3.77607 57.9271 -0.999731 66.9025 1.69843 66.1934C4.68469 65.2681 6.52963 62.5866 8.34687 60.3982C8.72916 59.9439 9.09482 59.4729 9.45495 58.9964V58.9909C13.8872 52.3425 13.8762 45.14 13.8872 45.14C13.8872 39.5996 12.7792 34.0592 6.96178 29.7544Z" fill="#F9FAFB"/>
<path d="M72.6206 63.8997C56.3264 65.1573 41.2122 60.9411 27.7325 51.8716C24.3197 49.5723 20.9068 48.2869 17.4108 47.7772C16.0978 47.3617 15.8152 52.7635 17.2058 52.348C19.494 52.2871 21.134 53.4062 23.5828 55.5282C39.2177 69.0855 57.4012 74.1882 77.8285 71.8612C77.8285 71.8612 86.948 70.0273 91.4191 68.67C91.5077 68.6423 91.5853 68.6256 91.6684 68.6035C93.0036 68.1215 94.3721 67.6339 95.8846 67.0854C97.0592 66.6145 94.6934 65.0576 93.12 63.4288C91.7238 61.9883 91.2473 60.4092 90.0783 60.6807C84.1279 61.811 78.4214 63.4509 72.6206 63.8997Z" fill="#F9FAFB"/>
<path d="M102.461 27.494C101.032 26.674 100.007 26.7516 98.7434 27.7544C92.9482 32.3473 89.9453 38.2866 89.7735 45.6664C89.9508 53.0738 92.8983 59.0962 98.821 63.5174C99.6132 64.1102 101.331 64.2931 102.173 63.8388C109.835 59.7278 116.301 54.1487 121.714 47.334C122.711 46.0764 122.661 45.2065 121.692 43.9821C116.351 37.2339 109.924 31.7822 102.461 27.494Z" fill="#F9FAFB"/>
</svg>
