<svg width="98" height="104" viewBox="0 0 98 104" fill="none" xmlns="http://www.w3.org/2000/svg">
<path d="M72.6134 18.2577C54.848 18.9395 40.4666 26.4017 29.8688 40.6695C27.7476 43.5273 25.58 44.8952 22.1078 45.316C16.7626 45.96 1.23212 50.0846 2.49476 51.7681C3.33652 53.8725 15.4873 51.3936 19.7719 51.12C19.8897 51.1116 20.0118 51.1031 20.1296 51.0947C20.5 51.0737 20.8283 51.0821 21.1187 51.12C22.8022 51.3304 23.2694 51.6671 22.6675 53.6789C21.5606 57.3658 19.2121 61.1453 18.0673 64.8154C14.111 77.4797 16.3838 79.5462 26.5691 87.1263C29.7467 89.4874 38.6904 104.378 40.374 103.957C42.4784 103.536 37.6593 89.479 39.5575 86.4697C41.443 83.4814 48.7916 78.2836 47.5289 76.6001C46.6872 74.4957 38.2485 79.7693 34.4816 81.2297C30.0919 82.9343 27.3604 81.4191 25.6432 77.0209C22.8022 69.7439 27.1836 62.1933 34.4816 58.9231C41.2831 55.8759 46.2621 53.2707 53.0845 50.2782C53.7622 49.9794 54.444 49.689 55.1216 49.3902C66.1066 44.5164 76.738 38.9061 84.7347 29.6888C85.2524 29.0911 85.7322 28.4598 86.4772 27.5339C92.5967 21.3932 91.9781 18.224 91.9781 18.224C85.5091 18.2198 79.0528 18.0136 72.6134 18.2577Z" fill="#F9FAFB"/>
<path d="M51.7419 55.5561C61.843 56.3979 77.4156 67.7617 76.9947 63.9737C77.4156 62.2902 68.3203 55.8634 64.3683 53.0309C61.359 50.8717 54.2377 53.0645 51.7419 55.5561Z" fill="#F9FAFB"/>
<path d="M10.0747 55.9771C10.1294 60.9393 11.7582 77.8629 13.4417 71.1288C14.2835 64.3947 15.1253 61.0277 19.3341 54.2936C16.9266 54.4956 12.3811 55.7793 10.0747 55.9771Z" fill="#F9FAFB"/>
<path d="M94.8781 5.17674C82.1885 5.16832 69.4948 5.06311 56.8095 5.21463C36.9187 5.45032 19.0481 18.6197 12.7686 37.5003C12.1373 39.3901 11.7122 41.3514 11.1819 43.3127C15.3023 42.4162 19.1323 41.6502 22.9118 40.7074C23.8714 40.4675 24.9657 39.8615 25.5381 39.0828C33.539 28.1484 43.88 20.421 56.8768 16.5573C61.8011 15.0927 67.3146 14.0826 76.8013 13.889C81.2121 13.889 85.6229 13.889 90.0337 13.889C95.2863 13.889 95.2863 13.889 97.336 8.91415C98.3924 6.36362 97.6348 5.18095 94.8781 5.17674Z" fill="#F9FAFB"/>
<path d="M13.8628 26.0946C19.9655 16.4185 25.6474 13.0473 30.698 9.25936C24.8056 5.47144 15.5463 0.84176 0.815484 0C-3.39332 0 9.91491 16.1239 12.8358 23.0221C13.122 23.5651 13.6692 25.7705 13.8628 26.0946Z" fill="#F9FAFB"/>
</svg>
