<svg width="117" height="104" viewBox="0 0 117 104" fill="none" xmlns="http://www.w3.org/2000/svg">
<path d="M95.1913 4.32471C100.395 1.95915 73.4281 -1.82574 64.439 1.01293C76.2668 4.79783 81.9441 9.05584 87.1484 12.8407C87.1484 6.69028 91.0563 5.89072 95.1913 4.32471Z" fill="#F9FAFB"/>
<path d="M61.1271 35.5503C58.2743 34.1262 52.138 31.2923 47.88 31.2923C52.6111 35.5503 57.8154 50.6899 59.7078 51.163C61.6003 51.6361 64.0936 44.1562 63.9658 42.1739C63.8381 40.201 63.9658 36.9696 61.1271 35.5503Z" fill="#F9FAFB"/>
<path d="M89.987 54.9477C87.7586 47.9125 83.1505 40.319 77.9841 34.6843C73.9296 30.2607 69.0944 26.93 63.5495 24.6306C63.1615 24.4698 62.6884 24.3799 62.3431 24.1764C60.233 23.481 53.0653 21.281 46.5884 21.0965C45.7463 21.0728 45.1076 21.0066 44.6297 20.9167C43.0259 20.8315 41.422 20.7795 39.8182 20.8079C36.7571 20.8552 33.7907 21.2621 30.9142 21.9717C30.9142 21.9575 30.9142 21.9481 30.9142 21.9481C30.9142 21.9481 30.7439 22.0001 30.4316 22.0995C27.9194 22.7524 25.4734 23.6324 23.0889 24.7158C17.5582 26.859 9.62889 30.2701 1.03717 35.0722C1.03717 35.0722 1.98339 36.0184 3.87584 35.5453C5.76356 35.0722 16.5742 30.3742 23.6756 28.9359C46.3755 24.8908 66.0428 30.2985 81.8968 47.7516C84.7023 50.8363 90.9332 62.9811 93.2988 69.6047C92.9392 68.1711 90.4317 56.3528 89.987 54.9477Z" fill="#F9FAFB"/>
<path d="M108.765 92.6785C108.334 92.3332 107.89 92.002 107.416 91.7228C102.056 88.5199 99.6385 84.2193 101.701 77.8465C102.293 76.0155 102.34 74.019 102.586 72.0698C102.529 71.9562 102.496 71.8852 102.496 71.8852C102.496 71.8852 103.367 66.8419 103.258 59.8918C103.149 58.3874 103.106 56.8734 103.045 55.3642C103.04 55.3121 103.035 55.2648 103.035 55.2128C102.979 54.4889 102.95 53.8833 102.946 53.3866C102.898 52.6201 102.837 51.8537 102.752 51.0872C100.935 35.3089 94.8742 21.6265 81.5892 12.2542C63.9327 -0.193409 44.7763 -2.7151 24.7258 5.79619C16.6072 9.24045 11.5449 13.9858 9.56259 22.7809C9.35442 23.694 7.51875 25.9366 6.72392 26.5658C5.17211 27.7912 -0.84588 31.2969 0.100344 33.6625C0.100344 33.6625 9.29292 28.5529 12.1127 26.8639C17.7427 23.4906 23.439 20.3633 29.8686 18.75C36.1562 17.1745 42.4676 16.9049 48.7978 17.5672C52.0859 17.7612 62.7688 18.7973 70.419 24.2618C80.7991 30.398 87.3896 39.7562 91.4205 51.2481C94.6329 60.4028 95.9766 69.8982 96.2888 79.5497C96.4308 83.8881 94.2213 86.2253 89.8639 86.1496C84.0731 86.0502 78.7505 87.2046 74.2181 91.0321C73.9768 91.2355 73.7356 91.439 73.5179 91.6661C73.4186 91.7702 73.3807 91.9405 73.13 92.4751C78.0929 90.6867 82.2942 92.2054 86.5332 94.325C89.2536 95.6875 91.5198 93.814 93.5779 92.196C96.0428 90.2562 97.4574 90.5779 98.5455 93.4828C99.875 97.0406 101.957 99.2406 106.234 99.0655C110.127 98.9047 113.524 100.636 116.292 103.536C114.986 99.0372 112.323 95.5456 108.765 92.6785Z" fill="#F9FAFB"/>
</svg>
