<svg width="127" height="104" viewBox="0 0 127 104" fill="none" xmlns="http://www.w3.org/2000/svg">
<path d="M63.1731 76.3663C59.2631 76.3663 55.3477 76.3343 51.4377 76.377C49.4987 76.3984 48.0298 75.6666 46.8868 74.1122C43.3026 69.2514 39.7077 64.3959 36.0861 59.5618C34.6813 57.687 34.521 55.764 35.9793 53.9372C40.0495 48.8413 44.5738 44.2423 50.3053 40.9519C58.0773 36.4917 65.9294 36.2353 73.931 40.2842C80.0951 43.409 84.9025 48.0722 89.0262 53.5152C90.228 55.1016 90.399 56.7575 89.352 58.4668C86.2059 63.6161 83.0597 68.76 79.8761 73.8879C78.8131 75.6025 77.2374 76.3984 75.1756 76.3717C71.1747 76.3289 67.1739 76.3663 63.1731 76.3663Z" fill="#F9FAFB"/>
<path d="M43.6924 8.74234C44.3922 14.1907 42.8378 18.8112 39.6916 22.9402C35.7602 28.0948 30.376 31.3211 24.6445 34.0613C22.2622 35.199 19.9974 36.3528 17.364 34.2749C16.1194 33.2921 14.2712 33.415 12.8237 34.3925C11.9583 34.9747 11.5791 35.0815 11.1891 33.917C6.43517 19.6765 14.7359 4.08986 29.2863 0.0409697C29.5961 -0.044495 29.9486 0.0302762 30.643 0.0302762C28.7094 2.87732 28.64 5.79915 28.4797 8.84383C28.2126 13.8275 25.622 17.9031 22.0485 21.3057C21.1137 22.1977 19.8692 23.0363 21.0924 24.3076C22.2622 25.5201 23.3839 24.4091 24.308 23.5972C26.1935 21.9413 27.6625 19.9329 28.859 17.7375C29.8418 15.9321 31.3909 14.8103 33.3512 14.9118C38.1746 15.1682 41.8336 13.6672 43.6924 8.74234Z" fill="#F9FAFB"/>
<path d="M25.5153 45.3266C28.4906 45.8928 31.8397 48.6117 34.0618 50.6682C34.5212 51.0902 33.33 51.4053 33.0843 51.7579C32.8279 52.1211 32.6356 52.5645 32.3044 52.8262C31.2842 53.6274 32.3899 56.9231 30.3227 56.5492C27.2727 55.9937 22.711 53.8411 21.2421 50.6735C20.2432 48.5049 23.2078 45.2999 25.5153 45.3266Z" fill="#F9FAFB"/>
<path d="M21.7762 42.6558C21.0284 43.8523 19.2923 45.5136 18.208 46.4163C17.6098 46.9184 16.5521 45.6685 15.7723 45.1183C14.2392 44.0393 13.3792 43.863 12.3644 42.2606C11.3762 40.7008 11.5151 40.3803 12.8451 39.0129C14.2125 37.6027 16.6643 37.4371 18.0371 38.3773C20.1684 39.8515 20.9963 40.0812 21.7762 42.6558Z" fill="#F9FAFB"/>
<path d="M44.0879 76.4571C44.7396 76.8417 45.0814 77.675 44.7396 77.91C42.432 79.5285 38.4686 81.5903 36.1931 83.2515C35.3171 83.8925 34.5479 82.9524 33.939 81.9215C33.4529 81.0989 31.3376 79.8917 32.454 78.9783C34.5052 77.3064 37.395 75.4422 39.4301 73.7596C40.023 73.2682 41.3637 73.2148 42.0902 73.8878C42.854 74.5876 43.3882 75.5277 44.0879 76.4571Z" fill="#F9FAFB"/>
<path d="M39.5956 70.8163C34.5959 74.1708 33.0041 73.2254 29.7885 74.1708C28.3997 74.5768 27.6786 73.2895 27.3047 72.109C26.9682 71.0353 26.402 69.1551 27.6519 68.8293C30.2425 68.1616 33.3299 67.4725 36.3159 68.1616C37.8542 68.5195 38.9332 69.0109 39.5956 70.8163Z" fill="#F9FAFB"/>
<path d="M23.9128 70.966C23.9289 71.1423 25.0399 74.5609 24.9811 74.7051C24.7354 75.3087 15.9005 78.4442 15.9005 76.8417C15.9005 75.2392 14.6399 73.6688 15.6014 73.2629C17.0489 72.6486 18.598 72.2533 20.0135 71.5803C22.0059 70.6295 23.5549 69.8229 23.9128 70.966Z" fill="#F9FAFB"/>
<path d="M3.70032 54.0975C4.68316 46.395 5.53782 52.5165 7.35395 54.9469C8.61455 56.6401 9.42647 57.2704 10.5589 57.6176C11.2533 57.8313 13.2297 57.5642 13.2297 60.2884C13.2297 61.8909 10.5482 61.4155 10.0247 61.3567C5.81558 60.8706 4.16503 58.2533 3.70032 54.0975Z" fill="#F9FAFB"/>
<path d="M26.0494 90.1956C24.9811 90.7298 24.0463 89.3891 23.9128 89.1273C23.6083 88.5291 22.305 88.0003 22.8445 87.5249C24.3081 86.2429 25.4939 84.8541 27.1177 83.7858C29.2437 82.3917 29.5001 81.8949 31.391 83.7858C32.9934 85.3883 32.048 85.8797 31.391 86.4566C29.6176 88.011 28.0525 88.7695 26.0494 90.1956Z" fill="#F9FAFB"/>
<path d="M17.5029 102.481C11.6272 97.6737 14.298 94.4687 19.1054 90.7297C20.6277 89.5492 20.9589 90.8846 21.242 91.2638C21.7334 91.9208 22.6468 92.5298 22.3103 92.8663C18.6033 96.5733 17.5029 98.2078 18.5712 101.413C20.0134 105.739 18.7475 103.475 17.5029 102.481Z" fill="#F9FAFB"/>
<path d="M0.410026 78.4441C-1.19244 75.2392 2.37037 76.9538 3.0808 76.8416C6.57417 76.2968 7.88285 75.6985 10.559 74.705C11.1305 74.4913 12.5193 75.6024 12.6956 76.3075C12.8291 76.8416 12.6422 78.2678 12.1614 78.4441C8.71613 79.694 3.0808 83.2515 0.410026 78.4441Z" fill="#F9FAFB"/>
<path d="M22.8445 64.0219C21.4557 63.8082 18.3523 63.2099 16.9688 62.9535C16.0982 62.7933 15.6708 62.0455 15.9005 60.8169C16.0982 59.7486 16.7018 58.5895 17.503 58.6803C18.8971 58.8406 21.4451 59.1237 22.8445 59.2145C24.0143 59.2892 24.009 60.9077 23.9556 62.0028C23.8861 63.3649 23.5763 64.0486 22.8445 64.0219Z" fill="#F9FAFB"/>
<path d="M34.9378 64.5403C32.9614 64.7806 31.1667 64.7165 29.2544 64.5563C28.1807 64.4655 27.075 62.7188 27.1178 61.8855C27.1712 60.8439 27.3955 59.1987 28.1861 59.2147C30.6485 59.2681 32.9935 59.7489 34.9378 64.5403Z" fill="#F9FAFB"/>
<path d="M82.9101 8.74234C82.2104 14.1907 83.7648 18.8112 86.9109 22.9402C90.8423 28.0948 96.2266 31.3211 101.958 34.0613C104.34 35.199 106.605 36.3528 109.239 34.2749C110.483 33.2921 112.331 33.415 113.779 34.3925C114.644 34.9747 115.023 35.0815 115.413 33.917C120.167 19.6765 111.867 4.08986 97.3162 0.0409697C97.0064 -0.044495 96.6539 0.0302762 95.9595 0.0302762C97.8931 2.87732 97.9626 5.79915 98.1228 8.84383C98.3899 13.8275 100.981 17.9031 104.554 21.3057C105.489 22.1977 106.733 23.0363 105.51 24.3076C104.34 25.5201 103.219 24.4091 102.295 23.5972C100.409 21.9413 98.9401 19.9329 97.7436 17.7375C96.7607 15.9321 95.2117 14.8103 93.2513 14.9118C88.4333 15.1682 84.769 13.6672 82.9101 8.74234Z" fill="#F9FAFB"/>
<path d="M101.087 45.3266C98.1123 45.8928 94.7631 48.6117 92.541 50.6682C92.0816 51.0902 93.2728 51.4053 93.5185 51.7579C93.7749 52.1211 93.9672 52.5645 94.2984 52.8262C95.3186 53.6274 94.2129 56.9231 96.2801 56.5492C99.3301 55.9937 103.892 53.8411 105.361 50.6735C106.36 48.5049 103.395 45.2999 101.087 45.3266Z" fill="#F9FAFB"/>
<path d="M104.826 42.6558C105.574 43.8523 107.31 45.5136 108.395 46.4163C108.993 46.9184 110.051 45.6685 110.83 45.1183C112.363 44.0393 113.223 43.863 114.238 42.2606C115.226 40.7008 115.088 40.3803 113.758 39.0129C112.39 37.6027 109.938 37.4371 108.566 38.3773C106.434 39.8515 105.606 40.0812 104.826 42.6558Z" fill="#F9FAFB"/>
<path d="M82.5148 76.4571C81.8632 76.8417 81.5213 77.675 81.8632 77.91C84.1707 79.5285 88.1342 81.5903 90.4097 83.2515C91.2857 83.8925 92.0548 82.9524 92.6638 81.9215C93.1499 81.0989 95.2651 79.8917 94.1488 78.9783C92.0976 77.3064 89.2078 75.4422 87.1727 73.7596C86.5798 73.2682 85.2391 73.2148 84.5126 73.8878C83.7488 74.5876 83.2146 75.5277 82.5148 76.4571Z" fill="#F9FAFB"/>
<path d="M87.0072 70.8163C92.0069 74.1708 93.5987 73.2254 96.8143 74.1708C98.2031 74.5768 98.9242 73.2895 99.2981 72.109C99.6346 71.0353 100.201 69.1551 98.9509 68.8293C96.3602 68.1616 93.2728 67.4725 90.2869 68.1616C88.7486 68.5195 87.6696 69.0109 87.0072 70.8163Z" fill="#F9FAFB"/>
<path d="M102.69 70.966C102.674 71.1423 101.563 74.5609 101.622 74.7051C101.867 75.3087 110.702 78.4442 110.702 76.8417C110.702 75.2392 111.963 73.6688 111.001 73.2629C109.554 72.6486 108.005 72.2533 106.589 71.5803C104.602 70.6295 103.048 69.8229 102.69 70.966Z" fill="#F9FAFB"/>
<path d="M122.902 54.0975C121.919 46.395 121.065 52.5165 119.249 54.9469C117.988 56.6401 117.176 57.2704 116.044 57.6176C115.349 57.8313 113.373 57.5642 113.373 60.2884C113.373 61.8909 116.054 61.4155 116.578 61.3567C120.787 60.8706 122.438 58.2533 122.902 54.0975Z" fill="#F9FAFB"/>
<path d="M100.553 90.1956C101.622 90.7298 102.556 89.3891 102.69 89.1273C102.994 88.5291 104.298 88.0003 103.758 87.5249C102.295 86.2429 101.109 84.8541 99.4849 83.7858C97.359 82.3917 97.1026 81.8949 95.2117 83.7858C93.6092 85.3883 94.5547 85.8797 95.2117 86.4566C96.9851 88.011 98.5501 88.7695 100.553 90.1956Z" fill="#F9FAFB"/>
<path d="M109.1 102.481C114.976 97.6737 112.305 94.4687 107.497 90.7297C105.975 89.5492 105.644 90.8846 105.361 91.2638C104.869 91.9208 103.956 92.5298 104.292 92.8663C107.999 96.5733 109.1 98.2078 108.032 101.413C106.589 105.739 107.855 103.475 109.1 102.481Z" fill="#F9FAFB"/>
<path d="M126.193 78.4441C127.795 75.2392 124.232 76.9538 123.522 76.8416C120.029 76.2968 118.72 75.6985 116.044 74.705C115.472 74.4913 114.083 75.6024 113.907 76.3075C113.774 76.8416 113.961 78.2678 114.441 78.4441C117.887 79.694 123.522 83.2515 126.193 78.4441Z" fill="#F9FAFB"/>
<path d="M103.758 64.0219C105.147 63.8082 108.25 63.2099 109.634 62.9535C110.505 62.7933 110.932 62.0455 110.702 60.8169C110.505 59.7486 109.901 58.5895 109.1 58.6803C107.706 58.8406 105.158 59.1237 103.758 59.2145C102.588 59.2892 102.594 60.9077 102.647 62.0028C102.717 63.3649 103.026 64.0486 103.758 64.0219Z" fill="#F9FAFB"/>
<path d="M91.6651 64.5403C93.6415 64.7806 95.4362 64.7165 97.3485 64.5563C98.4222 64.4655 99.5279 62.7188 99.4851 61.8855C99.4317 60.8439 99.2074 59.1987 98.4168 59.2147C95.9544 59.2681 93.6094 59.7489 91.6651 64.5403Z" fill="#F9FAFB"/>
</svg>
