<svg width="105" height="104" viewBox="0 0 105 104" fill="none" xmlns="http://www.w3.org/2000/svg">
<path d="M22.0884 90.1475C31.6256 92.9068 41.0694 92.4484 50.5799 89.3732C50.4241 91.8031 50.2817 94.0505 50.126 96.5116C40.1259 97.2059 30.6643 95.7729 22.0884 90.1475Z" fill="#F9FAFB"/>
<path d="M102.948 57.8197C102.859 58.327 102.797 58.8655 102.583 59.3239C100.643 63.5295 98.7244 67.7441 96.7262 71.9186C96.5704 72.1722 96.4146 72.4303 96.2455 72.7107C89.1249 84.7268 79.779 89.1772 79.779 89.1772C79.779 89.1772 79.7567 89.195 79.7211 89.2262C75.6001 91.6339 71.3366 93.6677 67.1799 94.6067C66.6191 90.5124 66.0139 86.6049 65.6089 82.6752C65.5154 81.7807 65.8937 80.6236 66.4634 79.907C69.3072 76.3156 72.4136 72.9243 75.1862 69.2795C82.1822 60.0849 91.8307 56.6625 102.926 56.6848C102.988 57.1343 102.983 57.6194 102.948 57.8197Z" fill="#F9FAFB"/>
<path d="M104.31 49.2171C104.296 48.9456 104.265 48.7142 104.212 48.5006C104.176 48.3582 104.136 48.2246 104.083 48.1045C103.994 47.9087 103.878 47.744 103.731 47.6016C103.624 47.4992 103.5 47.4147 103.362 47.339C103.273 47.2901 103.179 47.2455 103.077 47.2055C102.681 47.0497 102.187 46.9518 101.568 46.894C89.6989 45.7814 79.1336 48.9946 69.8946 56.5291C67.6516 58.3582 65.5109 60.312 63.2101 62.0565C53.2145 69.6356 42.4445 72.1901 31.0559 69.4308C30.2103 69.2261 29.3647 68.9902 28.5147 68.7277C27.6646 68.4651 26.8102 68.1714 25.9557 67.8509C25.5285 67.6907 25.0968 67.5216 24.6695 67.3481C23.1297 66.7205 21.7056 65.9862 20.4016 65.1495C18.6793 64.0458 17.1706 62.7641 15.8622 61.3133C15.7954 61.2376 15.7287 61.1575 15.6619 61.0774C15.159 60.4989 14.6917 59.8981 14.2511 59.2661C14.0642 58.9991 13.8862 58.7276 13.7126 58.4517C12.6757 56.8095 11.8434 55.0026 11.2248 53.04C10.9934 52.3101 10.7931 51.558 10.6196 50.7836C10.4727 50.125 10.3392 49.4619 10.2368 48.772C10.0633 47.6327 9.98317 46.5112 9.98762 45.4075C10.001 40.6233 11.572 36.1729 13.944 31.945C14.398 31.1395 14.8163 30.3251 15.1991 29.5062H15.2035C15.2035 29.5062 16.592 26.8716 18.3722 26.4265C19.2356 26.2085 21.0424 26.4265 23.2988 25.8346C23.3389 25.8257 23.3745 25.8035 23.4101 25.7857C23.7171 25.7234 24.0242 25.6566 24.3268 25.5854C24.3446 25.581 24.358 25.5765 24.3758 25.5721C24.6695 25.5008 24.9633 25.4252 25.257 25.3451C25.2748 25.3406 25.2926 25.3362 25.3104 25.3273C25.5997 25.2472 25.8889 25.1582 26.1782 25.0692C26.1871 25.0647 26.196 25.0647 26.2049 25.0603C27.6557 24.593 29.0354 23.9877 30.3527 23.2489C30.3927 23.2267 30.4328 23.2044 30.4773 23.1822C30.6776 23.0709 30.8734 22.9508 31.0648 22.8306C31.1538 22.7772 31.2428 22.7238 31.3318 22.6659C31.5054 22.5591 31.6745 22.4434 31.8436 22.3322C31.9548 22.2565 32.0661 22.1853 32.1729 22.1096C32.3287 22.0028 32.48 21.8916 32.6358 21.7803C32.7604 21.6913 32.8805 21.5978 33.0051 21.5088C33.1476 21.402 33.2855 21.2952 33.4235 21.1839C33.557 21.0771 33.6905 20.9703 33.824 20.8591C33.9531 20.7523 34.0777 20.6499 34.2068 20.5386C34.3492 20.414 34.496 20.285 34.6384 20.1604C34.7497 20.058 34.8654 19.9601 34.9767 19.8577C35.1413 19.7064 35.3016 19.5462 35.4618 19.3904C35.5508 19.3014 35.6398 19.2169 35.7288 19.1279C35.978 18.8786 36.2228 18.625 36.4631 18.3624C36.4676 18.3579 36.4676 18.3579 36.472 18.3535C31.9281 14.9133 27.0416 13.1109 21.6388 13.3779C17.629 13.5782 14.9142 12.2342 12.738 8.85632C9.92977 4.51272 5.86654 1.61105 0.788627 0C0.637313 0.493995 0.517152 0.832227 0.432594 1.17936C0.325784 1.61105 0.214524 2.04719 0.17002 2.48333C-0.212716 6.12376 0.049859 9.51053 0.966643 12.6392C2.23501 16.9605 4.75839 20.7879 8.63915 24.0812C9.08419 24.4595 9.44022 24.7843 9.71615 25.0736C9.83186 25.1982 9.92977 25.3139 10.0188 25.4296C10.2769 25.7679 10.4193 26.075 10.446 26.3998C10.5083 27.0985 10.0722 27.8818 9.27111 29.2392C7.10376 32.9241 4.74059 36.6402 3.46332 40.6634C2.6489 43.2268 2.03474 45.7636 1.64311 48.2602C1.38053 49.9247 1.22032 51.5713 1.16246 53.2002C1.14911 53.6052 1.14021 54.0146 1.14021 54.4196C1.13576 56.0396 1.24257 57.6328 1.46509 59.2082C1.51849 59.5999 1.5808 59.9915 1.65201 60.3832C1.77662 61.0863 1.93238 61.7895 2.10595 62.4837C2.24391 63.0356 2.39967 63.5875 2.57324 64.1304C2.75126 64.6956 2.94263 65.2564 3.15625 65.8127C3.38322 66.4046 3.62799 66.9965 3.89056 67.5795C4.11753 68.0735 4.35341 68.5675 4.61153 69.057C5.18118 70.1518 5.82649 71.2288 6.54746 72.288C6.68987 72.4972 6.83673 72.7063 6.9836 72.9155C7.36633 73.4451 7.76242 73.9703 8.18521 74.491C8.54124 74.9316 8.91062 75.3721 9.29781 75.8038C9.86746 76.4447 10.4727 77.0766 11.1091 77.7042C11.1136 77.7086 11.118 77.7131 11.1225 77.7175C11.5008 78.0869 11.879 78.4385 12.2618 78.7856C12.8448 79.3108 13.4322 79.8092 14.0241 80.2854C16.0624 81.9187 18.1719 83.2494 20.3393 84.2997C20.5751 84.4154 20.8155 84.5266 21.0513 84.6334C23.4902 85.7416 26.0046 86.5115 28.5814 86.9655C28.6971 86.9877 28.8129 87.0055 28.9241 87.0233C31.2472 87.406 33.6193 87.544 36.0359 87.4461C36.8592 87.4149 37.687 87.3571 38.5192 87.2725C41.8526 86.9343 45.2616 86.1911 48.724 85.0963C50.3484 84.5845 51.2296 84.3175 51.639 83.9481C51.6702 83.9214 51.7013 83.8902 51.7236 83.8591C51.8793 83.6811 51.9416 83.4719 51.9372 83.2049C51.9238 82.6664 51.639 81.8742 51.3008 80.5569C51.2963 80.5435 51.3008 80.5302 51.2963 80.5213C51.1139 79.6979 51.8037 78.2249 52.5335 77.7487C53.4236 77.1657 54.5229 77.4594 55.0703 78.3094C55.1949 78.5052 55.2928 78.7322 55.3506 78.9814C55.4931 79.5956 55.631 80.2142 55.7556 80.8328C55.9693 81.9053 56.1473 82.9912 56.2452 84.0727C56.2496 84.1216 56.2541 84.1706 56.2585 84.2196C56.303 84.7803 56.3297 85.3411 56.3253 85.9018C56.3253 86.1288 56.3075 86.3513 56.2808 86.5738C56.0894 88.1448 55.3551 89.698 55.097 91.2913C54.8745 92.662 54.7632 94.0149 54.781 95.3545C54.7943 96.427 54.8923 97.4862 55.0881 98.541C55.137 98.8035 55.1904 99.0661 55.2527 99.3287C55.3952 99.9473 55.5776 100.557 55.7912 101.167C56.1206 102.11 56.5345 103.04 57.0463 103.966C59.9034 100.94 61.6569 96.8053 62.0841 92.4751C62.2532 90.7439 62.2087 88.977 61.9373 87.2414C61.7993 86.3736 61.6079 85.5102 61.3543 84.6646C61.0294 83.5787 60.8781 82.5596 60.9048 81.5983C60.9626 79.4888 61.8883 77.6775 63.7753 76.0976C64.9101 75.1496 66.0761 74.2417 67.2911 73.2715C67.2911 73.2715 68.6574 72.2702 70.8826 68.2648C71.9996 66.2532 73.228 64.5799 74.1759 63.4094C75.1416 62.3769 76.1474 61.4335 77.1933 60.5612C77.1977 60.5567 77.1977 60.5567 77.2022 60.5523C77.4514 60.3431 77.7051 60.1428 77.9587 59.9426C77.981 59.9248 78.0077 59.907 78.0299 59.8892C78.2836 59.6933 78.5373 59.4975 78.7954 59.3106C78.7999 59.3062 78.7999 59.3062 78.8043 59.3017C79.868 58.5229 80.9717 57.8197 82.1065 57.1833C82.1332 57.17 82.1599 57.1522 82.1866 57.1388C82.4447 56.9964 82.7029 56.8584 82.961 56.7249C83.0144 56.6982 83.0634 56.6715 83.1168 56.6448C83.3704 56.5113 83.6286 56.3867 83.8867 56.2621C83.9267 56.2398 83.9712 56.222 84.0157 56.1998C85.1239 55.6702 86.2587 55.2029 87.4203 54.789C87.5093 54.7578 87.5939 54.7267 87.6829 54.6955C87.9187 54.6154 88.1546 54.5353 88.3905 54.4597C88.5018 54.4241 88.6086 54.3885 88.7198 54.3529C88.9468 54.2816 89.1782 54.2104 89.4096 54.1437C89.5253 54.1081 89.6411 54.0769 89.7568 54.0458C89.9882 53.979 90.2196 53.9123 90.4555 53.85C90.54 53.8277 90.6246 53.8055 90.7092 53.7877C91.1631 53.6719 91.6259 53.5607 92.0888 53.4583C92.2267 53.4272 92.3603 53.396 92.4982 53.3649C92.6985 53.3204 92.9032 53.2803 93.1079 53.2403C93.277 53.2046 93.4462 53.1735 93.6153 53.1423C93.8111 53.1067 94.0025 53.0711 94.1983 53.04C94.3807 53.0088 94.5677 52.9777 94.7501 52.9465C94.937 52.9154 95.124 52.8887 95.3109 52.8575C95.5156 52.8264 95.7203 52.7997 95.9295 52.773C96.0986 52.7507 96.2722 52.724 96.4413 52.7062C96.7306 52.6706 97.0243 52.635 97.318 52.6038C97.4782 52.586 97.6384 52.5682 97.7987 52.5549C98.1013 52.5237 98.4084 52.497 98.7154 52.4703C98.8623 52.457 99.0136 52.4481 99.1605 52.4392C99.4097 52.4214 99.6589 52.4036 99.9082 52.3858C100.064 52.3769 100.224 52.368 100.38 52.3591C100.629 52.3457 100.874 52.3324 101.123 52.3235C101.274 52.319 101.43 52.3101 101.582 52.3057C101.853 52.2968 102.124 52.2879 102.396 52.2834C102.525 52.279 102.659 52.279 102.788 52.2745C103.188 52.2701 103.593 52.2656 103.998 52.2656C104.092 51.7405 104.163 51.2687 104.216 50.8415C104.27 50.4142 104.301 50.036 104.314 49.6933C104.314 49.5242 104.314 49.3639 104.31 49.2171Z" fill="#F9FAFB"/>
</svg>
