<svg width="116" height="158" viewBox="0 0 116 158" fill="none" xmlns="http://www.w3.org/2000/svg">
<g clip-path="url(#clip0_561_2673)">
<path d="M115.47 31.5C115.47 27.94 114.17 25.35 111.02 23.88C93.72 15.82 77.7 5 59 0H56C53 1.4 49.49 1 46.48 2.46C32.72 9.25 19.14 16.46 5.14 22.74C1.38 24.44 0 27.29 0 31.44C0.113333 55.92 0.113333 80.4067 0 104.9C0 123.62 8.39 137.8 23 148.7C25.48 150.55 28.38 152.79 31.6 151.28C35.08 149.66 34.17 145.89 34.18 142.85C34.26 123.49 34.18 104.13 34.23 84.77C34.23 78.66 35.59 73 39.39 68.04C42.1706 64.5066 45.9258 61.8657 50.1913 60.4439C54.4568 59.0221 59.0455 58.8816 63.39 60.04C71.93 62.25 78.84 69.83 79.63 78.13C80.3819 85.0314 80.7691 91.9678 80.79 98.91C80.61 114.3 80.7 129.69 80.79 145.07C80.79 147.54 80.42 150.46 82.86 151.85C85.55 153.38 87.94 151.35 90.06 149.85C96.0962 145.755 101.335 140.594 105.52 134.62C110.52 127.34 114.52 119.44 114.92 110.41C116 84.1 115.26 57.8 115.47 31.5ZM101.57 107.78C100.986 113.859 98.8625 119.689 95.4 124.72C93.82 122.96 94.4 121.11 94.4 119.48C94.19 106.25 95 93 94 79.78C92.45 59.68 76.56 44.85 57 45C37.23 45.21 21.1 61.1 20.55 81.46C20.18 95.02 20.44 108.6 20.38 122.17C20.38 123.06 20.83 124.17 19.62 125.08C15.1189 118.524 12.6812 110.772 12.62 102.82C12.4 81.31 12.54 59.82 12.43 38.28C12.3049 37.2214 12.541 36.1517 13.1001 35.2441C13.6591 34.3366 14.5083 33.6445 15.51 33.28C28.5633 27.0133 41.5933 20.6467 54.6 14.18C55.4619 13.7164 56.4282 13.4812 57.4067 13.497C58.3853 13.5127 59.3435 13.7789 60.19 14.27C73.3567 20.7567 86.5467 27.2167 99.76 33.65C100.61 33.9506 101.336 34.5256 101.823 35.2842C102.31 36.0429 102.53 36.9421 102.45 37.84C102 61.15 103.49 84.49 101.57 107.78Z" fill="white"/>
<path d="M74.58 127.42C74.25 120.5 75.23 111.72 74.12 102.99C72.82 92.76 66 86.3 57.05 86.61C47.57 86.95 40.67 93.84 40.45 104.11C40.12 119.82 40.33 135.54 40.24 151.25C40.24 154.25 41.56 155.84 44.4 156.44C53.1267 158.361 62.171 158.32 70.88 156.32C73.62 155.69 74.69 154.43 74.63 151.58C74.48 144.14 74.58 136.7 74.58 127.42ZM57 145.82C54.58 145.93 51.9 146.4 52 142.37C52.18 136.26 52.05 130.13 52.05 124.02C52.05 117.91 51.99 111.78 52.05 105.66C52.11 102.1 53.05 98.7401 57.37 98.6601C61.5 98.6601 62.37 101.81 62.37 105.23C62.48 117.63 62.54 130.03 62.64 142.43C62.74 146.85 59.45 145.71 57 145.82Z" fill="white"/>
</g>
<defs>
<clipPath id="clip0_561_2673">
<rect width="115.5" height="157.85" fill="white"/>
</clipPath>
</defs>
</svg>
